<?xml version="1.0" encoding="UTF-8" standalone="no"?>
<!-- Created with Inkscape (http://www.inkscape.org/) -->

<svg
   xmlns:dc="http://purl.org/dc/elements/1.1/"
   xmlns:cc="http://creativecommons.org/ns#"
   xmlns:rdf="http://www.w3.org/1999/02/22-rdf-syntax-ns#"
   xmlns:svg="http://www.w3.org/2000/svg"
   xmlns="http://www.w3.org/2000/svg"
   xmlns:sodipodi="http://sodipodi.sourceforge.net/DTD/sodipodi-0.dtd"
   xmlns:inkscape="http://www.inkscape.org/namespaces/inkscape"
   width="600"
   height="400"
   id="svg2"
   version="1.1"
   inkscape:version="0.48.4 r9939"
   sodipodi:docname="brush.svg">
  <defs
     id="defs4" />
  <sodipodi:namedview
     id="base"
     pagecolor="#ffffff"
     bordercolor="#666666"
     borderopacity="1.0"
     inkscape:pageopacity="0.0"
     inkscape:pageshadow="2"
     inkscape:zoom="1.35"
     inkscape:cx="300"
     inkscape:cy="200"
     inkscape:document-units="px"
     inkscape:current-layer="layer1"
     showgrid="false"
     inkscape:window-width="1366"
     inkscape:window-height="718"
     inkscape:window-x="0"
     inkscape:window-y="0"
     inkscape:window-maximized="1"
     showguides="true"
     inkscape:guide-bbox="true">
    <sodipodi:guide
       position="0,0"
       orientation="0,600"
       id="guide3852" />
    <sodipodi:guide
       position="600,0"
       orientation="-400,0"
       id="guide3854" />
    <sodipodi:guide
       position="600,400"
       orientation="0,-600"
       id="guide3856" />
    <sodipodi:guide
       position="0,400"
       orientation="400,0"
       id="guide3858" />
    <sodipodi:guide
       orientation="1,0"
       position="300.74074,350.37037"
       id="guide3860" />
  </sodipodi:namedview>
  <metadata
     id="metadata7">
    <rdf:RDF>
      <cc:Work
         rdf:about="">
        <dc:format>image/svg+xml</dc:format>
        <dc:type
           rdf:resource="http://purl.org/dc/dcmitype/StillImage" />
        <dc:title></dc:title>
      </cc:Work>
    </rdf:RDF>
  </metadata>
  <g
     inkscape:label="Layer 1"
     inkscape:groupmode="layer"
     id="layer1"
     transform="translate(0,-652.36218)">
    <g
       id="g3832"
       transform="matrix(1.2196676,0,0,1.2196676,-67.93877,-171.45245)">
      <path
         d="m 444.63373,896.24333 c 13.22069,1.54321 31.6265,-1.68935 37.53868,-13.61471 5.00185,-10.08918 -1.55555,-24.86873 -10.05966,-32.25047 -12.36025,-10.72894 -32.89236,-12.92487 -48.46439,-7.88524 -10.82915,3.50468 -25.27535,12.86931 -24.09971,24.19059 1.85615,17.87437 27.23577,27.47632 45.08508,29.55983 z m -46.85595,82.78551 c -5.28876,24.16826 -78.98505,20.49465 -120,8.14815 -54.49525,-16.40439 -111.99274,-45.58733 -142.96297,-93.33333 -22.99612,-35.45253 -33.57316,-85.16678 -19.99999,-125.18518 12.45425,-36.71949 47.89655,-67.05083 84.44444,-80 60.22634,-21.33861 132.25738,-10.06062 191.11111,14.81481 53.65922,22.6799 112.05723,60.50431 131.11111,115.55555 10.26437,29.65624 8.54115,74.41002 -17.03704,92.5926 -38.77137,27.56112 -90.44163,-17.84182 -141.04348,-21.73132 -13.27338,-1.02026 -33.25379,5.60677 -35.25282,18.76836 -4.95516,32.62462 76.68386,38.1344 69.62964,70.37036 z"
         style="fill:#bb5f23;fill-opacity:1;stroke:#000000;stroke-width:2.45968676;stroke-linecap:butt;stroke-linejoin:miter;stroke-opacity:1"
         id="path3807"
         inkscape:connector-curvature="0" />
      <path
         inkscape:connector-curvature="0"
         id="path3005"
         d="m 179.60185,998.32514 c -1.70877,-0.81327 -3.37364,-1.69904 -4.90625,-2.65625 -1.62099,-1.01241 -3.09965,-2.11079 -4.34375,-3.28125 -1.2441,-1.17046 -2.25517,-2.39329 -2.9375,-3.71875 -0.38558,-0.74901 -0.56007,-1.56398 -0.5625,-2.40625 -0.002,-0.84227 0.17489,-1.72279 0.4375,-2.625 0.52523,-1.80442 1.43571,-3.68692 2.3125,-5.53125 0.87679,-1.84433 1.71646,-3.66351 2,-5.28125 0.14177,-0.80887 0.15245,-1.54774 -0.0312,-2.25 -0.1837,-0.70226 -0.56023,-1.34392 -1.1875,-1.90625 -0.49889,-0.44724 -1.04713,-0.79508 -1.59375,-1.03125 -0.54662,-0.23617 -1.09916,-0.38468 -1.6875,-0.4375 -1.17669,-0.10563 -2.44253,0.13224 -3.75,0.59375 -1.30747,0.46151 -2.67238,1.16179 -4.0625,1.96875 -1.39012,0.80696 -2.79411,1.72554 -4.21875,2.65625 -1.42464,0.93071 -2.87022,1.886 -4.28125,2.71875 -1.41103,0.83275 -2.80696,1.5494 -4.15625,2.0625 -1.34929,0.5131 -2.63557,0.8095 -3.875,0.78125 -0.61971,-0.0141 -1.22928,-0.12147 -1.8125,-0.3125 -0.58322,-0.19103 -1.14679,-0.47935 -1.6875,-0.875 -0.97269,-0.71175 -1.7088,-1.69583 -2.28125,-2.875 -0.57245,-1.17917 -0.96693,-2.54363 -1.21875,-4.03125 -0.25182,-1.48762 -0.36419,-3.08165 -0.375,-4.71875 -0.0108,-1.6371 0.0682,-3.30988 0.21875,-4.9375 0.10181,-1.1005 0.29241,-1.87099 0.4375,-2.90625 -2.86038,3.42259 -5.88768,6.63444 -9.375,9.125 -15.27616,10.90983 -50.374998,25.15625 -50.374998,25.15625 0,0 54.751888,12.30971 82.218748,9.65621 6.8548,-0.6622 14.03202,-1.62282 21.09375,-2.93746 z"
         style="fill:#0000ff;stroke:#000000;stroke-width:2.45968676;stroke-linecap:butt;stroke-linejoin:miter;stroke-opacity:1" />
      <path
         transform="matrix(0.89,0,0,1.1343284,57.237037,649.25549)"
         d="m 338.51851,70 c 0,13.704844 -16.58204,24.814816 -37.03703,24.814816 -20.45499,0 -37.03704,-11.109972 -37.03704,-24.814816 0,-13.704844 16.58205,-24.814816 37.03704,-24.814816 20.45499,0 37.03703,11.109972 37.03703,24.814816 z"
         sodipodi:ry="24.814816"
         sodipodi:rx="37.037037"
         sodipodi:cy="70"
         sodipodi:cx="301.48148"
         id="path3811"
         style="fill:#ff8e00;fill-opacity:1;stroke:#000000;stroke-width:2.44802237;stroke-miterlimit:4;stroke-dasharray:none"
         sodipodi:type="arc" />
      <path
         sodipodi:type="arc"
         style="fill:#fff000;fill-opacity:1;stroke:#000000;stroke-width:2.44802237;stroke-miterlimit:4;stroke-dasharray:none"
         id="path3821"
         sodipodi:cx="301.48148"
         sodipodi:cy="70"
         sodipodi:rx="37.037037"
         sodipodi:ry="24.814816"
         d="m 338.51851,70 c 0,13.704844 -16.58204,24.814816 -37.03703,24.814816 -20.45499,0 -37.03704,-11.109972 -37.03704,-24.814816 0,-13.704844 16.58205,-24.814816 37.03704,-24.814816 20.45499,0 37.03703,11.109972 37.03703,24.814816 z"
         transform="matrix(0.89,0,0,1.1343284,145.38519,689.25549)" />
      <path
         transform="matrix(0.89,0,0,1.1343284,-39.799996,650.73697)"
         d="m 338.51851,70 c 0,13.704844 -16.58204,24.814816 -37.03703,24.814816 -20.45499,0 -37.03704,-11.109972 -37.03704,-24.814816 0,-13.704844 16.58205,-24.814816 37.03704,-24.814816 20.45499,0 37.03703,11.109972 37.03703,24.814816 z"
         sodipodi:ry="24.814816"
         sodipodi:rx="37.037037"
         sodipodi:cy="70"
         sodipodi:cx="301.48148"
         id="path3823"
         style="fill:#ff0000;fill-opacity:1;stroke:#000000;stroke-width:2.44802237;stroke-miterlimit:4;stroke-dasharray:none"
         sodipodi:type="arc" />
      <path
         sodipodi:type="arc"
         style="fill:#800080;fill-opacity:1;stroke:#000000;stroke-width:2.44802237;stroke-miterlimit:4;stroke-dasharray:none"
         id="path3825"
         sodipodi:cx="301.48148"
         sodipodi:cy="70"
         sodipodi:rx="37.037037"
         sodipodi:ry="24.814816"
         d="m 338.51851,70 c 0,13.704844 -16.58204,24.814816 -37.03703,24.814816 -20.45499,0 -37.03704,-11.109972 -37.03704,-24.814816 0,-13.704844 16.58205,-24.814816 37.03704,-24.814816 20.45499,0 37.03703,11.109972 37.03703,24.814816 z"
         transform="matrix(0.89,0,0,1.1343284,-107.2074,709.99623)" />
      <path
         transform="matrix(0.89,0,0,1.1343284,-88.688886,789.25549)"
         d="m 338.51851,70 c 0,13.704844 -16.58204,24.814816 -37.03703,24.814816 -20.45499,0 -37.03704,-11.109972 -37.03704,-24.814816 0,-13.704844 16.58205,-24.814816 37.03704,-24.814816 20.45499,0 37.03703,11.109972 37.03703,24.814816 z"
         sodipodi:ry="24.814816"
         sodipodi:rx="37.037037"
         sodipodi:cy="70"
         sodipodi:cx="301.48148"
         id="path3827"
         style="fill:#0000ff;fill-opacity:1;stroke:#000000;stroke-width:2.44802237;stroke-miterlimit:4;stroke-dasharray:none"
         sodipodi:type="arc" />
      <path
         sodipodi:type="arc"
         style="fill:#16bf00;fill-opacity:1;stroke:#000000;stroke-width:2.44802237;stroke-miterlimit:4;stroke-dasharray:none"
         id="path3829"
         sodipodi:cx="301.48148"
         sodipodi:cy="70"
         sodipodi:rx="37.037037"
         sodipodi:ry="24.814816"
         d="m 338.51851,70 c 0,13.704844 -16.58204,24.814816 -37.03703,24.814816 -20.45499,0 -37.03704,-11.109972 -37.03704,-24.814816 0,-13.704844 16.58205,-24.814816 37.03704,-24.814816 20.45499,0 37.03703,11.109972 37.03703,24.814816 z"
         transform="matrix(0.89,0,0,1.1343284,-19.799997,848.51475)" />
      <path
         inkscape:connector-curvature="0"
         id="path2985"
         d="m 178.66435,922.76264 c -2.82251,0.18322 -5.83305,0.62099 -9.03125,1.4375 -15.30289,3.90688 -23.05178,20.51101 -33.59375,33.125 -0.14509,1.03526 -0.33569,1.80575 -0.4375,2.90625 -0.15058,1.62762 -0.22956,3.3004 -0.21875,4.9375 0.0108,1.6371 0.12318,3.23113 0.375,4.71875 0.25182,1.48762 0.6463,2.85208 1.21875,4.03125 0.57245,1.17917 1.30856,2.16325 2.28125,2.875 0.54071,0.39565 1.10428,0.68397 1.6875,0.875 0.58322,0.19103 1.19279,0.29837 1.8125,0.3125 1.23943,0.0282 2.52571,-0.26815 3.875,-0.78125 1.34929,-0.5131 2.74522,-1.22975 4.15625,-2.0625 1.41103,-0.83275 2.85661,-1.78804 4.28125,-2.71875 1.42464,-0.93071 2.82863,-1.84929 4.21875,-2.65625 1.39012,-0.80696 2.75503,-1.50724 4.0625,-1.96875 1.30747,-0.46151 2.57331,-0.69938 3.75,-0.59375 0.58834,0.0528 1.14088,0.20133 1.6875,0.4375 0.54662,0.23617 1.09486,0.58401 1.59375,1.03125 0.62727,0.56233 1.0038,1.20399 1.1875,1.90625 0.1837,0.70226 0.17302,1.44113 0.0312,2.25 -0.28354,1.61774 -1.12321,3.43692 -2,5.28125 -0.87679,1.84433 -1.78727,3.72683 -2.3125,5.53125 -0.26261,0.90221 -0.43993,1.78273 -0.4375,2.625 0.002,0.84227 0.17692,1.65724 0.5625,2.40625 0.68233,1.32546 1.6934,2.54829 2.9375,3.71875 1.2441,1.17046 2.72276,2.26884 4.34375,3.28125 1.53261,0.95721 3.19748,1.84298 4.90625,2.65625 12.07538,-2.24801 23.73863,-5.98663 32.25,-14.125 8.75187,-8.36832 12.59375,-34.0625 12.59375,-34.0625 l -15.5625,-16.28125 c 0,0 -10.46116,-12.3763 -30.21875,-11.09375 z"
         style="fill:#803300;stroke:#000000;stroke-width:2.45968676;stroke-linecap:butt;stroke-linejoin:miter;stroke-opacity:1" />
      <path
         transform="translate(0,652.36218)"
         id="path3016"
         d="m 267.65625,268.53125 c -0.49516,-0.14342 -1.00804,-0.14226 -1.5,-0.3125 -2.11577,-0.73215 -4.18707,-1.73359 -6.21875,-2.90625 -2.03168,-1.17266 -3.99884,-2.53942 -5.90625,-4.0625 -1.90741,-1.52308 -3.75704,-3.18533 -5.5,-4.96875 -1.74296,-1.78342 -3.39918,-3.67132 -4.9375,-5.625 -1.53832,-1.95368 -2.9565,-3.96613 -4.25,-6 -1.23438,-1.94091 -2.33683,-3.90998 -3.3125,-5.84375 -10.88076,12.93185 -28.625,40.15625 -28.625,40.15625 l 17.03125,18.0625 c 0,0 29.53307,-16.17075 41.96875,-27.3125 0.42804,-0.3835 0.82312,-0.80275 1.25,-1.1875 z"
         style="fill:#ffd28c;fill-opacity:1;stroke:#000000;stroke-width:2.45968676;stroke-linecap:butt;stroke-linejoin:miter;stroke-opacity:1"
         inkscape:connector-curvature="0" />
      <path
         transform="translate(0,652.36218)"
         id="path3014"
         d="m 295.59375,241.53125 c -1.59291,-0.85509 -3.22276,-1.74578 -4.875,-2.84375 -2.02564,-1.3461 -4.07872,-2.8879 -6.125,-4.53125 -2.04628,-1.64335 -4.07106,-3.41536 -6.0625,-5.28125 -1.99144,-1.86589 -3.9514,-3.79878 -5.8125,-5.8125 -1.8611,-2.01372 -3.62598,-4.10066 -5.28125,-6.1875 -1.65527,-2.08684 -3.18856,-4.19599 -4.5625,-6.28125 -0.30715,-0.46617 -0.52172,-0.9112 -0.8125,-1.375 -8.6543,9.53948 -17.21152,19.1747 -25.5625,28.96875 -0.14246,0.16708 -0.32378,0.45271 -0.46875,0.625 0.97567,1.93377 2.07812,3.90284 3.3125,5.84375 1.2935,2.03387 2.71168,4.04632 4.25,6 1.53832,1.95368 3.19454,3.84158 4.9375,5.625 1.74296,1.78342 3.59259,3.44567 5.5,4.96875 1.90741,1.52308 3.87457,2.88984 5.90625,4.0625 2.03168,1.17266 4.10298,2.1741 6.21875,2.90625 0.49196,0.17024 1.00484,0.16908 1.5,0.3125 9.61858,-8.66928 18.87404,-17.7434 27.9375,-27 z"
         style="fill:#ffb900;fill-opacity:1;stroke:#000000;stroke-width:2.45968676;stroke-linecap:butt;stroke-linejoin:miter;stroke-opacity:1"
         inkscape:connector-curvature="0" />
      <path
         transform="translate(0,652.36218)"
         id="path2987"
         d="m 432.21875,48.1875 c -9.14144,-1.227803 -19.50735,17.545184 -28.34375,25 -50.04419,42.21968 -97.78817,87.504 -141.8125,136.03125 0.29078,0.4638 0.50535,0.90883 0.8125,1.375 1.37394,2.08526 2.90723,4.19441 4.5625,6.28125 1.65527,2.08684 3.42015,4.17378 5.28125,6.1875 1.8611,2.01372 3.82106,3.94661 5.8125,5.8125 1.99144,1.86589 4.01622,3.6379 6.0625,5.28125 2.04628,1.64335 4.09936,3.18515 6.125,4.53125 1.65224,1.09797 3.28209,1.98866 4.875,2.84375 C 341.83042,194.30927 381.32608,140.17386 417.75,85.0625 c 7.26287,-10.98912 28.26362,-26.40076 18.3125,-35.03125 -1.24769,-1.082105 -2.53783,-1.66835 -3.84375,-1.84375 z"
         style="fill:#ffd28c;fill-opacity:1;stroke:#000000;stroke-width:2.45968676;stroke-linecap:butt;stroke-linejoin:miter;stroke-opacity:1"
         inkscape:connector-curvature="0" />
      <path
         sodipodi:nodetypes="cscc"
         inkscape:connector-curvature="0"
         id="path2991"
         d="m 89.62963,992.36218 c 0,0 42.60148,3.12072 63.7037,0.74074 23.61564,-2.66346 62.23733,-27.75512 60,-31.11111 l 0,0.74074"
         style="fill:none;stroke:#000000;stroke-width:0.81989551px;stroke-linecap:butt;stroke-linejoin:miter;stroke-opacity:1" />
      <path
         sodipodi:nodetypes="cc"
         inkscape:connector-curvature="0"
         id="path2993"
         d="m 112.59259,985.69551 c 58.03239,-3.32964 80.39629,-17.40285 88.14814,-40.74074"
         style="fill:none;stroke:#000000;stroke-width:0.81989551;stroke-linecap:butt;stroke-linejoin:miter;stroke-opacity:1" />
      <path
         sodipodi:nodetypes="cac"
         inkscape:connector-curvature="0"
         id="path2995"
         d="m 83.703704,989.39921 c 0,0 32.951166,-7.33234 47.407406,-15.55556 13.38584,-7.61433 34.81481,-30.37036 34.81481,-30.37036"
         style="fill:none;stroke:#000000;stroke-width:0.81989551px;stroke-linecap:butt;stroke-linejoin:miter;stroke-opacity:1" />
      <path
         sodipodi:nodetypes="cc"
         inkscape:connector-curvature="0"
         id="path2997"
         d="m 147.40741,969.39921 c 8.12397,3.44067 44.42877,-22.23267 49.62963,-37.77777"
         style="fill:none;stroke:#000000;stroke-width:0.81989551px;stroke-linecap:butt;stroke-linejoin:miter;stroke-opacity:1" />
      <path
         sodipodi:nodetypes="cc"
         inkscape:connector-curvature="0"
         id="path2999"
         d="m 191.85185,965.69551 c -13.14564,25.651 -55.97469,23.44843 -86.66666,21.48148"
         style="fill:none;stroke:#000000;stroke-width:0.81989551px;stroke-linecap:butt;stroke-linejoin:miter;stroke-opacity:1" />
      <path
         sodipodi:nodetypes="cc"
         inkscape:connector-curvature="0"
         id="path3001"
         d="m 206.66667,978.2881 c -2.5966,13.05867 -39.50853,18.04688 -43.70371,17.77778"
         style="fill:none;stroke:#000000;stroke-width:0.81989551px;stroke-linecap:butt;stroke-linejoin:miter;stroke-opacity:1" />
    </g>
  </g>
</svg>
