<?xml version="1.0" encoding="UTF-8" standalone="no"?>
<!-- Created with Inkscape (http://www.inkscape.org/) -->

<svg
   xmlns:dc="http://purl.org/dc/elements/1.1/"
   xmlns:cc="http://creativecommons.org/ns#"
   xmlns:rdf="http://www.w3.org/1999/02/22-rdf-syntax-ns#"
   xmlns:svg="http://www.w3.org/2000/svg"
   xmlns="http://www.w3.org/2000/svg"
   xmlns:sodipodi="http://sodipodi.sourceforge.net/DTD/sodipodi-0.dtd"
   xmlns:inkscape="http://www.inkscape.org/namespaces/inkscape"
   width="800"
   height="800"
   id="svg2"
   version="1.1"
   inkscape:version="0.48.4 r9939"
   sodipodi:docname="svg10.svg">
  <defs
     id="defs4">
    <inkscape:path-effect
       effect="spiro"
       id="path-effect3029"
       is_visible="true" />
    <inkscape:path-effect
       effect="spiro"
       id="path-effect3021"
       is_visible="true" />
    <inkscape:path-effect
       effect="spiro"
       id="path-effect3017"
       is_visible="true" />
    <inkscape:path-effect
       effect="spiro"
       id="path-effect3013"
       is_visible="true" />
    <inkscape:path-effect
       effect="skeletal"
       id="path-effect3009"
       is_visible="true"
       pattern="M 0,0 0,10 10,5 z"
       copytype="single_stretched"
       prop_scale="1"
       scale_y_rel="false"
       spacing="0"
       normal_offset="0"
       tang_offset="0"
       prop_units="false"
       vertical_pattern="false"
       fuse_tolerance="0" />
    <inkscape:path-effect
       effect="spiro"
       id="path-effect3007"
       is_visible="true" />
    <inkscape:path-effect
       effect="spiro"
       id="path-effect3777"
       is_visible="true" />
    <inkscape:path-effect
       effect="spiro"
       id="path-effect3773"
       is_visible="true" />
    <inkscape:path-effect
       effect="spiro"
       id="path-effect3769"
       is_visible="true" />
    <inkscape:path-effect
       effect="spiro"
       id="path-effect3765"
       is_visible="true" />
  </defs>
  <sodipodi:namedview
     id="base"
     pagecolor="#ffffff"
     bordercolor="#666666"
     borderopacity="1.0"
     inkscape:pageopacity="0.0"
     inkscape:pageshadow="2"
     inkscape:zoom="0.675"
     inkscape:cx="400"
     inkscape:cy="400"
     inkscape:document-units="px"
     inkscape:current-layer="layer1"
     showgrid="false"
     inkscape:snap-to-guides="true"
     inkscape:window-width="1366"
     inkscape:window-height="718"
     inkscape:window-x="0"
     inkscape:window-y="0"
     inkscape:window-maximized="1"
     showguides="true"
     inkscape:guide-bbox="true">
    <sodipodi:guide
       position="0,0"
       orientation="0,800"
       id="guide3008" />
    <sodipodi:guide
       position="800,0"
       orientation="-800,0"
       id="guide3010" />
    <sodipodi:guide
       position="800,800"
       orientation="0,-800"
       id="guide3012" />
    <sodipodi:guide
       position="0,800"
       orientation="800,0"
       id="guide3014" />
  </sodipodi:namedview>
  <metadata
     id="metadata7">
    <rdf:RDF>
      <cc:Work
         rdf:about="">
        <dc:format>image/svg+xml</dc:format>
        <dc:type
           rdf:resource="http://purl.org/dc/dcmitype/StillImage" />
        <dc:title />
      </cc:Work>
    </rdf:RDF>
  </metadata>
  <g
     inkscape:label="Layer 1"
     inkscape:groupmode="layer"
     id="layer1"
     transform="translate(0,-252.36218)">
    <path
       style="fill:none;stroke:#000000;stroke-width:3;stroke-linecap:butt;stroke-linejoin:miter;stroke-opacity:1"
       d="m 146.75,252.36218 c -7.05251,6.69532 -13.47056,13.03306 -18.96875,18.53125 -14.05602,14.05602 -67.528954,-2.8773 -88.90625,18.5 -14.025328,14.02533 14.267652,48.7011 0,62.96875 C 29.413082,370.43067 15.831773,379.0651 0,389.08093"
       id="path3023" />
    <path
       style="fill:none;stroke:#000000;stroke-width:3;stroke-linecap:butt;stroke-linejoin:miter;stroke-opacity:1"
       d="m 0,611.83093 c 1.3755844,1.26469 2.6803384,2.46159 3.71875,3.5 5.7914049,5.79141 5.53125,25.59341 5.53125,37.03125 0,4.48677 1.963023,14.6052 0,18.53125 C 6.2577662,676.8779 3.1315023,682.52979 0,688.04968"
       id="path3021" />
    <path
       style="fill:none;stroke:#000000;stroke-width:3;stroke-linecap:butt;stroke-linejoin:miter;stroke-opacity:1"
       d="m 716.90625,1052.3622 c -1.7864,-9.1337 -2.09417,-16.6558 1.625,-20.375 20.68342,-20.6834 54.0191,-16.7717 81.46875,-20.0938"
       id="path3018" />
    <path
       style="fill:none;stroke:#000000;stroke-width:3;stroke-linecap:butt;stroke-linejoin:miter;stroke-opacity:1"
       d="m 800,331.14343 c -4.67884,-10.87791 -10.46876,-20.71876 -18.53125,-28.78125 -12.94553,-12.94554 -27.69609,-18.36092 -35.1875,-33.34375 -2.7519,-5.5038 -5.23737,-11.09714 -7.75,-16.65625"
       id="path3019" />
    <path
       style="fill:none;stroke:#000000;stroke-width:3;stroke-linecap:butt;stroke-linejoin:miter;stroke-opacity:1"
       d="m 222.375,252.36218 c -6.05923,5.42481 1.34531,17.18748 -2.6875,24.25 -2.50517,4.38722 -7.53362,6.98596 -12.125,9.09375 -36.19011,16.614 -89.32683,-3.21294 -116.65625,25.75 -19.658068,20.83306 1.277559,60.38216 -13.625,84.84375 -13.71943,22.51956 -49.942565,24.44569 -63.65625,46.96875 -6.6493041,10.92068 -4.6293715,25.16986 -6.0625,37.875 -0.8506835,7.54158 -2.8456445,15.24959 -1.5,22.71875 1.9641828,10.90243 8.06887,20.72864 13.625,30.3125 3.448543,5.94845 8.940068,10.59384 12.125,16.6875 5.696417,10.89883 10.876772,22.60955 12.125,34.84375 6.256158,61.31819 -31.162568,122.06484 -24.25,183.3125 2.599001,23.02802 23.347956,41.99959 24.25,65.15625 0.429295,11.02055 -4.8508,21.63241 -9.09375,31.8125 C 25.713007,887.89453 6.0024222,905.1185 0,928.08093"
       id="path3034" />
    <path
       style="fill:none;stroke:#000000;stroke-width:3;stroke-linecap:butt;stroke-linejoin:miter;stroke-opacity:1"
       d="m 0,970.54968 c 11.207269,27.05674 34.542367,52.28282 62.125,62.12502 23.900572,8.5283 50.6104,-11.0536 75.75,-7.5938 24.69359,3.3985 45.13192,22.654 69.625,27.2813"
       id="path3032" />
    <path
       style="fill:none;stroke:#000000;stroke-width:3;stroke-linecap:butt;stroke-linejoin:miter;stroke-opacity:1"
       d="m 244.09375,1052.3622 c 29.6787,-4.3373 56.2718,-27.4286 86.21875,-25.75 21.89252,1.2271 39.04627,21.37 60.53125,25.75"
       id="path3029" />
    <path
       style="fill:none;stroke:#000000;stroke-width:3;stroke-linecap:butt;stroke-linejoin:miter;stroke-opacity:1"
       d="m 437.8125,1052.3622 c 18.72345,-2.5494 35.75365,-14.1872 54.625,-15.1563 30.16698,-1.5491 59.24358,12.6213 89.34375,15.1563"
       id="path3027" />
    <path
       style="fill:none;stroke:#000000;stroke-width:3;stroke-linecap:butt;stroke-linejoin:miter;stroke-opacity:1"
       d="m 643.71875,1052.3622 c 24.08081,-10.1381 31.66185,-43.8905 54.78125,-56.06252 20.86327,-10.98423 54.5113,5.91972 69.6875,-12.125 23.40626,-27.83038 -4.14652,-72.96635 0,-109.09375 2.54263,-22.15316 11.1231,-43.22542 15.15625,-65.15625 2.02691,-11.02159 4.67477,-22.107 4.53125,-33.3125 -0.4849,-37.86039 -17.17753,-74.27497 -18.1875,-112.125 -0.88088,-33.01205 12.66743,-65.53942 10.625,-98.5 -1.63611,-26.4034 -13.084,-51.29291 -18.1875,-77.25 -1.87592,-9.54117 -4.63102,-19.08891 -4.5625,-28.8125 0.10473,-14.86259 6.32348,-29.12892 7.59375,-43.9375 0.34542,-4.02688 0.53662,-8.11912 0,-12.125 -4.58749,-34.24562 -1.19743,-77.34074 -27.28125,-100 -24.20812,-21.02982 -65.60163,-0.34186 -95.4375,-12.09375 C 621.53206,283.5341 609.13255,259.2635 587.75,252.36218"
       id="path3015" />
    <path
       style="fill:none;stroke:#000000;stroke-width:3;stroke-linecap:butt;stroke-linejoin:miter;stroke-opacity:1"
       inkscape:path-effect="#path-effect3013"
       inkscape:original-d="m 336.36363,272.05915 c -33.9119,9.57564 -59.94064,39.22229 -93.93939,48.48485 -26.35425,7.1799 -70.40027,-6.87246 -81.81818,4.54545 -10.23207,10.23207 -16.78455,27.50849 -24.24242,42.42425 -4.97504,9.95006 1.62824,25.53138 -3.03031,34.84848 C 121.1881,426.65265 92.116421,436.00333 71.212121,456.90763 58.458257,469.6615 52.044215,497.28766 50,499.33188 c -7.344573,7.34457 23.029153,79.39164 28.787879,90.90909 13.193432,26.38686 -43.76415,104.89594 -27.272727,137.87879 15.516903,31.0338 34.960952,44.44941 39.393939,71.21212 10.312569,62.25875 -113.33878,153.27142 -33.333333,186.36363 18.225331,7.53844 39.687089,-6.5634 59.090902,-3.0303 29.81699,5.42916 53.07648,34.61679 83.33334,36.36359 31.10209,1.7957 47.83694,-18.9613 89.39394,-27.27268 32.49943,-6.49989 50.27456,19.07668 72.72727,30.30298 8.73588,4.494 27.44155,7.1668 40.90909,4.5455 28.17047,-5.4832 56.98628,-35.47146 75.75758,-40.90909 31.64877,-9.16795 88.04479,51.43219 145.45454,22.72729 13.51939,-6.7597 22.30623,-43.72888 43.9394,-54.54547 21.60906,-10.80453 50.82493,-2.34008 68.18182,-19.69697 12.62865,-12.62865 -14.44134,-90.18767 -15.15152,-106.0606 -1.10174,-24.62436 32.45092,-45.83562 30.30303,-69.69697 -1.90706,-21.18594 -14.42875,-57.04587 -25.75757,-59.09091 -24.02581,-4.33705 -22.12265,-78.31285 -9.09091,-84.84849 9.36831,-4.69837 15.30751,-29.09988 21.21212,-40.90909 4.89466,-9.78933 9.35715,-21.81949 9.09091,-33.33333 -0.79754,-34.48983 -31.53613,-67.94893 -31.81818,-98.48485 0,-16.36391 9.7018,-64.54062 -1.51516,-75.75758 -12.47046,-12.47046 -44.42032,-38.3959 -72.72727,-24.24242 -8.27358,4.13679 -39.99163,9.54964 -50,4.54545 -28.61832,-14.30915 -37.03781,-47.64386 -57.57576,-68.18181 -24.0929,-24.09291 -109.25057,-6.22028 -115.15151,-12.12122 -4.30664,-4.30664 -55.49982,-1.37086 -81.81819,6.06061 z"
       id="path3011"
       d="m 336.36363,272.05915 c -16.79662,5.73175 -31.287,16.53823 -45.96735,26.51152 -14.68035,9.97329 -30.40134,19.47333 -47.97204,21.97333 -13.70797,1.9504 -27.60044,-0.49834 -41.40024,-1.62888 -6.8999,-0.56527 -13.85881,-0.79912 -20.73409,0.0124 -6.87529,0.81151 -13.68939,2.69863 -19.68385,6.16194 -7.32977,4.23479 -13.23302,10.74321 -17.25981,18.18927 -4.0268,7.44606 -6.22584,15.80372 -6.98261,24.23498 -1.04589,11.65244 0.56263,23.71456 -3.03031,34.84848 -2.15614,6.68151 -6.11561,12.68971 -10.91556,17.81338 -4.79995,5.12367 -10.43238,9.40394 -16.28896,13.27588 -11.713152,7.7439 -24.517394,14.02112 -34.916689,23.45619 C 59.196359,467.80929 50.801875,483.12751 50,499.33188 c -0.792314,16.01117 5.620759,31.4336 12.497882,45.91429 6.877122,14.4807 14.465398,29.06821 16.289997,44.9948 1.355922,11.83559 -0.573793,23.85265 -3.953679,35.27614 -3.379886,11.42349 -8.187809,22.36249 -12.743954,33.36982 -4.556145,11.00732 -8.892417,22.18296 -11.262468,33.85783 -2.370051,11.67487 -2.70582,23.95546 0.687374,35.375 3.890144,13.09199 12.365351,24.2439 20.453303,35.24928 8.087952,11.00539 16.138048,22.59575 18.940636,35.96284 1.82812,8.71931 1.304826,17.83955 -0.822921,26.49063 -2.127747,8.65108 -5.825569,16.85868 -10.282108,24.57281 -8.913078,15.42825 -20.807359,28.90329 -30.778011,43.67014 -9.970651,14.76685 -18.196216,31.58096 -18.256661,49.39865 -0.03022,8.90885 2.062954,17.90715 6.639909,25.55045 4.576954,7.64329 11.71875,13.8517 20.166459,16.68095 9.434101,3.15961 19.731138,2.01801 29.522949,0.25568 9.791812,-1.76232 19.653983,-4.12175 29.567953,-3.28598 15.26807,1.28713 28.78832,9.93436 41.62775,18.29619 6.41972,4.1809 12.86623,8.3653 19.7647,11.6975 6.89847,3.3322 14.30045,5.8075 21.94089,6.3699 7.85488,0.5782 15.75601,-0.8815 23.2379,-3.3421 7.48188,-2.4607 14.59633,-5.9073 21.65017,-9.4111 14.10768,-7.00765 28.75372,-14.45965 44.50587,-14.51948 13.26938,-0.0504 25.99208,5.20435 37.6662,11.51258 11.67412,6.3082 22.77445,13.7786 35.06107,18.7904 12.90713,5.2649 27.32684,7.6817 40.90909,4.5455 14.09123,-3.2537 26.13379,-12.0967 37.78228,-20.6677 11.64848,-8.57099 23.8167,-17.29461 37.9753,-20.24139 12.50219,-2.60204 25.58616,-0.43148 37.66984,3.69891 12.08368,4.1304 23.40935,10.16259 34.98241,15.56068 11.57306,5.3982 23.61708,10.2269 36.30131,11.7052 12.68424,1.4784 26.1965,-0.6948 36.50098,-8.2375 9.51765,-6.9668 15.41256,-17.68888 21.28894,-27.91579 5.87639,-10.22691 12.444,-20.71784 22.65046,-26.62968 5.2129,-3.01944 11.11918,-4.66901 17.06467,-5.63982 5.94548,-0.97081 11.97475,-1.29033 17.9752,-1.82506 6.00044,-0.53473 12.02179,-1.29443 17.76603,-3.10965 5.74424,-1.81522 11.23727,-4.7449 15.37592,-9.12244 3.22336,-3.40943 5.54826,-7.62417 6.94646,-12.10293 1.39819,-4.47876 1.88513,-9.21747 1.67238,-13.90458 -0.42549,-9.37421 -3.59766,-18.41314 -7.43137,-26.97816 -3.83371,-8.56503 -8.36235,-16.82394 -11.7482,-25.57568 -3.38585,-8.75175 -5.61893,-18.17188 -4.59079,-27.49925 1.40244,-12.72308 8.63527,-23.9415 15.55294,-34.71134 6.91768,-10.76983 13.9166,-22.21266 14.75009,-34.98563 0.71189,-10.90958 -3.21231,-21.641 -8.47693,-31.22272 -5.26462,-9.58173 -11.89362,-18.35474 -17.28064,-27.86819 -7.23507,-12.7771 -12.18689,-26.90521 -13.94135,-41.48335 -1.75445,-14.57814 -0.26685,-29.60237 4.85044,-43.36514 5.35831,-14.41099 14.48373,-27.08459 21.21212,-40.90909 5.07943,-10.43645 8.8206,-21.72958 9.09091,-33.33333 0.4051,-17.38981 -6.91755,-33.94049 -14.52056,-49.58542 -7.60301,-15.64493 -15.78305,-31.57097 -17.29762,-48.89943 -1.11342,-12.73887 1.45895,-25.46781 2.82471,-38.1821 1.36575,-12.71429 1.39969,-26.1485 -4.33987,-37.57548 -3.08809,-6.14812 -7.75851,-11.45322 -13.28647,-15.54922 -5.52797,-4.09601 -11.89862,-6.99978 -18.54157,-8.79053 -13.28591,-3.58152 -27.42906,-2.71285 -40.89923,0.0973 -8.3021,1.732 -16.45336,4.18651 -24.82259,5.55792 -8.36922,1.37141 -17.11525,1.61932 -25.17741,-1.01247 -7.2056,-2.35217 -13.54928,-6.91883 -18.78903,-12.3959 -5.23976,-5.47707 -9.44314,-11.85753 -13.27558,-18.39709 -7.66487,-13.0791 -14.2198,-27.27354 -25.51115,-37.38882 -7.41267,-6.64059 -16.56554,-11.17648 -26.14643,-13.86935 -9.5809,-2.69287 -19.59717,-3.5943 -29.54895,-3.50904 -19.90354,0.17052 -39.57859,4.22577 -59.45613,5.25717 -27.43521,1.42355 -55.81821,-2.81173 -81.81819,6.06061" />
    <path
       style="fill:none;stroke:#000000;stroke-width:3"
       d="m 364.59375,881.42468 c 9.39797,25.32669 16.64244,64.5497 38.4375,64.875 21.74598,0.32457 30.16225,-38.48972 40.28125,-63.53125 -0.3031,0.0498 -0.60276,0.10773 -0.90625,0.15625 -26.03265,4.20002 -52.45838,3.54005 -77.8125,-1.5 z"
       id="path3178" />
    <path
       style="fill:none;stroke:#000000;stroke-width:3;stroke-linecap:butt;stroke-linejoin:miter;stroke-opacity:1"
       d="m 401.5,281.14343 c -13.13098,0.0938 -25.74618,7.40235 -36.34375,15.15625 -13.88231,10.15725 -22.78026,25.8305 -33.34375,39.40625 -8.00416,10.2866 -18.34342,19.53499 -22.71875,31.8125 -5.26668,14.77871 -6.54017,31.67706 -3.03125,46.96875 1.1323,4.93451 2.59299,10.04714 4.375,15.0625 2.67249,-1.31352 5.36598,-2.63652 8.09375,-3.84375 3.42148,-1.51425 6.87086,-2.93873 10.375,-4.28125 3.50414,-1.34252 7.04299,-2.58423 10.625,-3.75 3.58201,-1.16577 7.2199,-2.23474 10.875,-3.21875 3.6551,-0.98401 7.33912,-1.89026 11.0625,-2.6875 3.72338,-0.79724 7.46312,-1.4883 11.25,-2.09375 3.78688,-0.60545 7.62316,-1.1226 11.46875,-1.53125 3.84559,-0.40865 7.7255,-0.73067 11.625,-0.9375 3.8995,-0.20683 7.80137,-0.3125 11.75,-0.3125 3.94863,0 7.88175,0.10567 11.78125,0.3125 3.8995,0.20683 7.77941,0.52885 11.625,0.9375 3.84559,0.40865 7.65062,0.9258 11.4375,1.53125 3.78688,0.60545 7.55787,1.29651 11.28125,2.09375 3.72338,0.79724 7.4074,1.70349 11.0625,2.6875 3.6551,0.98401 7.29299,2.05298 10.875,3.21875 3.58201,1.16577 7.12086,2.40748 10.625,3.75 2.74313,1.05096 5.43221,2.18722 8.125,3.34375 0.34944,-0.90859 0.78391,-1.80528 1.09375,-2.71875 6.18398,-18.2314 3.76338,-40.20436 -4.5625,-57.5625 -5.09913,-10.63086 -18.40099,-15.03 -25.75,-24.25 -10.58206,-13.27614 -12.88092,-32.86399 -25.75,-43.9375 C 429.09818,287.42985 415.09855,281.0463 401.5,281.14343 z"
       id="path3154" />
    <path
       style="fill:none;stroke:#000000;stroke-width:3;stroke-linecap:butt;stroke-linejoin:miter;stroke-opacity:1"
       d="m 192.4375,412.95593 9.0625,54.5625 -78.78125,-33.34375 37.875,69.6875 -51.5,6.0625 88.59375,40.375 c 9.49596,-27.60482 28.12537,-52.17766 48.78125,-76.0625 L 192.4375,412.95593 z"
       id="path3152" />
    <path
       style="fill:none;stroke:#000000;stroke-width:3;stroke-linecap:butt;stroke-linejoin:miter;stroke-opacity:1"
       d="m 613.625,412.95593 -48.375,59.875 c 18.60151,20.64487 37.17974,39.525 55.78125,83.8125 l 75.9375,-46.71875 -51.5,-6.0625 37.875,-69.6875 -78.8125,33.34375 9.09375,-54.5625 z"
       id="path3150" />
    <path
       style="fill:none;stroke:#000000;stroke-width:3;stroke-linecap:butt;stroke-linejoin:miter;stroke-opacity:1"
       d="m 222,786.23718 -112.90625,69.15625 51.5,6.0625 -37.875,69.6875 78.78125,-33.3125 -9.0625,54.53125 89.78125,-105.84375 c -0.84696,-0.58176 -1.72341,-1.12559 -2.5625,-1.71875 -3.0429,-2.15104 -6.03248,-4.35855 -8.96875,-6.65625 -2.93627,-2.2977 -5.83139,-4.68565 -8.65625,-7.125 -2.82486,-2.43935 -5.5726,-4.92401 -8.28125,-7.5 -2.70865,-2.57599 -5.34985,-5.22989 -7.9375,-7.9375 -2.58765,-2.70761 -5.13189,-5.47828 -7.59375,-8.3125 -2.46186,-2.83422 -4.85622,-5.73169 -7.1875,-8.6875 -2.33128,-2.95581 -4.58534,-5.95886 -6.78125,-9.03125 -0.77385,-1.08273 -1.49336,-2.21571 -2.25,-3.3125 z"
       id="path3157" />
    <path
       style="fill:none;stroke:#000000;stroke-width:3;stroke-linecap:butt;stroke-linejoin:miter;stroke-opacity:1"
       d="m 522.78125,853.11218 89.34375,105.3125 -9.09375,-54.5625 78.78125,33.34375 -37.875,-69.6875 51.53125,-6.0625 L 586.875,794.92468 c -0.9224,1.21675 -1.80562,2.45888 -2.75,3.65625 -2.33128,2.95581 -4.72564,5.85328 -7.1875,8.6875 -2.46186,2.83422 -5.0061,5.60489 -7.59375,8.3125 -2.58765,2.70761 -5.22885,5.36151 -7.9375,7.9375 -2.70865,2.57599 -5.48764,5.06065 -8.3125,7.5 -2.82486,2.43935 -5.68873,4.8273 -8.625,7.125 -2.93627,2.2977 -5.92585,4.50521 -8.96875,6.65625 -3.0429,2.15104 -6.13652,4.25064 -9.28125,6.25 -1.1271,0.71659 -2.29774,1.36583 -3.4375,2.0625 z"
       id="path3162" />
    <path
       sodipodi:type="arc"
       style="fill:none;stroke:#000000;stroke-width:3"
       id="path3020"
       sodipodi:cx="487.87878"
       sodipodi:cy="463.63635"
       sodipodi:rx="228.78787"
       sodipodi:ry="239.39394"
       d="m 716.66666,463.63635 c 0,132.21362 -102.43182,239.39394 -228.78788,239.39394 -126.35605,0 -228.78787,-107.18032 -228.78787,-239.39394 0,-132.21362 102.43182,-239.39393 228.78787,-239.39393 126.35606,0 228.78788,107.18031 228.78788,239.39393 z"
       transform="translate(-80.30303,182.66521)" />
    <path
       transform="matrix(1.8783068,0,0,3.1203704,-322.22221,-6.3920389)"
       d="m 381.81818,118.18182 c 0,5.02077 -7.12274,9.09091 -15.90909,9.09091 -8.78635,0 -15.90909,-4.07014 -15.90909,-9.09091 0,-5.02077 7.12274,-9.09091 15.90909,-9.09091 8.78635,0 15.90909,4.07014 15.90909,9.09091 z"
       sodipodi:ry="9.090909"
       sodipodi:rx="15.909091"
       sodipodi:cy="118.18182"
       sodipodi:cx="365.90909"
       id="path3031"
       style="fill:none;fill-opacity:1;stroke:#000000;stroke-width:1.23918140000000010"
       sodipodi:type="arc" />
    <path
       sodipodi:type="arc"
       style="fill:none;fill-opacity:1;stroke:#000000;stroke-width:1.90646672000000006"
       id="path2999"
       sodipodi:cx="365.90909"
       sodipodi:cy="118.18182"
       sodipodi:rx="15.909091"
       sodipodi:ry="9.090909"
       d="m 381.81818,118.18182 c 0,5.02077 -7.12274,9.09091 -15.90909,9.09091 -8.78635,0 -15.90909,-4.07014 -15.90909,-9.09091 0,-5.02077 7.12274,-9.09091 15.90909,-9.09091 8.78635,0 15.90909,4.07014 15.90909,9.09091 z"
       transform="matrix(1.2380952,0,0,2,-83.333332,125.08945)" />
    <path
       sodipodi:type="arc"
       style="fill:none;fill-opacity:1;stroke:#000000;stroke-width:1.57310152000000003"
       id="path3033"
       sodipodi:cx="365.90909"
       sodipodi:cy="118.18182"
       sodipodi:rx="15.909091"
       sodipodi:ry="9.090909"
       d="m 381.81818,118.18182 c 0,5.02077 -7.12274,9.09091 -15.90909,9.09091 -8.78635,0 -15.90909,-4.07014 -15.90909,-9.09091 0,-5.02077 7.12274,-9.09091 15.90909,-9.09091 8.78635,0 15.90909,4.07014 15.90909,9.09091 z"
       transform="matrix(1.4656085,0,0,2.4814815,-107.40741,69.365537)" />
    <path
       transform="matrix(1,0,0,1.6666667,62.666667,165.51369)"
       d="m 381.81818,118.18182 c 0,5.02077 -7.12274,9.09091 -15.90909,9.09091 -8.78635,0 -15.90909,-4.07014 -15.90909,-9.09091 0,-5.02077 7.12274,-9.09091 15.90909,-9.09091 8.78635,0 15.90909,4.07014 15.90909,9.09091 z"
       sodipodi:ry="9.090909"
       sodipodi:rx="15.909091"
       sodipodi:cy="118.18182"
       sodipodi:cx="365.90909"
       id="path3003"
       style="fill:none;fill-opacity:1;stroke:#000000;stroke-width:2.32379006999999982"
       sodipodi:type="arc" />
    <path
       sodipodi:type="star"
       style="fill:none;fill-opacity:1;stroke:#000000;stroke-width:1.48694634000000003"
       id="path3008"
       sodipodi:sides="10"
       sodipodi:cx="-192.42424"
       sodipodi:cy="548.48486"
       sodipodi:r1="115.88681"
       sodipodi:r2="30.260351"
       sodipodi:arg1="0.72989966"
       sodipodi:arg2="1.0440589"
       inkscape:flatsided="false"
       inkscape:rounded="0.95"
       inkscape:randomized="0"
       d="m -106.0606,625.75759 c -55.49572,62.02464 0.79495,-92.95392 -71.15129,-51.11411 -71.94623,41.83981 90.591677,69.56019 9.23753,87.11961 -81.35415,17.55941 55.28007,-74.73405 -27.51848,-83.17387 -82.79855,-8.43981 32.40375,109.52383 -43.7343,75.91093 -76.13805,-33.6129 88.65009,-27.9683 26.62545,-83.46402 -62.02463,-55.49573 -38.1613,107.65308 -80.00112,35.70685 -41.83981,-71.94624 88.15879,29.48038 70.59937,-51.87377 -17.55941,-81.35414 -94.15004,64.66252 -85.71022,-18.13603 8.43982,-82.79854 53.99382,75.66857 87.60672,-0.46948 33.6129,-76.13806 -114.17666,-3.02693 -58.68094,-65.05157 55.49572,-62.02463 -0.79495,92.95393 71.15129,51.11412 71.94623,-41.83981 -90.59168,-69.5602 -9.23753,-87.11961 81.35415,-17.55942 -55.28007,74.73404 27.51848,83.17386 82.79855,8.43982 -32.40375,-109.52383 43.7343,-75.91092 76.138053,33.6129 -88.65009,27.9683 -26.62545,83.46402 62.02463,55.49572 38.1613,-107.65308 80.001115,-35.70685 41.83981,71.94623 -88.158785,-29.48038 -70.599365,51.87376 17.55941,81.35415 94.150039,-64.66252 85.710222,18.13603 -8.439817,82.79855 -53.993822,-75.66856 -87.606722,0.46949 -33.6129,76.13805 114.17666,3.02693 58.68094,65.05156 z"
       transform="matrix(1.8938721,0.56992533,-0.55468425,1.9823989,1075.6931,-332.10439)" />
    <path
       style="fill:none;stroke:#000000;stroke-width:1;stroke-miterlimit:4;stroke-dasharray:none"
       d="m 158.75,504.08093 1.84375,-0.21875 -2.3125,-4.28125 c 0.2199,1.51245 0.28873,2.99604 0.46875,4.5 z"
       id="path3229" />
    <path
       style="fill:none;stroke:#000000;stroke-width:1;stroke-miterlimit:4;stroke-dasharray:none"
       d="m 201.40625,898.48718 0.0937,-0.65625 -0.71875,0.3125 c 0.20851,0.11994 0.41673,0.22392 0.625,0.34375 z"
       id="path3221" />
    <path
       style="fill:none;stroke:#000000;stroke-width:3;stroke-miterlimit:4;stroke-dasharray:none"
       d="m 226.78125,911.86218 c 28.19813,2.4874 44.92059,-14.86873 74.93981,34.48032 26.60696,43.73958 97.4725,56.1504 153.18519,-11.13657 23.22241,-28.04684 71.24524,-4.83222 107.375,-20.09375 2.81059,-1.41946 5.56621,-2.96878 8.28125,-4.59375 0.20032,-0.11989 0.39398,-0.25404 0.59375,-0.375"
       id="path3062" />
    <path
       style="fill:none;stroke:#000000;stroke-width:3;stroke-miterlimit:4;stroke-dasharray:none"
       d="m 636.375,821.51843 c 35.14185,-18.78885 52.16681,-31.39443 52.9375,-74.96875 0.0696,-4.309 -0.0387,-8.65167 -0.25,-13 -0.21131,-4.34833 -0.53487,-8.72822 -0.9375,-13.0625 -8.48294,-49.60224 -26.02566,-92.74156 -16.5625,-143.25 2.62771,-13.87929 4.71489,-27.96218 2.5,-41.53125 -0.49864,-2.99859 -1.32928,-5.89058 -2.40625,-8.71875 -0.14959,-0.39284 -0.37327,-0.7659 -0.53125,-1.15625"
       id="path3060" />
    <path
       style="fill:none;stroke:#000000;stroke-width:3;stroke-miterlimit:4;stroke-dasharray:none"
       d="m 635.25,454.51843 c -0.34096,-0.72301 -0.69099,-1.43208 -1.03125,-2.15625 -4.45718,-9.48622 -8.87502,-19.06251 -13.6875,-28.28125 -6.16918,-11.62947 -19.95801,-47.34697 -40.04051,-45.39583 -57.62084,5.5982 -50.82655,-87.20814 -115.77199,-39.07292 0.15453,0.20121 0.27933,0.42656 0.4375,0.625 7.03868,9.83057 20.90069,15.46454 25.75,24.25"
       id="path3058" />
    <path
       style="fill:none;stroke:#000000;stroke-width:3;stroke-miterlimit:4;stroke-dasharray:none"
       d="m 331.81255,335.70593 c 0.18622,-0.23932 0.34603,-0.50941 0.53125,-0.75 -39.16544,-2.05523 -70.22949,12.58745 -80.7023,53.8198 -7.80886,30.74418 -64.96483,-38.51686 -101.70395,47.3052 -0.17907,2.38192 -0.26126,4.7954 -0.21875,7.25 0.0132,0.75999 0.0933,1.54631 0.125,2.3125"
       id="path3056" />
    <path
       style="fill:none;stroke:#000000;stroke-width:3;stroke-miterlimit:4;stroke-dasharray:none"
       d="m 158.4688,532.42468 c -0.1914,0.96895 -0.30434,1.94424 -0.53125,2.90625 -0.54935,2.32907 -1.18966,4.63551 -1.875,6.9375 -7.38877,39.14543 -35.50008,67.70669 -36.71875,105.90625 -0.0677,2.22712 -0.0439,4.47902 0.125,6.71875 0.16886,2.23973 0.39948,4.51644 0.90625,6.71875 9.74912,42.36779 46.2619,70.41237 40.8125,123.875 -0.59676,5.84013 -1.25543,11.69106 -1.8125,17.5 -0.55707,5.80894 -0.99707,11.56959 -1.21875,17.28125 -0.0666,1.71559 -0.0748,3.42206 -0.0937,5.125"
       id="path3201" />
    <path
       style="fill:none;stroke:#000000;stroke-width:1;stroke-miterlimit:4;stroke-dasharray:none"
       d="m 0,252.36218 0,800.00002 800,0 0,-800.00002 -800,0 z"
       id="rect3016" />
  </g>
</svg>
