<?xml version="1.0" encoding="UTF-8" standalone="no"?>
<!-- Created with Inkscape (http://www.inkscape.org/) -->

<svg
   xmlns:dc="http://purl.org/dc/elements/1.1/"
   xmlns:cc="http://creativecommons.org/ns#"
   xmlns:rdf="http://www.w3.org/1999/02/22-rdf-syntax-ns#"
   xmlns:svg="http://www.w3.org/2000/svg"
   xmlns="http://www.w3.org/2000/svg"
   xmlns:sodipodi="http://sodipodi.sourceforge.net/DTD/sodipodi-0.dtd"
   xmlns:inkscape="http://www.inkscape.org/namespaces/inkscape"
   width="800"
   height="800"
   id="svg3163"
   version="1.1"
   inkscape:version="0.48.4 r9939"
   sodipodi:docname="svg2.svg">
  <defs
     id="defs3165">
    <inkscape:path-effect
       effect="spiro"
       id="path-effect3368"
       is_visible="true" />
    <inkscape:path-effect
       effect="spiro"
       id="path-effect3364"
       is_visible="true" />
    <inkscape:path-effect
       effect="spiro"
       id="path-effect3360"
       is_visible="true" />
    <inkscape:path-effect
       effect="spiro"
       id="path-effect3350"
       is_visible="true" />
    <inkscape:path-effect
       effect="spiro"
       id="path-effect3346"
       is_visible="true" />
    <inkscape:path-effect
       effect="spiro"
       id="path-effect3342"
       is_visible="true" />
    <inkscape:path-effect
       effect="spiro"
       id="path-effect3338"
       is_visible="true" />
    <inkscape:path-effect
       effect="spiro"
       id="path-effect3334"
       is_visible="true" />
    <inkscape:path-effect
       effect="spiro"
       id="path-effect3330"
       is_visible="true" />
    <inkscape:path-effect
       effect="spiro"
       id="path-effect3326"
       is_visible="true" />
    <inkscape:path-effect
       effect="spiro"
       id="path-effect3322"
       is_visible="true" />
    <inkscape:path-effect
       effect="spiro"
       id="path-effect3318"
       is_visible="true" />
    <inkscape:path-effect
       effect="spiro"
       id="path-effect3314"
       is_visible="true" />
    <inkscape:path-effect
       effect="spiro"
       id="path-effect3310"
       is_visible="true" />
    <inkscape:path-effect
       effect="spiro"
       id="path-effect3306"
       is_visible="true" />
  </defs>
  <sodipodi:namedview
     id="base"
     pagecolor="#ffffff"
     bordercolor="#666666"
     borderopacity="1.0"
     inkscape:pageopacity="0.0"
     inkscape:pageshadow="2"
     inkscape:zoom="0.675"
     inkscape:cx="400"
     inkscape:cy="400"
     inkscape:current-layer="layer1"
     inkscape:document-units="px"
     showgrid="false"
     showguides="true"
     inkscape:guide-bbox="true"
     inkscape:window-width="1366"
     inkscape:window-height="718"
     inkscape:window-x="0"
     inkscape:window-y="0"
     inkscape:window-maximized="1">
    <sodipodi:guide
       position="0,0"
       orientation="0,800"
       id="guide3264" />
    <sodipodi:guide
       position="800,0"
       orientation="-800,0"
       id="guide3266" />
    <sodipodi:guide
       position="800,800"
       orientation="0,-800"
       id="guide3268" />
    <sodipodi:guide
       position="0,800"
       orientation="800,0"
       id="guide3270" />
  </sodipodi:namedview>
  <metadata
     id="metadata3168">
    <rdf:RDF>
      <cc:Work
         rdf:about="">
        <dc:format>image/svg+xml</dc:format>
        <dc:type
           rdf:resource="http://purl.org/dc/dcmitype/StillImage" />
        <dc:title />
      </cc:Work>
    </rdf:RDF>
  </metadata>
  <g
     id="layer1"
     inkscape:label="Layer 1"
     inkscape:groupmode="layer"
     transform="translate(0,200)">
    <path
       style="fill:none;stroke:#000000;stroke-width:3;stroke-linecap:butt;stroke-linejoin:miter;stroke-opacity:1"
       d="m 171.30275,276.86549 c -39.0622,8.6602 -70.5086,25.82811 -89.384745,51.41328 -117.154443,158.79388 98.063185,168.92272 202.526435,205.05456 37.94353,13.12394 102.22223,63.70371 102.22223,63.70371 0,0 107.92913,-59.8905 177.77777,-94.81482 29.21027,-14.60513 51.94136,-30.83715 68.97529,-47.80257"
       id="path3380" />
    <path
       style="fill:none;stroke:#000000;stroke-width:3;stroke-linecap:butt;stroke-linejoin:miter;stroke-opacity:1"
       d="m 428.25887,348.4074 c -14.30173,14.92625 -24.81458,27.60759 -31.22183,35.2963 -1.50873,-14.06596 -7.77887,-26.03584 -17.52882,-36.00207"
       id="path3378" />
    <path
       style="fill:none;stroke:#000000;stroke-width:3;stroke-linecap:butt;stroke-linejoin:miter;stroke-opacity:1"
       inkscape:path-effect="#path-effect3306"
       inkscape:original-d="M 374.81481,-68.148153 C 297.64431,-96.494459 80.15351,-183.9693 0,-200"
       id="path3304"
       d="M 374.81481,-68.148153 0,-200" />
    <path
       style="fill:none;stroke:#000000;stroke-width:3;stroke-linecap:butt;stroke-linejoin:miter;stroke-opacity:1"
       inkscape:path-effect="#path-effect3310"
       inkscape:original-d="m 362.96296,-23.703702 c -31.00126,-2.229935 -87.66523,-7.132196 -147.26661,-12.13313"
       id="path3308"
       d="M 362.96296,-23.703702 215.69635,-35.836832" />
    <path
       style="fill:none;stroke:#000000;stroke-width:3;stroke-linecap:butt;stroke-linejoin:miter;stroke-opacity:1"
       inkscape:path-effect="#path-effect3314"
       inkscape:original-d="M 368.88889,22.222218 C 333.49829,29.78709 289.81175,35.68656 219.1194,47.46862"
       id="path3312"
       d="M 368.88889,22.222218 219.1194,47.46862" />
    <path
       style="fill:none;stroke:#000000;stroke-width:3;stroke-linecap:butt;stroke-linejoin:miter;stroke-opacity:1"
       inkscape:path-effect="#path-effect3318"
       inkscape:original-d="M 377.77778,51.85185 C 346.97704,65.140023 284.49144,91.183603 223.54345,115.80883"
       id="path3316"
       d="M 377.77778,51.85185 223.54345,115.80883" />
    <path
       style="fill:none;stroke:#000000;stroke-width:3;stroke-linecap:butt;stroke-linejoin:miter;stroke-opacity:1"
       inkscape:path-effect="#path-effect3322"
       inkscape:original-d="M 401.12177,-114.80771 C 357.70851,-139.67619 258.60348,-178.26962 229.62963,-200"
       id="path3320"
       d="M 401.12177,-114.80771 229.62963,-200" />
    <path
       style="fill:none;stroke:#000000;stroke-width:3;stroke-linecap:butt;stroke-linejoin:miter;stroke-opacity:1"
       inkscape:path-effect="#path-effect3326"
       inkscape:original-d="M 447.40741,-152.59259 C 435.03757,-158.32451 394.98371,-190.20148 385.18518,-200"
       id="path3324"
       d="M 447.40741,-152.59259 385.18518,-200" />
    <path
       style="fill:none;stroke:#000000;stroke-width:3;stroke-linecap:butt;stroke-linejoin:miter;stroke-opacity:1"
       inkscape:path-effect="#path-effect3330"
       inkscape:original-d="m 593.32622,-161.09334 c 8.82415,-15.30198 15.40756,-28.82331 22.97007,-38.90666"
       id="path3328"
       d="M 593.32622,-161.09334 616.29629,-200" />
    <path
       style="fill:none;stroke:#000000;stroke-width:3;stroke-linecap:butt;stroke-linejoin:miter;stroke-opacity:1"
       inkscape:path-effect="#path-effect3334"
       inkscape:original-d="M 634.07407,-137.77778 C 658.94015,-153.53343 676.534,-181.71918 694.81482,-200"
       id="path3332"
       d="M 634.07407,-137.77778 694.81482,-200" />
    <path
       style="fill:none;stroke:#000000;stroke-width:3;stroke-linecap:butt;stroke-linejoin:miter;stroke-opacity:1"
       inkscape:path-effect="#path-effect3338"
       inkscape:original-d="M 671.83053,-93.693039 C 703.30095,-93.756889 842.15298,-256.20398 800,-200"
       id="path3336"
       d="M 671.83053,-93.693039 800,-200" />
    <path
       style="fill:none;stroke:#000000;stroke-width:3;stroke-linecap:butt;stroke-linejoin:miter;stroke-opacity:1"
       inkscape:path-effect="#path-effect3342"
       inkscape:original-d="M 688.58143,-48.042445 C 761.91759,-57.94175 730.47302,-80.793552 800,-102.69474"
       id="path3340"
       d="M 688.58143,-48.042445 800,-102.69474" />
    <path
       style="fill:none;stroke:#000000;stroke-width:2.99999976;stroke-linecap:butt;stroke-linejoin:miter;stroke-opacity:1"
       inkscape:path-effect="#path-effect3346"
       inkscape:original-d="m 692.57127,-7.0334794 c 43.7306,2.89347 66.22564,2.7528431 107.42873,8.5149631"
       id="path3344"
       d="M 692.57127,-7.0334794 800,1.4814837" />
    <path
       style="fill:none;stroke:#000000;stroke-width:3;stroke-linecap:butt;stroke-linejoin:miter;stroke-opacity:1"
       inkscape:path-effect="#path-effect3350"
       inkscape:original-d="M 687.4074,40.000001 C 741.88473,70.872681 744.62581,73.499602 800,103.7037"
       id="path3348"
       d="M 687.4074,40.000001 800,103.7037" />
    <path
       sodipodi:type="arc"
       style="fill:none;stroke:#000000;stroke-width:2.38813853"
       id="path3302"
       sodipodi:cx="546.66669"
       sodipodi:cy="228.88889"
       sodipodi:rx="105.18519"
       sodipodi:ry="157.77777"
       d="m 645.95582,176.80644 c 19.17623,82.25381 -9.73163,172.2518 -64.5675,201.01614 -54.83588,28.76433 -114.83454,-14.59745 -134.01077,-96.85125 -9.15494,-39.26889 -7.60018,-82.37221 4.32596,-119.93019"
       transform="matrix(-1.5516773,0.19093338,-0.1232753,-1.0018337,1404.9231,110.92796)"
       sodipodi:start="5.9467758"
       sodipodi:end="9.8692939"
       sodipodi:open="true" />
    <path
       style="fill:none;stroke:#000000;stroke-width:3;stroke-linecap:butt;stroke-linejoin:miter;stroke-opacity:1"
       d="M 760.19525,177.80173 C 773.01362,178.36791 786.17357,190.6191 800,225.18518"
       id="path3300" />
    <path
       style="fill:none;stroke:#000000;stroke-width:3;stroke-linecap:butt;stroke-linejoin:miter;stroke-opacity:1"
       d="m 155.74362,233.52418 c 51.93328,112.54485 6.1235,104.13172 -6.18814,183.1528 0,0 12.94159,18.72731 53.69934,15.54546"
       id="path3209" />
    <path
       style="fill:none;stroke:#000000;stroke-width:3;stroke-linecap:butt;stroke-linejoin:miter;stroke-opacity:1"
       d="m 455.03449,431.72819 c 7.74749,-36.62536 33.01172,-46.91731 33.01172,-46.91731 0,0 -48.94945,-23.09987 -69.71601,-46.99067"
       id="path3179" />
    <path
       style="fill:none;stroke:#000000;stroke-width:3;stroke-linecap:butt;stroke-linejoin:miter;stroke-opacity:1"
       d="m 631.29572,354.31497 c -23.64507,25.71282 -42.6924,35.1366 -42.6924,35.1366 l -1.69143,15.22153"
       id="path3177" />
    <path
       style="fill:none;stroke:#000000;stroke-width:3;stroke-linecap:butt;stroke-linejoin:miter;stroke-opacity:1"
       d="M 231.73848,314.1087 C 210.30846,301.42953 188.86558,284.01161 172.45157,264.15277 134.99952,218.8406 132.22873,92.447022 132.22873,92.447022 c 0,0 -60.769586,9.196178 -80.445691,-9.281399 C 36.888953,69.17878 31.044203,40.70397 40.953808,22.836581 47.687858,10.694859 79.629621,7.3675993 79.629621,7.3675993 c 0,0 -9.809159,-23.0851263 -6.18813,-34.0317793 6.874232,-20.781338 27.230389,-37.820825 47.957999,-44.86006 20.11468,-6.831077 45.04769,-4.461525 63.42833,6.187595 20.79936,12.05044 36.13396,35.415652 41.76988,58.7821473 6.71965,27.8594617 -14.26486,56.4834807 -12.37624,85.0794337 2.36646,35.831614 14.68554,53.600754 37.12877,63.422844 19.82999,8.67843 44.65712,-3.14348 63.42833,-13.92208 23.10273,-13.26585 35.03468,-40.223011 54.14614,-58.782163 18.61816,-18.080122 36.21073,-38.24701 58.78723,-51.047656 27.37804,-15.5230687 58.53212,-25.2214877 89.72789,-29.391079 30.1957,-4.035917 62.20434,-4.467547 91.2749,4.6407003 31.50802,9.871956 60.72811,29.0062707 84.10911,52.3185227 24.77736,24.704495 44.09905,55.957935 55.70237,88.965665 15.61052,44.40697 25.26624,94.01592 16.4388,140.25138 -9.99431,52.34722 -35.58301,105.80198 -75.80458,140.76777 -52.69977,45.81347 -118.53089,71.33163 -196.47313,72.70424 -34.39319,0.6057 -66.14291,-1.73371 -109.3634,-15.42421 -59.75344,-18.92752 -97.93896,16.97112 -97.93896,16.97112 0,0 19.28156,-60.49203 82.00823,-57.56757 79.97008,3.72841 182.77899,-0.0963 236.68047,-36.79326 29.35898,-19.98802 45.47898,-98.23767 45.47898,-98.23767"
       id="path3101" />
    <path
       style="fill:none;stroke:#000000;stroke-width:3;stroke-linecap:butt;stroke-linejoin:miter;stroke-opacity:1"
       d="m 587.87328,350.90294 c -54.45143,21.27784 -115.12531,-2.36817 -137.56451,-24.06584 -31.3113,13.78488 -77.4441,29.02801 -123.15395,20.8482 -7.63627,-1.36652 -15.27135,-2.99981 -22.86312,-4.91584"
       id="path3171" />
    <path
       sodipodi:type="arc"
       style="fill:none;stroke:#000000;stroke-width:3.2321341"
       id="path3175"
       sodipodi:cx="260.83334"
       sodipodi:cy="545"
       sodipodi:rx="140.83333"
       sodipodi:ry="135"
       d="m 348.24096,650.85229 c -60.98667,46.27438 -149.55987,36.3955 -197.83376,-22.0651 -48.2739,-58.4606 -37.96815,-143.36509 23.01852,-189.63948 4.79638,-3.63931 9.83501,-6.9752 15.08389,-9.98647"
       transform="matrix(0.89015132,0.26307807,-0.2631008,0.89007437,447.51614,-320.20676)"
       sodipodi:start="0.9012302"
       sodipodi:end="4.1730822"
       sodipodi:open="true" />
    <path
       sodipodi:end="3.0985409"
       sodipodi:start="0.76361515"
       transform="matrix(0.37000734,0,0,-0.38624383,263.14231,641.48159)"
       d="m -144.10873,615.19018 c -20.93518,41.66684 -55.63377,43.10724 -77.50147,3.21725 -10.20972,-18.62409 -16.24921,-44.04288 -16.85753,-70.94935"
       sodipodi:ry="104.44444"
       sodipodi:rx="54.814816"
       sodipodi:cy="542.96295"
       sodipodi:cx="-183.7037"
       id="path3227"
       style="fill:none;stroke:#000000;stroke-width:7.93570137"
       sodipodi:type="arc"
       sodipodi:open="true" />
    <path
       style="fill:none;stroke:#000000;stroke-width:3;stroke-linecap:butt;stroke-linejoin:miter;stroke-opacity:1"
       d="m 209.58035,252.08696 c 51.93328,112.54486 6.1235,104.13173 -6.18813,183.15281 35.90718,30.34839 88.74995,11.75643 99.01009,2.47504 -0.32568,-12.44796 0.36579,-35.45464 -1.54704,-63.42284 -2.07953,-30.40553 12.85578,-60.96837 30.94064,-85.07943"
       id="path3203" />
    <path
       sodipodi:end="10.000464"
       sodipodi:start="5.8673679"
       transform="matrix(-0.5169255,-0.01785994,0.01748429,-0.52803188,-24.869081,222.48411)"
       d="m -202.55641,412.25389 c 6.69266,31.57641 -0.16878,68.47722 -15.32546,82.42026 -15.15667,13.94305 -32.86906,-0.35162 -39.56172,-31.92804 -4.08915,-19.29288 -3.23217,-41.58103 2.27902,-59.27176"
       sodipodi:ry="62.5"
       sodipodi:rx="30"
       sodipodi:cy="437.5"
       sodipodi:cx="-230"
       id="path3213"
       style="fill:none;fill-opacity:1;stroke:#000000;stroke-width:5.73890352000000004"
       sodipodi:type="arc"
       sodipodi:open="true" />
    <path
       sodipodi:type="arc"
       style="fill:none;fill-opacity:1;stroke:#000000;stroke-width:5.16704988000000043"
       id="path3211"
       sodipodi:cx="-230"
       sodipodi:cy="437.5"
       sodipodi:rx="30"
       sodipodi:ry="62.5"
       d="m -202.55641,412.25389 c 6.69266,31.57641 -0.16878,68.47722 -15.32546,82.42026 -15.15667,13.94305 -32.86906,-0.35162 -39.56172,-31.92804 -6.11546,-28.85312 -0.9534,-62.67768 12.03736,-78.87518"
       transform="matrix(-0.57541071,-0.01979259,0.01946247,-0.58517086,-7.0934143,253.61048)"
       sodipodi:start="5.8673679"
       sodipodi:end="10.456268"
       sodipodi:open="true" />
    <path
       sodipodi:open="true"
       sodipodi:type="arc"
       style="fill:none;fill-opacity:1;stroke:#000000;stroke-width:9.12748146000000027"
       id="path3215"
       sodipodi:cx="-230"
       sodipodi:cy="437.5"
       sodipodi:rx="30"
       sodipodi:ry="62.5"
       d="m -202.55641,412.25389 c 6.69266,31.57641 -0.16878,68.47722 -15.32546,82.42026 -15.15667,13.94305 -32.86906,-0.35162 -39.56172,-31.92804 -4.08915,-19.29288 -3.23217,-41.58103 2.27902,-59.27176"
       transform="matrix(-0.3246405,-0.01124245,0.01098052,-0.3323849,20.956441,144.19632)"
       sodipodi:start="5.8673679"
       sodipodi:end="10.000464" />
    <path
       sodipodi:open="true"
       sodipodi:end="10.456268"
       sodipodi:start="5.8673679"
       transform="matrix(-0.36137049,-0.01245902,0.01222286,-0.36835268,42.986041,168.46626)"
       d="m -202.55641,412.25389 c 6.69266,31.57641 -0.16878,68.47722 -15.32546,82.42026 -15.15667,13.94305 -32.86906,-0.35162 -39.56172,-31.92804 -6.11546,-28.85312 -0.9534,-62.67768 12.03736,-78.87518"
       sodipodi:ry="62.5"
       sodipodi:rx="30"
       sodipodi:cy="437.5"
       sodipodi:cx="-230"
       id="path3217"
       style="fill:none;fill-opacity:1;stroke:#000000;stroke-width:8.21797276000000032"
       sodipodi:type="arc" />
    <path
       sodipodi:type="arc"
       style="fill:none;fill-opacity:1;stroke:#000000;stroke-width:2.70219921999999979"
       id="path3219"
       sodipodi:cx="71.111115"
       sodipodi:cy="252.59259"
       sodipodi:rx="4.4444447"
       sodipodi:ry="3.7037036"
       d="m 75.555559,252.59259 c 0,2.0455 -1.989845,3.7037 -4.444444,3.7037 -2.4546,0 -4.444445,-1.6582 -4.444445,-3.7037 0,-2.0455 1.989845,-3.7037 4.444445,-3.7037 2.454599,0 4.444444,1.6582 4.444444,3.7037 z"
       transform="matrix(1.2325591,0,0,1,-15.503942,-200)" />
    <path
       transform="matrix(1.0581398,0,0,0.86046452,-23.514312,-174.05673)"
       d="m 75.555559,252.59259 c 0,2.0455 -1.989845,3.7037 -4.444444,3.7037 -2.4546,0 -4.444445,-1.6582 -4.444445,-3.7037 0,-2.0455 1.989845,-3.7037 4.444445,-3.7037 2.454599,0 4.444444,1.6582 4.444444,3.7037 z"
       sodipodi:ry="3.7037036"
       sodipodi:rx="4.4444447"
       sodipodi:cy="252.59259"
       sodipodi:cx="71.111115"
       id="path3221"
       style="fill:none;fill-opacity:1;stroke:#000000;stroke-width:3.14400506000000002"
       sodipodi:type="arc" />
    <path
       sodipodi:type="arc"
       style="fill:none;stroke:#000000;stroke-width:7.97215509"
       id="path3223"
       sodipodi:cx="-183.7037"
       sodipodi:cy="542.96295"
       sodipodi:rx="54.814816"
       sodipodi:ry="104.44444"
       d="m -128.90022,545.08648 c -0.61551,57.67115 -25.65083,103.47212 -55.91796,102.29932 -28.9193,-1.12056 -52.40465,-44.86442 -53.64955,-99.92772"
       transform="matrix(0.37670827,0,0,-0.37591172,321.56002,654.57667)"
       sodipodi:start="0.020333074"
       sodipodi:end="3.0985409"
       sodipodi:open="true" />
    <path
       sodipodi:end="9.2191196"
       sodipodi:start="6.2482345"
       transform="matrix(0.23924427,0.03616725,0.04589369,-0.30358408,237.1518,616.17374)"
       d="m -128.92237,539.31328 c 1.05787,57.64784 -22.611,106.01467 -52.8659,108.03033 -26.66417,1.77643 -50.12666,-33.28609 -55.57512,-83.05188"
       sodipodi:ry="104.44444"
       sodipodi:rx="54.814816"
       sodipodi:cy="542.96295"
       sodipodi:cx="-183.7037"
       id="path3225"
       style="fill:none;stroke:#000000;stroke-width:11.00662899"
       sodipodi:type="arc"
       sodipodi:open="true" />
    <path
       sodipodi:type="arc"
       style="fill:none;stroke:#000000;stroke-width:11.20901775"
       id="path3229"
       sodipodi:cx="-183.7037"
       sodipodi:cy="542.96295"
       sodipodi:rx="54.814816"
       sodipodi:ry="104.44444"
       d="m -128.92237,539.31328 c 1.05787,57.64784 -22.611,106.01467 -52.8659,108.03033 -26.66417,1.77643 -50.12666,-33.28609 -55.57512,-83.05188"
       transform="matrix(0.23498856,0.03550453,0.04507733,-0.29802131,180.23555,592.63386)"
       sodipodi:start="6.2482345"
       sodipodi:end="9.2191196"
       sodipodi:open="true" />
    <path
       sodipodi:type="arc"
       style="fill:none;stroke:#000000;stroke-width:11.00662899"
       id="path3233"
       sodipodi:cx="-183.7037"
       sodipodi:cy="542.96295"
       sodipodi:rx="54.814816"
       sodipodi:ry="104.44444"
       d="m -128.92237,539.31328 c 1.05787,57.64784 -22.611,106.01467 -52.8659,108.03033 -28.28795,1.88461 -52.67707,-37.57977 -56.2835,-91.07316"
       transform="matrix(-0.23924427,0.03616725,-0.04589369,-0.30358408,269.1819,616.53345)"
       sodipodi:start="6.2482345"
       sodipodi:end="9.2970185"
       sodipodi:open="true" />
    <path
       sodipodi:type="star"
       style="fill:none;fill-opacity:1;stroke:#000000;stroke-width:3"
       id="path3237"
       sodipodi:sides="5"
       sodipodi:cx="478.51852"
       sodipodi:cy="391.11111"
       sodipodi:r1="40.975753"
       sodipodi:r2="20.487877"
       sodipodi:arg1="0.86217005"
       sodipodi:arg2="1.4904886"
       inkscape:flatsided="false"
       inkscape:rounded="0"
       inkscape:randomized="0"
       d="m 505.18519,422.22223 -25.0231,-10.68927 -22.99154,14.55352 2.43353,-27.10154 -20.946,-17.36897 26.52711,-6.06041 10.0462,-25.28814 13.96112,23.35601 27.15489,1.74004 -17.89866,20.49522 z"
       transform="translate(0,-200)"
       inkscape:transform-center-x="1.0157803"
       inkscape:transform-center-y="-2.9341609" />
    <path
       sodipodi:type="star"
       style="fill:none;fill-opacity:1;stroke:#000000;stroke-width:3"
       id="path3239"
       sodipodi:sides="5"
       sodipodi:cx="496.2963"
       sodipodi:cy="475.55556"
       sodipodi:r1="54.65442"
       sodipodi:r2="27.327211"
       sodipodi:arg1="0.57296614"
       sodipodi:arg2="1.2012847"
       inkscape:flatsided="false"
       inkscape:rounded="0"
       inkscape:randomized="0"
       d="m 542.22222,505.1852 -36.05643,-4.1469 -23.85706,27.35148 -7.19811,-35.57316 -33.38504,-14.23734 31.60775,-17.83852 3.22397,-36.15064 26.73278,24.54835 35.37756,-8.10499 -15.08599,33.01024 z"
       transform="translate(0,-200)"
       inkscape:transform-center-x="4.322394"
       inkscape:transform-center-y="0.93437717" />
    <path
       sodipodi:type="star"
       style="fill:none;fill-opacity:1;stroke:#000000;stroke-width:3"
       id="path3241"
       sodipodi:sides="5"
       sodipodi:cx="591.11108"
       sodipodi:cy="405.92593"
       sodipodi:r1="58.701077"
       sodipodi:r2="29.350538"
       sodipodi:arg1="0.82109728"
       sodipodi:arg2="1.4494158"
       inkscape:flatsided="false"
       inkscape:rounded="0"
       inkscape:randomized="0"
       d="m 631.11108,448.8889 -36.44615,-13.82838 -32.05337,22.18396 1.88908,-38.93556 -31.00323,-23.62934 37.61367,-10.23513 12.89232,-36.7877 21.35745,32.60991 38.97112,0.8933 -24.41405,30.38915 z"
       transform="translate(-10.37037,-204.44444)"
       inkscape:transform-center-x="2.1963951"
       inkscape:transform-center-y="-3.4753155" />
    <path
       sodipodi:type="star"
       style="fill:none;fill-opacity:1;stroke:#000000;stroke-width:3"
       id="path3243"
       sodipodi:sides="5"
       sodipodi:cx="680"
       sodipodi:cy="451.85185"
       sodipodi:r1="37.770515"
       sodipodi:r2="18.885258"
       sodipodi:arg1="0.19739556"
       sodipodi:arg2="0.82571409"
       inkscape:flatsided="false"
       inkscape:rounded="0"
       inkscape:randomized="0"
       d="m 717.03704,459.25924 -24.23223,6.47387 -8.4046,23.63206 -13.64518,-21.04568 -25.07259,-0.69055 15.79904,-19.48081 -7.09111,-24.05884 23.40952,9.00588 20.69005,-14.17863 -1.33116,25.04674 z"
       transform="translate(0,-200)"
       inkscape:transform-center-x="-1.3597399"
       inkscape:transform-center-y="2.2890148" />
    <path
       sodipodi:type="star"
       style="fill:none;fill-opacity:1;stroke:#000000;stroke-width:2.50304580000000021"
       id="path3245"
       sodipodi:sides="5"
       sodipodi:cx="555.55554"
       sodipodi:cy="234.07407"
       sodipodi:r1="31.912088"
       sodipodi:r2="20.964403"
       sodipodi:arg1="0.38050639"
       sodipodi:arg2="1.0088249"
       inkscape:flatsided="false"
       inkscape:rounded="0"
       inkscape:randomized="0"
       d="m 585.18517,245.92592 -18.45863,5.88836 -13.28672,14.10166 -11.30419,-15.7356 -17.51731,-8.27876 11.47226,-15.6135 2.46043,-19.21822 18.39444,6.08593 19.03793,-3.59875 -0.10387,19.3748 z"
       transform="matrix(1.1956822,0,0,1.2014042,-102.65845,-253.5566)"
       inkscape:transform-center-x="3.7492743"
       inkscape:transform-center-y="1.084377" />
    <path
       sodipodi:type="star"
       style="fill:none;fill-opacity:1;stroke:#000000;stroke-width:3"
       id="path3247"
       sodipodi:sides="5"
       sodipodi:cx="650.37037"
       sodipodi:cy="308.14815"
       sodipodi:r1="22.023806"
       sodipodi:r2="11.011903"
       sodipodi:arg1="0.83298127"
       sodipodi:arg2="1.4612998"
       inkscape:flatsided="false"
       inkscape:rounded="0"
       inkscape:randomized="0"
       d="m 665.18518,324.44446 -13.61146,-5.35034 -12.12403,8.1796 0.88231,-14.59861 -11.5258,-9.003 14.15675,-3.6721 5.0007,-13.74376 7.86705,12.32913 14.61639,0.50889 -9.29465,11.29192 z"
       transform="translate(0,-200)"
       inkscape:transform-center-x="0.74371563"
       inkscape:transform-center-y="-1.3831758" />
    <path
       sodipodi:type="star"
       style="fill:none;fill-opacity:1;stroke:#000000;stroke-width:3"
       id="path3249"
       sodipodi:sides="5"
       sodipodi:cx="702.22222"
       sodipodi:cy="354.07407"
       sodipodi:r1="23.046443"
       sodipodi:r2="11.523222"
       sodipodi:arg1="0.78539816"
       sodipodi:arg2="1.4137167"
       inkscape:flatsided="false"
       inkscape:rounded="0"
       inkscape:randomized="0"
       d="m 718.51853,370.37036 -14.49367,-4.91494 -12.2655,9.15318 0.1956,-15.3031 -12.49543,-8.83669 14.61455,-4.54289 4.54289,-14.61456 8.83669,12.49544 15.3031,-0.1956 -9.15318,12.2655 z"
       transform="translate(0,-200)"
       inkscape:transform-center-x="1.114086"
       inkscape:transform-center-y="-1.114086" />
    <path
       sodipodi:type="star"
       style="fill:none;fill-opacity:1;stroke:#000000;stroke-width:3"
       id="path3251"
       sodipodi:sides="5"
       sodipodi:cx="488.88889"
       sodipodi:cy="269.62964"
       sodipodi:r1="25.915342"
       sodipodi:r2="12.957671"
       sodipodi:arg1="0.5404195"
       sodipodi:arg2="1.168738"
       inkscape:flatsided="false"
       inkscape:rounded="0"
       inkscape:randomized="0"
       d="m 511.11111,282.96297 -17.15171,-1.40894 -10.88422,13.33043 -3.96019,-16.74764 -16.0414,-6.23218 14.70418,-8.94167 0.9701,-17.18212 13.04787,11.22138 16.64094,-4.38695 -6.64015,15.87686 z"
       transform="translate(19.259259,-192.59259)"
       inkscape:transform-center-x="1.796535"
       inkscape:transform-center-y="0.70301404" />
    <path
       sodipodi:type="star"
       style="fill:none;fill-opacity:1;stroke:#000000;stroke-width:3"
       id="path3255"
       sodipodi:sides="5"
       sodipodi:cx="168.88889"
       sodipodi:cy="377.77778"
       sodipodi:r1="19.316155"
       sodipodi:r2="9.6580776"
       sodipodi:arg1="0.56672922"
       sodipodi:arg2="1.1950477"
       inkscape:flatsided="false"
       inkscape:rounded="0"
       inkscape:randomized="0"
       d="m 185.18518,388.14814 -12.75208,-1.38611 -8.37119,9.71906 -2.62234,-12.55628 -11.83022,-4.95812 11.13139,-6.3741 1.05972,-12.78335 9.50191,8.61687 12.48516,-2.94242 -5.25888,11.69962 z"
       transform="translate(0,-200)"
       inkscape:transform-center-x="1.4916176"
       inkscape:transform-center-y="0.36739548" />
    <path
       sodipodi:type="star"
       style="fill:none;fill-opacity:1;stroke:#000000;stroke-width:3"
       id="path3257"
       sodipodi:sides="5"
       sodipodi:cx="182.22221"
       sodipodi:cy="426.66666"
       sodipodi:r1="22.222221"
       sodipodi:r2="11.111111"
       sodipodi:arg1="0.64350111"
       sodipodi:arg2="1.2718196"
       inkscape:flatsided="false"
       inkscape:rounded="0"
       inkscape:randomized="0"
       d="m 199.99999,439.99999 -14.50508,-2.71513 -10.45981,10.40969 -1.90008,-14.63417 -13.13247,-6.7311 13.33077,-6.32929 2.34351,-14.56974 10.13894,10.72246 14.58083,-2.2735 -7.06456,12.95613 z"
       transform="translate(7.4074074,-201.48148)"
       inkscape:transform-center-x="2.022636"
       inkscape:transform-center-y="-0.10425543" />
    <path
       sodipodi:type="star"
       style="fill:none;fill-opacity:1;stroke:#000000;stroke-width:3"
       id="path3259"
       sodipodi:sides="5"
       sodipodi:cx="333.33334"
       sodipodi:cy="512.59259"
       sodipodi:r1="24.656767"
       sodipodi:r2="12.328383"
       sodipodi:arg1="0.57133748"
       sodipodi:arg2="1.199656"
       inkscape:flatsided="false"
       inkscape:rounded="0"
       inkscape:randomized="0"
       d="m 354.07409,525.92592 -16.26951,-1.84433 -10.74275,12.35684 -3.27348,-16.04314 -15.07176,-6.39849 14.24638,-8.07088 1.4279,-16.31133 12.07823,11.05508 15.95424,-3.68247 -6.78162,14.90329 z"
       transform="translate(10.37037,-194.07407)"
       inkscape:transform-center-x="1.9380038"
       inkscape:transform-center-y="0.43392422" />
    <path
       sodipodi:type="star"
       style="fill:none;stroke:#000000;stroke-width:3"
       id="path3261"
       sodipodi:sides="5"
       sodipodi:cx="382.22223"
       sodipodi:cy="500.74075"
       sodipodi:r1="26.377028"
       sodipodi:r2="13.188514"
       sodipodi:arg1="0.90482709"
       sodipodi:arg2="1.5331456"
       inkscape:flatsided="false"
       inkscape:rounded="0"
       inkscape:randomized="0"
       d="m 398.51853,521.48149 -15.79986,-7.56157 -15.18622,8.72877 2.30905,-17.36321 -12.99435,-11.74562 17.22693,-3.16948 7.15527,-15.98796 8.33777,15.40436 17.41656,1.86452 -12.07391,12.6899 z"
       transform="translate(1.5165892,-209.83416)"
       inkscape:transform-center-x="0.30681652"
       inkscape:transform-center-y="-2.2251971" />
    <path
       sodipodi:type="star"
       style="fill:none;fill-opacity:1;stroke:#000000;stroke-width:3"
       id="path3263"
       sodipodi:sides="5"
       sodipodi:cx="576.2963"
       sodipodi:cy="496.2963"
       sodipodi:r1="38.232557"
       sodipodi:r2="19.116278"
       sodipodi:arg1="0.95054684"
       sodipodi:arg2="1.5788654"
       inkscape:flatsided="false"
       inkscape:rounded="0"
       inkscape:randomized="0"
       d="m 598.51855,527.40741 -22.37647,-11.99546 -22.56713,11.6328 4.49364,-24.98809 -18.03707,-17.86789 25.1537,-3.44803 11.4196,-22.67576 11.0522,22.85709 25.09477,3.8535 -18.32306,17.57449 z"
       transform="translate(0,-200)"
       inkscape:transform-center-x="-0.095330773"
       inkscape:transform-center-y="-3.5601005" />
    <path
       sodipodi:type="star"
       style="fill:none;fill-opacity:1;stroke:#000000;stroke-width:3"
       id="path3265"
       sodipodi:sides="5"
       sodipodi:cx="420.74075"
       sodipodi:cy="244.44444"
       sodipodi:r1="28.45833"
       sodipodi:r2="14.229165"
       sodipodi:arg1="0.89605538"
       sodipodi:arg2="1.5243739"
       inkscape:flatsided="false"
       inkscape:rounded="0"
       inkscape:randomized="0"
       d="m 438.51853,266.66667 -17.11746,-8.00839 -16.30127,9.56088 2.32684,-18.7544 -14.13031,-12.54896 18.55553,-3.58247 7.56826,-17.31656 9.14111,16.54031 18.80775,1.84674 -12.90602,13.80494 z"
       transform="translate(25.185185,-191.11111)"
       inkscape:transform-center-x="0.40809707"
       inkscape:transform-center-y="-2.3264777" />
    <path
       sodipodi:type="star"
       style="fill:none;fill-opacity:1;stroke:#000000;stroke-width:3"
       id="path3267"
       sodipodi:sides="5"
       sodipodi:cx="674.07407"
       sodipodi:cy="537.77778"
       sodipodi:r1="27.236706"
       sodipodi:r2="13.618353"
       sodipodi:arg1="0.78539816"
       sodipodi:arg2="1.4137167"
       inkscape:flatsided="false"
       inkscape:rounded="0"
       inkscape:randomized="0"
       d="m 693.33336,557.03703 -17.12888,-5.80857 -14.49559,10.81739 0.23117,-18.08548 -14.76734,-10.44336 17.27175,-5.36887 5.36887,-17.27175 10.44336,14.76734 18.08548,-0.23116 -10.81739,14.49558 z"
       transform="translate(0,-200)"
       inkscape:transform-center-x="1.3166471"
       inkscape:transform-center-y="-1.3166471" />
    <path
       sodipodi:type="star"
       style="fill:none;fill-opacity:1;stroke:#000000;stroke-width:3"
       id="path3269"
       sodipodi:sides="5"
       sodipodi:cx="653.33333"
       sodipodi:cy="601.48148"
       sodipodi:r1="27.236706"
       sodipodi:r2="13.618353"
       sodipodi:arg1="0.78539816"
       sodipodi:arg2="1.4137167"
       inkscape:flatsided="false"
       inkscape:rounded="0"
       inkscape:randomized="0"
       d="m 672.59257,620.74077 -17.12888,-5.80858 -14.49558,10.8174 0.23116,-18.08548 -14.76733,-10.44336 17.27174,-5.36887 5.36887,-17.27175 10.44337,14.76734 18.08548,-0.23117 -10.8174,14.49559 z"
       transform="translate(0,-200)"
       inkscape:transform-center-x="1.3166471"
       inkscape:transform-center-y="-1.3166471" />
    <path
       sodipodi:type="star"
       style="fill:none;fill-opacity:1;stroke:#000000;stroke-width:3"
       id="path3271"
       sodipodi:sides="5"
       sodipodi:cx="397.03704"
       sodipodi:cy="657.77778"
       sodipodi:r1="18.023"
       sodipodi:r2="9.0115005"
       sodipodi:arg1="0.16514868"
       sodipodi:arg2="0.79346721"
       inkscape:flatsided="false"
       inkscape:rounded="0"
       inkscape:randomized="0"
       d="m 414.81483,660.74073 -11.45731,3.46034 -3.64478,11.39998 -6.83148,-9.82725 -11.96832,0.0564 7.23522,-9.53391 -3.75205,-11.36512 11.30309,3.93496 9.64943,-7.08043 -0.24953,11.96586 z"
       transform="translate(0,-200)"
       inkscape:transform-center-x="-0.82683375"
       inkscape:transform-center-y="0.91560591" />
    <path
       sodipodi:type="star"
       style="fill:none;fill-opacity:1;stroke:#000000;stroke-width:3.59570431999999984"
       id="path3273"
       sodipodi:sides="5"
       sodipodi:cx="468.14816"
       sodipodi:cy="659.25928"
       sodipodi:r1="33.604355"
       sodipodi:r2="16.802177"
       sodipodi:arg1="1.3030943"
       sodipodi:arg2="1.9314129"
       inkscape:flatsided="false"
       inkscape:rounded="0"
       inkscape:randomized="0"
       d="m 477.03705,691.66669 -14.81756,-16.68596 -22.14579,2.74682 11.29041,-19.24858 -9.45581,-20.21308 21.79542,4.78968 16.30178,-15.2392 2.17989,22.20877 19.53087,10.79474 -20.44817,8.93609 z"
       transform="matrix(0.8798329,0,0,0.79117827,46.956453,-64.453856)"
       inkscape:transform-center-x="-2.416739"
       inkscape:transform-center-y="0.38154703" />
    <path
       sodipodi:type="star"
       style="fill:none;fill-opacity:1;stroke:#000000;stroke-width:3"
       id="path3275"
       sodipodi:sides="5"
       sodipodi:cx="533.33331"
       sodipodi:cy="644.44446"
       sodipodi:r1="22.565254"
       sodipodi:r2="11.282627"
       sodipodi:arg1="0.40489179"
       sodipodi:arg2="1.0332103"
       inkscape:flatsided="false"
       inkscape:rounded="0"
       inkscape:randomized="0"
       d="m 554.07405,653.33335 -14.96331,0.80229 -7.82202,12.78125 -5.38695,-13.98303 -14.57283,-3.48956 11.634,-9.44429 -1.18448,-14.93792 12.57715,8.14615 13.84078,-5.74258 -3.86089,14.47888 z"
       transform="translate(-5.9259259,-194.07407)"
       inkscape:transform-center-x="0.6318144"
       inkscape:transform-center-y="1.5450353" />
    <path
       sodipodi:type="star"
       style="fill:none;fill-opacity:1;stroke:#000000;stroke-width:3"
       id="path3277"
       sodipodi:sides="5"
       sodipodi:cx="592.59259"
       sodipodi:cy="631.11108"
       sodipodi:r1="29.406569"
       sodipodi:r2="14.703284"
       sodipodi:arg1="0.7140907"
       sodipodi:arg2="1.3424092"
       inkscape:flatsided="false"
       inkscape:rounded="0"
       inkscape:randomized="0"
       d="m 614.81481,650.37034 -18.8933,-4.93777 -14.77852,12.76454 -1.14224,-19.49445 -16.70662,-10.11075 18.18735,-7.11046 4.45326,-19.01333 12.38265,15.09995 19.45889,-1.64014 -10.53446,16.44274 z"
       transform="translate(1.4814815,-192.59259)"
       inkscape:transform-center-x="2.0573878"
       inkscape:transform-center-y="-0.77846744" />
    <path
       inkscape:transform-center-y="-4.5715447"
       inkscape:transform-center-x="2.9944032"
       transform="matrix(1.3633393,0,0,1.3154387,-494.62597,-322.73382)"
       d="m 635.55553,397.03705 -17.77712,21.14889 -4.4794,27.26236 -25.60722,-10.37168 -27.31226,4.16437 1.95098,-27.55894 -12.4005,-24.68864 26.813,-6.66069 19.64833,-19.42278 14.62036,23.44241 z"
       inkscape:randomized="0"
       inkscape:rounded="0"
       inkscape:flatsided="false"
       sodipodi:arg2="0.43092299"
       sodipodi:arg1="-0.19739553"
       sodipodi:r2="29.350538"
       sodipodi:r1="45.324619"
       sodipodi:cy="405.92593"
       sodipodi:cx="591.11108"
       sodipodi:sides="5"
       id="path3279"
       style="fill:none;fill-opacity:1;stroke:#000000;stroke-width:2.24018549999999994"
       sodipodi:type="star" />
    <path
       style="fill:none;stroke:#000000;stroke-width:3;stroke-linecap:butt;stroke-linejoin:miter;stroke-opacity:1"
       inkscape:path-effect="#path-effect3310"
       inkscape:original-d="M 83.670048,-45.842716 C 48.871359,-48.23572 17.568435,-45.925927 0,-45.925927"
       id="path3056"
       d="M 83.670048,-45.842716 0,-45.925927" />
    <path
       style="fill:none;stroke:#000000;stroke-width:3;stroke-linecap:butt;stroke-linejoin:miter;stroke-opacity:1"
       inkscape:path-effect="#path-effect3314"
       inkscape:original-d="M 43.750959,73.903938 C 26.074433,76.121282 11.077834,81.116656 0,82.962962"
       id="path3058"
       d="M 43.750959,73.903938 0,82.962962" />
    <path
       style="fill:none;stroke:#000000;stroke-width:3;stroke-linecap:butt;stroke-linejoin:miter;stroke-opacity:1"
       inkscape:path-effect="#path-effect3318"
       inkscape:original-d="m 136.30359,151.80253 c -33.11571,13.4703 -67.276425,26.48562 -92.247285,38.20102"
       id="path3060"
       d="M 136.30359,151.80253 44.056305,190.00355" />
    <path
       style="fill:none;stroke:#000000;stroke-width:3;stroke-linecap:butt;stroke-linejoin:miter;stroke-opacity:1"
       d="m 85.628571,9.57417 c 11.882108,0.22869 22.139089,0.89603 28.044289,4.11317 11.17147,6.21638 21.81089,14.10965 28.0443,21.31365"
       id="path3062" />
    <path
       style="fill:none;stroke:#000000;stroke-width:3;stroke-linecap:butt;stroke-linejoin:miter;stroke-opacity:1"
       d="M 162.4813,249.42065 C 114.38363,262.95944 69.3155,284.23831 38.53125,311.125 21.337867,326.14155 8.418438,348.91547 1.46875,373.21875 l 0,74.84375 c 0.4716039,1.27883 0.9679245,2.54298 1.5,3.78125 52.353563,104.70713 152.85075,82.07525 253.3125,115.5625 37.3991,12.46637 60.68822,20.16888 82,32.59375 l 142.78125,0 c 69.9033,-21.18473 158.53483,-37.59157 212.28125,-68.15625 53.16631,-35.44421 87.12421,-104.17892 55.32919,-199.56401"
       id="path3064" />
    <path
       style="fill:none;stroke:#000000;stroke-width:3;stroke-linecap:butt;stroke-linejoin:miter;stroke-opacity:1"
       d="m 178.51007,318.09976 c -57.90259,15.26434 -97.314029,49.18279 -68.88044,98.19654 21.45501,36.9841 98.41142,48.15949 148.14815,71.1111 43.15953,19.91649 111.00527,48.09524 130.37037,57.77779 20.05158,-8.49549 50.70599,-39.54321 93.33333,-56.2963"
       id="path3066" />
    <path
       style="fill:none;stroke:#000000;stroke-width:3;stroke-linecap:butt;stroke-linejoin:miter;stroke-opacity:1"
       d="m 0,208.88888 c 30.63635,-64.80403 120.72944,45.1965 152.59259,13.33334"
       id="path3272" />
    <path
       style="fill:none;stroke:#000000;stroke-width:3;stroke-linecap:butt;stroke-linejoin:miter;stroke-opacity:1"
       d="m 491.67037,429.77737 c 9.65498,-29.17067 30.41055,-38.77891 30.41055,-38.77891 0,0 -12.48641,-8.63052 -16.26293,-36.60415"
       id="path3274" />
  </g>
</svg>
