<?xml version="1.0" encoding="UTF-8" standalone="no"?>
<!-- Created with Inkscape (http://www.inkscape.org/) -->

<svg
   xmlns:dc="http://purl.org/dc/elements/1.1/"
   xmlns:cc="http://creativecommons.org/ns#"
   xmlns:rdf="http://www.w3.org/1999/02/22-rdf-syntax-ns#"
   xmlns:svg="http://www.w3.org/2000/svg"
   xmlns="http://www.w3.org/2000/svg"
   xmlns:sodipodi="http://sodipodi.sourceforge.net/DTD/sodipodi-0.dtd"
   xmlns:inkscape="http://www.inkscape.org/namespaces/inkscape"
   width="800"
   height="800"
   id="svg4195"
   version="1.1"
   inkscape:version="0.48.4 r9939"
   sodipodi:docname="svg3.svg">
  <defs
     id="defs4197" />
  <sodipodi:namedview
     id="base"
     pagecolor="#ffffff"
     bordercolor="#666666"
     borderopacity="1.0"
     inkscape:pageopacity="0.0"
     inkscape:pageshadow="2"
     inkscape:zoom="0.675"
     inkscape:cx="400"
     inkscape:cy="400"
     inkscape:current-layer="layer1"
     inkscape:document-units="px"
     showgrid="false"
     showguides="true"
     inkscape:guide-bbox="true"
     inkscape:window-width="1366"
     inkscape:window-height="718"
     inkscape:window-x="0"
     inkscape:window-y="0"
     inkscape:window-maximized="1" />
  <metadata
     id="metadata4200">
    <rdf:RDF>
      <cc:Work
         rdf:about="">
        <dc:format>image/svg+xml</dc:format>
        <dc:type
           rdf:resource="http://purl.org/dc/dcmitype/StillImage" />
        <dc:title />
      </cc:Work>
    </rdf:RDF>
  </metadata>
  <g
     id="layer1"
     inkscape:label="Layer 1"
     inkscape:groupmode="layer"
     transform="translate(0,200)">
    <path
       style="fill:none;stroke:#000000;stroke-width:3;stroke-linecap:butt;stroke-linejoin:miter;stroke-opacity:1"
       d="M 370.57953,62.79759 230.88287,-2.1535197 c 0,0 78.01386,40.2966727 71.36459,73.8859347 -6.45329,32.599125 -91.3571,39.912025 -91.3571,39.912025 0,0 91.13439,-9.29083 96.50962,23.36948 4.97558,30.23201 -77.68962,49.12086 -77.68962,49.12086 0,0 70.38686,-19.38692 102.87748,-8.28906 30.64899,10.46879 -11.75954,96.44879 -11.75954,96.44879 l 81.84497,-131.40847 c 2.69019,-15.71777 -10.58459,-52.559983 -32.09374,-78.08845 z"
       id="path4205" />
    <path
       style="fill:none;stroke:#000000;stroke-width:3;stroke-linecap:butt;stroke-linejoin:miter;stroke-opacity:1"
       d="m 211.27797,111.07645 c -46.65796,-19.40327 -74.86328,20.03631 -48.85447,43.31396 8.66153,7.75201 29.44791,7.15213 34.72411,-3.20537 3.72752,-7.31735 -17.04798,-20.61842 -12.59129,-21.17552"
       id="path4207" />
    <path
       style="fill:none;stroke:#000000;stroke-width:3;stroke-linecap:butt;stroke-linejoin:miter;stroke-opacity:1"
       d="m 111.30899,83.997012 c 5.20233,6.613208 -22.771425,-1.650086 -14.582316,18.828048 4.321156,10.80571 22.714746,14.89403 34.817656,2.57811 10.46722,-10.65144 5.97286,-41.216373 -30.764,-38.381474 -82.313974,6.35198 -124.174532,73.651324 -49.223377,106.442564 79.552857,34.80449 114.491497,33.89361 176.618467,11.18197 -20.1355,27.54631 -66.42148,35.38918 -78.97173,67.71428 -9.44413,24.32481 -6.95549,49.91928 37.51925,47.93475 22.38848,-0.99901 0.20329,-52.53188 -15.88855,-33.22162"
       id="path4209" />
    <path
       style="fill:none;stroke:#000000;stroke-width:3;stroke-linecap:butt;stroke-linejoin:miter;stroke-opacity:1"
       d="m 320.86825,271.89451 c -0.51409,22.8289 -22.68411,35.7321 -31.52407,36.41291 -57.17897,4.40369 -65.78185,-63.77772 -28.23394,-65.06668 30.05826,-1.03186 21.61475,44.20258 -1.24083,31.15386"
       id="path4211" />
    <path
       style="fill:none;stroke:#000000;stroke-width:3;stroke-linecap:butt;stroke-linejoin:miter;stroke-opacity:1"
       d="m 235.31968,0.169569 c -29.22242,-19.412353 -104.64152,-38.292558 -130.20611,-3.2021607 -12.463137,17.1071237 3.54356,47.8931627 20.944,59.9433587 27.54731,19.077127 96.53365,17.809182 85.2204,-27.443947 -9.12635,-36.505545 -74.07351,-4.876158 -38.99916,15.166392"
       id="path4213" />
    <path
       style="fill:none;stroke:#000000;stroke-width:3;stroke-linecap:butt;stroke-linejoin:miter;stroke-opacity:1"
       d="m 213.24459,-10.454696 c -6.30271,-7.174392 -13.35811,-23.721523 -7.02206,-33.021617 6.59583,-9.681413 23.75376,-10.03904 34.66592,-5.777674 5.11354,1.996919 10.1109,7.696245 10.1109,12.999765 0,35.2833763 -41.20679,2.166627 -12.99973,2.166627"
       id="path4215" />
    <path
       style="fill:none;stroke:#000000;stroke-width:3;stroke-linecap:butt;stroke-linejoin:miter;stroke-opacity:1"
       d="m 153.84049,138.22995 c -0.50062,18.64514 -11.67104,35.26177 -33.56057,40.73417 -16.63902,4.15977 -41.750502,4.49672 -51.085557,-10.21537 -22.864808,-36.03501 29.334334,-58.56453 47.474517,-22.28405 8.25029,16.50064 -36.980456,29.48001 -28.88827,-2.88883"
       id="path4217" />
    <path
       style="fill:none;stroke:#000000;stroke-width:3;stroke-linecap:butt;stroke-linejoin:miter;stroke-opacity:1"
       d="m 169.83239,227.36413 c -42.21009,12.04459 -48.47922,30.09058 -50.43614,39.2098 -12.69064,59.13834 -71.531439,34.29088 -56.892879,6.99959 5.580395,-10.40376 36.81846,-16.4981 33.221514,12.27756"
       id="path4219" />
    <path
       style="fill:none;stroke:#000000;stroke-width:3;stroke-linecap:butt;stroke-linejoin:miter;stroke-opacity:1"
       d="M 62.609736,74.80422 C 120.59112,52.968438 68.02642,-59.586208 37.840423,0.785978 26.618464,23.229969 60.457749,49.708521 64.952233,13.752539"
       id="path4221" />
    <path
       style="fill:none;stroke:#000000;stroke-width:3;stroke-linecap:butt;stroke-linejoin:miter;stroke-opacity:1"
       d="m 261.73816,303.9486 c 78.62475,98.30747 -54.94844,81.77571 -29.84965,46.01914 10.08442,-14.36661 35.61858,-13.04928 27.71671,8.0031"
       id="path4223" />
    <path
       style="fill:none;stroke:#000000;stroke-width:3;stroke-linecap:butt;stroke-linejoin:miter;stroke-opacity:1"
       d="m 160.44801,296.65932 c 68.90989,31.96949 3.95569,143.18198 -35.37828,100.19615 -13.5432,-14.80058 -8.48228,-21.93508 -4.7151,-29.46946 9.22835,-18.45676 44.10573,-12.37506 30.64813,11.17582"
       id="path4225" />
    <path
       style="fill:none;stroke:#000000;stroke-width:3;stroke-linecap:butt;stroke-linejoin:miter;stroke-opacity:1"
       d="m 99.300195,298.95756 c -26.706238,8.91303 -31.994456,33.06992 -7.408668,36.14139 16.390313,2.04763 22.592803,-15.99796 5.672863,-15.99796"
       id="path4227" />
    <path
       style="fill:none;stroke:#000000;stroke-width:3;stroke-linecap:butt;stroke-linejoin:miter;stroke-opacity:1"
       d="m 175.58811,387.81697 c -1.84114,17.80379 3.39782,32.26117 14.3142,38.50794 27.82983,15.92532 27.26133,-27.86066 3.92625,-13.47509"
       id="path4229" />
    <path
       style="fill:none;stroke:#000000;stroke-width:3;stroke-linecap:butt;stroke-linejoin:miter;stroke-opacity:1"
       d="m 228.0889,-52.152488 c 64.21369,1.942952 35.29052,-100.332012 1.01272,-122.562952 -11.24259,-7.2914 -31.65908,4.22941 -36.56806,16.6979 -10.20695,25.92493 34.04855,58.45253 33.91155,17.37866"
       id="path4231" />
    <path
       style="fill:none;stroke:#000000;stroke-width:3;stroke-linecap:butt;stroke-linejoin:miter;stroke-opacity:1"
       d="m 244.64085,-158.8339 c 10.82336,-34.82171 35.84461,-42.34566 62.60538,-17.88064 20.94815,19.15105 31.55097,54.38616 11.82694,74.11026 -20.24323,20.243314 -59.8048,-7.22868 -24.81131,-36.39002"
       id="path4233" />
    <path
       style="fill:none;stroke:#000000;stroke-width:3;stroke-linecap:butt;stroke-linejoin:miter;stroke-opacity:1"
       d="m 250.42739,-38.923708 c 30.64175,44.143554 52.40303,42.773398 59.54419,22.865851 12.11525,-33.77393 -10.14881,-53.707398 -24.20117,-45.207592 -9.44336,5.711985 -18.72067,22.484466 4.12928,31.437259"
       id="path4235" />
    <path
       style="fill:none;stroke:#000000;stroke-width:3;stroke-linecap:butt;stroke-linejoin:miter;stroke-opacity:1"
       d="m 151.17823,-22.381208 c -98.717299,6.841395 -72.724919,-99.217322 -67.095242,-109.720212 7.980333,-14.88835 33.026032,-23.62196 48.091072,-15.98048 57.88244,29.35985 -21.93371,72.515692 -18.20763,27.28261"
       id="path4237" />
    <path
       style="fill:none;stroke:#000000;stroke-width:3;stroke-linecap:butt;stroke-linejoin:miter;stroke-opacity:1"
       d="m 123.88937,-150.5777 c 17.17873,3.7662 50.25785,1.01533 46.31443,-23.15728 -9.09312,-55.73947 -51.25392,7.8e-4 -21.50313,1.65408"
       id="path4239" />
    <path
       style="fill:none;stroke:#000000;stroke-width:3;stroke-linecap:butt;stroke-linejoin:miter;stroke-opacity:1"
       d="m 80.879153,-122.43675 c 11.254578,-37.95516 -12.15939,-64.7469 -37.259716,-65.47308 -20.742635,-0.6001 -45.846156,14.2694 -33.867591,52.2356 4.599209,14.57725 43.84513,16.20276 36.391489,-18.20135"
       id="path4241" />
    <path
       style="fill:none;stroke:#000000;stroke-width:3;stroke-linecap:butt;stroke-linejoin:miter;stroke-opacity:1"
       d="M 56.071024,-16.591488 C 20.308612,-22.670247 70.356634,-94.17758 21.31936,-81.918227"
       id="path4243" />
    <path
       style="fill:none;stroke:#000000;stroke-width:3;stroke-linecap:butt;stroke-linejoin:miter;stroke-opacity:1"
       d="m 101.87516,192.51869 c -88.433444,-11.04274 -66.457882,49.02944 -38.736184,44.92899 13.55342,-2.00476 27.096655,-22.44481 2.141215,-27.46766"
       id="path4245" />
    <path
       style="fill:none;stroke:#000000;stroke-width:3;stroke-linecap:butt;stroke-linejoin:miter;stroke-opacity:1"
       d="m 201.87898,429.67323 c 51.85643,14.96117 82.62984,158.03968 1.22865,119.69954 -7.83902,-3.6922 -25.66713,-20.01987 -30.56462,-41.20422 -4.87672,-21.09452 0.1251,-44.01843 5.21491,-49.10826 21.45807,-21.45812 59.98715,18.08019 54.28918,39.06412 -11.12671,40.97627 -51.98914,4.1075 -27.37953,-8.25129"
       id="path4247" />
    <path
       style="fill:none;stroke:#000000;stroke-width:3;stroke-linecap:butt;stroke-linejoin:miter;stroke-opacity:1"
       d="m 252.96562,517.21247 c -0.70553,90.38631 80.21213,79.98788 89.84008,59.8423 21.8059,-45.62675 -37.43212,-66.98503 -59.14051,-42.55446 -7.24955,8.15861 -2.09711,27.38366 14.11122,34.7171 26.47533,11.97873 34.12952,-20.30221 12.10819,-17.88256"
       id="path4249" />
    <path
       style="fill:none;stroke:#000000;stroke-width:3;stroke-linecap:butt;stroke-linejoin:miter;stroke-opacity:1"
       d="m 152.80754,405.50838 c -208.424677,70.55923 0.85697,148.93779 0.85697,87.36047 0,-73.67703 -84.00619,-10.25002 -36.38991,1.65409"
       id="path4251" />
    <path
       style="fill:none;stroke:#000000;stroke-width:3;stroke-linecap:butt;stroke-linejoin:miter;stroke-opacity:1"
       d="m 107.2683,424.17336 c -26.930023,9.93369 -54.392446,6.19578 -72.616238,-21.4617 -12.532409,-19.01992 -2.39742,-53.36058 28.119472,-49.62276 33.954259,4.15883 20.55713,63.5229 -5.044047,42.18852"
       id="path4253" />
    <path
       style="fill:none;stroke:#000000;stroke-width:3;stroke-linecap:butt;stroke-linejoin:miter;stroke-opacity:1"
       d="m 82.068812,503.50754 c 3.506357,4.26992 13.358967,14.92392 15.948809,19.5427 12.174579,21.71242 -8.032149,45.04394 -30.365614,34.3282 -22.245088,-10.67335 -10.058145,-37.31088 8.270433,-28.11957"
       id="path4255" />
    <path
       style="fill:none;stroke:#000000;stroke-width:3;stroke-linecap:butt;stroke-linejoin:miter;stroke-opacity:1"
       d="m 151.33657,503.30367 c -13.91841,38.09197 -18.77722,46.09798 -2.77057,55.2587 17.69873,10.1291 35.90946,-25.05559 6.7526,-27.64941"
       id="path4257" />
    <path
       style="fill:none;stroke:#000000;stroke-width:3;stroke-linecap:butt;stroke-linejoin:miter;stroke-opacity:1"
       d="M 386.86353,87.305712 291.70394,33.775895 c 0,0 51.55681,30.771589 44.97463,52.982592 -5.84887,19.736533 -59.16262,17.703773 -59.16262,17.703773 0,0 57.9114,0.0112 62.81918,21.60396 3.80773,16.75288 -36.70521,36.18205 -36.70521,36.18205 0,0 31.52269,-17.71261 54.58015,-10.8191 21.75048,6.50275 -8.34535,59.90981 -8.34535,59.90981 l 52.23378,-82.12844 c -1.02739,-8.60784 -4.02954,-23.21713 -15.23497,-41.904828 z"
       id="path4272" />
    <path
       style="fill:none;stroke:#000000;stroke-width:2.99999976;stroke-linecap:butt;stroke-linejoin:miter;stroke-opacity:1"
       d="m 390.53822,96.693663 c -11.13487,-7.17995 -25.76263,-12.121639 -47.27429,-21.501455 0,0 9.80456,13.093843 7.68934,19.875207 -1.83823,5.893305 -15.31713,10.410415 -15.31713,10.410415 0,0 19.17472,3.93429 22.10296,11.74713 2.2415,5.98056 -6.84112,17.89756 -6.84112,17.89756 0,0 4.90582,-6.44486 16.62369,1.09088 11.38344,7.32068 5.7486,19.44424 5.7486,19.44424 l 26.17176,-37.46647 c -1.87972,-3.49284 -2.22018,-7.1747 -8.90381,-21.497507 z"
       id="path4274" />
    <path
       style="fill:none;stroke:#000000;stroke-width:3;stroke-linecap:butt;stroke-linejoin:miter;stroke-opacity:1"
       d="m 499.76596,-123.17158 c 34.05749,11.7983 21.57194,52.938182 41.46379,66.980196 16.76354,11.833688 33.70453,20.731959 60.60094,20.731959 10.08616,0 55.03725,-11.24741 39.86903,-4.78429 -31.16537,13.279464 -27.11095,38.2743956 -27.11095,38.2743956 0,0 -21.86391,-10.7902316 -30.30046,-15.9476686 -25.72484,-15.726088 -45.49667,-9.360252 -66.97998,-3.189539 -9.61098,2.760598 -14.83151,24.548614 -27.25843,29.589696 -13.76853,5.585316 -44.50582,-2.478659 -44.50582,-2.478659 0,0 102.52029,85.8466 114.82282,146.71851 8.83894,43.73439 -10.58038,91.88863 -35.08476,129.17609 -29.4996,44.88851 -116.23511,47.64864 -125.98614,100.47029 -6.27265,33.97915 23.08151,71.39102 52.62712,89.30692 35.04739,21.25207 99.97401,40.42467 122.79662,6.37907 18.00732,-26.86239 -41.46379,-87.71216 -41.46379,-87.71216"
       id="path4203" />
    <path
       style="fill:none;stroke:#000000;stroke-width:3;stroke-linecap:butt;stroke-linejoin:miter;stroke-opacity:1"
       d="m 533.57492,391.76081 c 13.11066,-0.79209 35.29627,21.21167 49.07109,28.62183 21.91396,11.78862 38.36887,35.87833 38.32182,64.93781 -0.0402,24.83331 -17.99882,49.62221 -39.69188,59.53793 -55.01033,25.14477 -129.0683,9.89529 -180.03078,-22.68112 -41.31571,-26.40995 -75.98213,-75.75078 -77.96612,-124.74618 -2.0165,-49.79847 33.35534,-84.72152 68.73307,-132.78299 22.19039,-30.14614 33.78338,-69.36617 34.74923,-106.78637 1.96959,-76.313083 -92.84224,-152.450564 -59.53776,-221.140957 12.04246,-24.837557 33.55384,-53.222353 64.00421,-62.202383 25.12744,-7.41026 59.05554,2.46361 74.91721,2.66444 0,0 61.65508,-15.83252 55.00931,-20.16933 -3.99716,-2.60841 -44.84153,11.0158 -50.8923,5.94063 -9.95114,-8.34668 29.05463,-29.31142 24.75945,-30.08656 -7.17267,-1.29445 -28.98627,18.63263 -42.6952,12.88365 -7.40122,-3.10377 -8.13884,-21.64388 -11.19428,-21.31651 -10.01138,1.07267 -8.81288,20.27156 -18.08391,21.40195 -9.29467,1.13328 -18.09921,-15.64652 -22.75448,-16.47158 -4.08622,-0.72421 -0.74442,24.59401 -10.05943,27.97176 -6.87297,2.49225 -14.69283,-11.55797 -18.92548,-11.08457 -4.3405,0.48546 -1.24353,19.39869 -8.66717,22.37896 -7.11666,2.85701 -17.50622,-11.96841 -20.83663,-9.75296 -3.0118,2.0035 8.73883,16.51302 3.22554,20.91165 -6.81347,5.43595 -20.79076,-12.59311 -24.31223,-9.62659 -3.51573,2.96169 11.04065,22.41872 3.2889,27.32553 -5.81763,3.68251 -14.11514,-15.62175 -17.47926,-11.00574 -1.27667,1.75175 8.85362,21.804542 2.7098,29.561135 -4.90232,6.189196 -21.62872,-0.414894 -23.45603,3.295866 -1.58224,3.213106 14.01131,10.18632 13.09067,17.380652 -0.96478,7.539224 -17.11198,9.017621 -17.86264,14.172522 -1.17276,8.053519 13.97406,15.805565 13.90914,25.482482 -0.0559,8.329939 -14.57304,14.285793 -12.26625,21.7728523 2.06771,6.7111227 22.75612,10.2280807 24.6669,20.8157947 1.45417,8.057628 -14.54674,16.172348 -12.05059,21.404261 2.51786,5.277423 23.92444,1.01896 26.9498,10.126092 24.05726,34.016971 47.2315,68.334003 41.44018,96.869323 3.34736,10.91554 -4.33045,5.9487 -6.9589,32.01438 1.35961,11.22524 -26.89252,12.23125 -28.3679,18.59968 -1.7627,7.60866 21.78928,13.94702 18.25725,23.10563 -3.64401,9.44898 -28.1155,0.86871 -29.96448,5.01806 -1.55861,3.49774 22.33007,9.37873 19.87279,17.96341 -2.07542,7.2506 -20.02784,0.41839 -22.27021,3.99274 -2.05761,3.27985 11.67071,10.63495 9.43344,16.5901 -2.82591,7.52198 -18.76029,2.59011 -22.76561,7.92577 -5.4306,7.23432 1.64735,21.98914 -4.97686,29.3989 -5.25521,5.87841 -19.49607,1.49877 -22.73678,6.52644 -2.88188,4.471 6.9976,15.19351 4.23186,22.20106 -3.88938,9.85444 -23.31448,10.75163 -25.66972,18.74028 -2.68507,9.10746 12.2661,21.9027 11.68944,33.81485 -0.52945,10.93681 -14.37261,24.57092 -13.681,29.86429 2.15262,16.47534 17.24764,16.09074 19.15439,26.94408 1.93979,11.0414 -14.68211,25.26608 -8.9765,32.41142 3.30456,4.13844 27.38612,-0.83609 32.98702,9.10059 4.98496,8.84391 -14.84318,22.55132 -8.27224,29.31128 8.20794,8.44405 28.14503,-0.62814 36.90852,8.45508 7.97951,8.27062 -1.46139,28.44471 6.4901,33.86096 5.12378,3.49011 30.5454,-11.20191 43.1554,-4.14306 7.55505,4.22919 5.34172,20.20029 11.4019,23.33841 5.62632,2.91345 24.21347,-12.66991 36.29064,-9.44633 12.40693,3.31158 19.98262,24.52362 27.48686,26.99188 7.79781,2.56482 17.47548,-16.13297 28.49273,-16.91353 12.4361,-0.88109 27.53931,13.55159 34.5326,14.36645 6.57513,0.76614 12.549,-9.24405 19.95926,-10.20644 10.48113,-1.36123 22.68038,8.98986 30.98149,6.74599 6.28866,-1.69989 6.01818,-14.02387 12.11812,-17.81452 6.3363,-3.93754 18.36925,1.24333 22.16568,-3.09177 3.7725,-4.30771 -2.79647,-15.74693 0.6477,-22.36045 3.71681,-7.13707 17.84499,-8.69544 19.37041,-14.40683 1.293,-4.84145 -8.64282,-10.49797 -8.56099,-16.77525 0.0967,-7.41677 10.76109,-13.13703 10.62819,-19.54994 -0.12487,-6.02566 -9.46896,-10.70217 -11.15093,-17.37538 -1.78877,-7.09703 4.12875,-15.66729 1.68369,-21.8923 -2.87239,-7.31294 -14.72634,1.70495 -19.1713,-2.99354 -7.16103,-7.5695 -0.0459,-28.33247 -3.10385,-31.10576 -3.77288,-3.42148 -13.36708,0.88802 -18.02536,-3.03992 -6.62359,-5.58515 -4.07717,-22.01866 -8.58923,-24.53201 -3.19111,-1.77756 -9.44769,14.81707 -16.8223,14.41884 -8.64358,-0.46676 -10.80907,-19.19462 -17.78245,-18.92488 -13.15888,0.509 -24.64799,-21.50349 -20.25381,-22.50089 z"
       id="path4276" />
    <path
       sodipodi:type="arc"
       style="fill:none;fill-opacity:1;stroke:#000000;stroke-width:2.60460854000000008"
       id="path4280"
       sodipodi:cx="463.92474"
       sodipodi:cy="136.88013"
       sodipodi:rx="18.142307"
       sodipodi:ry="19.623312"
       d="m 482.06705,136.88013 c 0,10.83765 -8.12259,19.62331 -18.14231,19.62331 -10.01972,0 -18.1423,-8.78566 -18.1423,-19.62331 0,-10.83766 8.12258,-19.62332 18.1423,-19.62332 10.01972,0 18.14231,8.78566 18.14231,19.62332 z"
       transform="matrix(1.3864659,0,0,0.9568599,-175.13453,-209.28486)" />
    <path
       transform="matrix(0.95685675,0,0,0.59578067,30.548786,-157.73463)"
       d="m 482.06705,136.88013 c 0,10.83765 -8.12259,19.62331 -18.14231,19.62331 -10.01972,0 -18.1423,-8.78566 -18.1423,-19.62331 0,-10.83766 8.12258,-19.62332 18.1423,-19.62332 10.01972,0 18.14231,8.78566 18.14231,19.62332 z"
       sodipodi:ry="19.623312"
       sodipodi:rx="18.142307"
       sodipodi:cy="136.88013"
       sodipodi:cx="463.92474"
       id="path4282"
       style="fill:none;fill-opacity:1;stroke:#000000;stroke-width:3.97332931000000000"
       sodipodi:type="arc" />
    <path
       style="fill:none;stroke:#000000;stroke-width:3;stroke-linecap:butt;stroke-linejoin:miter;stroke-opacity:1"
       d="m 417.87727,-63.457433 c -37.80289,35.459582 -6.56774,65.981375 30.76602,70.648105"
       id="path4284" />
    <path
       style="fill:none;stroke:#000000;stroke-width:3;stroke-linecap:butt;stroke-linejoin:miter;stroke-opacity:1"
       d="m 406.29371,-15.51978 c 23.93621,76.112244 64.86281,174.91231 30.49322,243.6517 -10.31788,20.63583 -34.4,53.2647 -49.96592,68.83066 -57.11225,57.11245 -60.42759,132.36888 -14.01634,178.78027 24.14694,24.14703 88.72613,71.9013 141.27049,70.13521 36.72917,-1.23452 87.3862,-19.64341 95.23507,-55.54549 8.32713,-38.08974 -58.08237,-79.70937 -67.22943,-95.71679 43.24247,45.43368 59.66894,80.96132 36.44295,101.06776 -30.5462,26.44347 -115.33192,26.21314 -154.78202,-13.23708 C 341.38804,400.09249 389.7887,322.85947 484.67242,290.40808 522.36905,277.51538 544.77721,213.43369 540.3996,169.17315 532.91124,93.460837 455.02107,48.344628 406.29371,-15.51978 z"
       id="path4286" />
    <path
       style="fill:none;stroke:#000000;stroke-width:3;stroke-linecap:butt;stroke-linejoin:miter;stroke-opacity:1"
       d="m 490.59062,73.48716 c -27.82846,-1.258845 -42.21926,-3.778994 -51.11974,11.796905 36.78003,2.031155 57.30046,39.671565 95.68567,61.606045 -11.72982,44.63578 -54.39073,56.36298 -89.13185,56.36298 35.96374,8.20349 61.60584,30.51126 61.60584,69.47065 -27.25664,-5.32345 -76.04511,-4.48165 -86.51034,-17.03997 20.44949,18.70758 8.96022,42.35474 6.55381,61.60605 -23.9535,-0.41859 -43.4852,5.63369 -48.49822,-14.41844 -0.12703,32.85417 -18.09291,46.09165 5.24305,65.53835 -22.37431,0.72277 -32.93621,28.10233 -43.25516,36.70147 30.24845,8.80677 28.04496,38.79737 56.36279,45.87685 -21.9437,19.82339 -4.16963,21.69508 -1.31076,44.56608 13.50226,-9.07848 24.07583,-5.5105 36.70136,-3.9323 3.1156,10.05996 9.47424,33.09543 10.05143,35.40417 19.44903,8.40423 33.66887,-1.48282 41.06831,-14.4319 7.41378,11.99025 17.49806,20.88322 20.9722,30.14764 12.2213,-14.29527 27.96742,-6.93455 27.96742,-27.51265 4.78277,15.78356 31.33996,1.24627 41.93767,13.96357 -0.87679,-26.64752 35.3853,-28.9115 13.98372,-46.7462 11.97337,-2.2473 9.89941,-15.03853 13.10764,-23.5938"
       id="path4292" />
    <path
       sodipodi:type="arc"
       style="fill:none;fill-opacity:1;stroke:#000000;stroke-width:3.13526033999999987;stroke-miterlimit:4;stroke-dasharray:none"
       id="path4803"
       sodipodi:cx="667.40741"
       sodipodi:cy="193.33333"
       sodipodi:rx="9.6296301"
       sodipodi:ry="11.111111"
       d="m 677.03704,193.33333 c 0,6.1365 -4.31133,11.11111 -9.62963,11.11111 -5.3183,0 -9.62963,-4.97461 -9.62963,-11.11111 0,-6.1365 4.31133,-11.11111 9.62963,-11.11111 5.3183,0 9.62963,4.97461 9.62963,11.11111 z"
       transform="matrix(0.95685676,0,0,0.9568599,21.337582,-196.53084)" />
    <path
       sodipodi:type="arc"
       style="fill:none;fill-opacity:1;stroke:#000000;stroke-width:3.13526033999999987;stroke-miterlimit:4;stroke-dasharray:none"
       id="path4805"
       sodipodi:cx="686.66669"
       sodipodi:cy="150.37038"
       sodipodi:rx="8.1481485"
       sodipodi:ry="9.6296301"
       d="m 694.81484,150.37038 c 0,5.31829 -3.64805,9.62963 -8.14815,9.62963 -4.5001,0 -8.14815,-4.31134 -8.14815,-9.62963 0,-5.3183 3.64805,-9.62963 8.14815,-9.62963 4.5001,0 8.14815,4.31133 8.14815,9.62963 z"
       transform="matrix(0.95685676,0,0,0.9568599,21.337582,-196.53084)" />
    <path
       sodipodi:type="arc"
       style="fill:none;fill-opacity:1;stroke:#000000;stroke-width:3.13526033999999987;stroke-miterlimit:4;stroke-dasharray:none"
       id="path4807"
       sodipodi:cx="649.62964"
       sodipodi:cy="130.37038"
       sodipodi:rx="11.111111"
       sodipodi:ry="11.851851"
       d="m 660.74075,130.37038 c 0,6.54559 -4.97461,11.85185 -11.11111,11.85185 -6.1365,0 -11.11111,-5.30626 -11.11111,-11.85185 0,-6.5456 4.97461,-11.85185 11.11111,-11.85185 6.1365,0 11.11111,5.30625 11.11111,11.85185 z"
       transform="matrix(0.95685676,0,0,0.9568599,21.337582,-196.53084)" />
    <path
       sodipodi:type="arc"
       style="fill:none;fill-opacity:1;stroke:#000000;stroke-width:3.13526033999999987;stroke-miterlimit:4;stroke-dasharray:none"
       id="path4809"
       sodipodi:cx="717.77777"
       sodipodi:cy="111.11111"
       sodipodi:rx="15.555555"
       sodipodi:ry="14.814815"
       d="m 733.33333,111.11111 c 0,8.18199 -6.96446,14.81481 -15.55556,14.81481 -8.59109,0 -15.55555,-6.63282 -15.55555,-14.81481 0,-8.182 6.96446,-14.814818 15.55555,-14.814818 8.5911,0 15.55556,6.632818 15.55556,14.814818 z"
       transform="matrix(0.95685676,0,0,0.9568599,21.337582,-196.53084)" />
    <path
       sodipodi:type="arc"
       style="fill:none;fill-opacity:1;stroke:#000000;stroke-width:3.13526033999999987;stroke-miterlimit:4;stroke-dasharray:none"
       id="path4815"
       sodipodi:cx="748.14813"
       sodipodi:cy="177.77777"
       sodipodi:rx="26.666666"
       sodipodi:ry="29.629629"
       d="m 774.8148,177.77777 c 0,16.36399 -11.93907,29.62963 -26.66667,29.62963 -14.72759,0 -26.66666,-13.26564 -26.66666,-29.62963 0,-16.36399 11.93907,-29.62963 26.66666,-29.62963 14.7276,0 26.66667,13.26564 26.66667,29.62963 z"
       transform="matrix(0.95685676,0,0,0.9568599,21.337582,-196.53084)" />
    <path
       sodipodi:type="arc"
       style="fill:none;fill-opacity:1;stroke:#000000;stroke-width:3.13526033999999987;stroke-miterlimit:4;stroke-dasharray:none"
       id="path4817"
       sodipodi:cx="647.40741"
       sodipodi:cy="223.7037"
       sodipodi:rx="14.814815"
       sodipodi:ry="10.37037"
       d="m 662.22222,223.7037 c 0,5.7274 -6.63281,10.37037 -14.81481,10.37037 -8.182,0 -14.81481,-4.64297 -14.81481,-10.37037 0,-5.72739 6.63281,-10.37037 14.81481,-10.37037 8.182,0 14.81481,4.64298 14.81481,10.37037 z"
       transform="matrix(0.95685676,0,0,0.9568599,21.337582,-196.53084)" />
    <path
       sodipodi:type="arc"
       style="fill:none;fill-opacity:1;stroke:#000000;stroke-width:3.13526033999999987;stroke-miterlimit:4;stroke-dasharray:none"
       id="path4819"
       sodipodi:cx="711.85187"
       sodipodi:cy="239.25926"
       sodipodi:rx="14.074074"
       sodipodi:ry="14.074074"
       d="m 725.92594,239.25926 c 0,7.7729 -6.30118,14.07408 -14.07407,14.07408 -7.7729,0 -14.07408,-6.30118 -14.07408,-14.07408 0,-7.77289 6.30118,-14.07407 14.07408,-14.07407 7.77289,0 14.07407,6.30118 14.07407,14.07407 z"
       transform="matrix(0.95685676,0,0,0.9568599,21.337582,-196.53084)" />
    <path
       sodipodi:type="arc"
       style="fill:none;fill-opacity:1;stroke:#000000;stroke-width:3.13526033999999987;stroke-miterlimit:4;stroke-dasharray:none"
       id="path4821"
       sodipodi:cx="602.22223"
       sodipodi:cy="236.2963"
       sodipodi:rx="17.037037"
       sodipodi:ry="17.037037"
       d="m 619.25927,236.2963 c 0,9.40929 -7.62775,17.03703 -17.03704,17.03703 -9.4093,0 -17.03704,-7.62774 -17.03704,-17.03703 0,-9.4093 7.62774,-17.03704 17.03704,-17.03704 9.40929,0 17.03704,7.62774 17.03704,17.03704 z"
       transform="matrix(0.95685676,0,0,0.9568599,21.337582,-196.53084)" />
    <path
       sodipodi:type="arc"
       style="fill:none;fill-opacity:1;stroke:#000000;stroke-width:3.13526033999999987;stroke-miterlimit:4;stroke-dasharray:none"
       id="path4823"
       sodipodi:cx="674.0741"
       sodipodi:cy="306.66666"
       sodipodi:rx="25.185184"
       sodipodi:ry="26.666666"
       d="m 699.25928,306.66666 c 0,14.72759 -11.27579,26.66666 -25.18518,26.66666 -13.9094,0 -25.18519,-11.93907 -25.18519,-26.66666 0,-14.7276 11.27579,-26.66667 25.18519,-26.66667 13.90939,0 25.18518,11.93907 25.18518,26.66667 z"
       transform="matrix(0.95685676,0,0,0.9568599,21.337582,-196.53084)" />
    <path
       sodipodi:type="arc"
       style="fill:none;fill-opacity:1;stroke:#000000;stroke-width:3.13526033999999987;stroke-miterlimit:4;stroke-dasharray:none"
       id="path4825"
       sodipodi:cx="760"
       sodipodi:cy="351.85184"
       sodipodi:rx="22.222221"
       sodipodi:ry="30.370371"
       d="m 782.22222,351.85184 c 0,16.77309 -9.94923,30.37037 -22.22222,30.37037 -12.27299,0 -22.22222,-13.59728 -22.22222,-30.37037 0,-16.7731 9.94923,-30.37037 22.22222,-30.37037 12.27299,0 22.22222,13.59727 22.22222,30.37037 z"
       transform="matrix(0.95685676,0,0,0.9568599,21.337582,-196.53084)" />
    <path
       sodipodi:type="arc"
       style="fill:none;fill-opacity:1;stroke:#000000;stroke-width:3.13526033999999987;stroke-miterlimit:4;stroke-dasharray:none"
       id="path4827"
       sodipodi:cx="620"
       sodipodi:cy="362.96295"
       sodipodi:rx="42.222221"
       sodipodi:ry="42.962963"
       d="m 662.22222,362.96295 c 0,23.72779 -18.90353,42.96296 -42.22222,42.96296 -23.31869,0 -42.22222,-19.23517 -42.22222,-42.96296 0,-23.72779 18.90353,-42.96296 42.22222,-42.96296 23.31869,0 42.22222,19.23517 42.22222,42.96296 z"
       transform="matrix(0.95685676,0,0,0.9568599,21.337582,-196.53084)" />
    <path
       sodipodi:type="arc"
       style="fill:none;fill-opacity:1;stroke:#000000;stroke-width:3.13526033999999987;stroke-miterlimit:4;stroke-dasharray:none"
       id="path4829"
       sodipodi:cx="721.48151"
       sodipodi:cy="503.7037"
       sodipodi:rx="56.296295"
       sodipodi:ry="59.259258"
       d="m 777.7778,503.7037 c 0,32.72799 -25.20471,59.25926 -56.29629,59.25926 -31.09159,0 -56.2963,-26.53127 -56.2963,-59.25926 0,-32.72798 25.20471,-59.25925 56.2963,-59.25925 31.09158,0 56.29629,26.53127 56.29629,59.25925 z"
       transform="matrix(0.95685676,0,0,0.9568599,21.337582,-196.53084)" />
    <path
       sodipodi:type="arc"
       style="fill:none;fill-opacity:1;stroke:#000000;stroke-width:3.13526033999999987;stroke-miterlimit:4;stroke-dasharray:none"
       id="path4831"
       sodipodi:cx="602.96295"
       sodipodi:cy="541.48151"
       sodipodi:rx="42.962963"
       sodipodi:ry="45.185184"
       d="m 645.92591,541.48151 c 0,24.95508 -19.23517,45.18518 -42.96296,45.18518 -23.72779,0 -42.96296,-20.2301 -42.96296,-45.18518 0,-24.95509 19.23517,-45.18519 42.96296,-45.18519 23.72779,0 42.96296,20.2301 42.96296,45.18519 z"
       transform="matrix(0.95685676,0,0,0.9568599,21.337582,-196.53084)" />
    <path
       sodipodi:type="arc"
       style="fill:none;fill-opacity:1;stroke:#000000;stroke-width:3.13526033999999987;stroke-miterlimit:4;stroke-dasharray:none"
       id="path4833"
       sodipodi:cx="745.18518"
       sodipodi:cy="657.03705"
       sodipodi:rx="42.962963"
       sodipodi:ry="43.703705"
       d="m 788.14814,657.03705 c 0,24.13689 -19.23517,43.7037 -42.96296,43.7037 -23.72779,0 -42.96296,-19.56681 -42.96296,-43.7037 0,-24.13689 19.23517,-43.70371 42.96296,-43.70371 23.72779,0 42.96296,19.56682 42.96296,43.70371 z"
       transform="matrix(0.95685676,0,0,0.9568599,21.337582,-196.53084)" />
    <path
       sodipodi:type="arc"
       style="fill:none;fill-opacity:1;stroke:#000000;stroke-width:3.13526033999999987;stroke-miterlimit:4;stroke-dasharray:none"
       id="path4835"
       sodipodi:cx="705.9259"
       sodipodi:cy="366.66666"
       sodipodi:rx="17.037037"
       sodipodi:ry="17.037037"
       d="m 722.96294,366.66666 c 0,9.40929 -7.62774,17.03703 -17.03704,17.03703 -9.40929,0 -17.03703,-7.62774 -17.03703,-17.03703 0,-9.4093 7.62774,-17.03704 17.03703,-17.03704 9.4093,0 17.03704,7.62774 17.03704,17.03704 z"
       transform="matrix(0.95685676,0,0,0.9568599,21.337582,-196.53084)" />
    <path
       sodipodi:type="arc"
       style="fill:none;fill-opacity:1;stroke:#000000;stroke-width:3.13526033999999987;stroke-miterlimit:4;stroke-dasharray:none"
       id="path4837"
       sodipodi:cx="646.66669"
       sodipodi:cy="448.14816"
       sodipodi:rx="14.074074"
       sodipodi:ry="18.518518"
       d="m 660.74076,448.14816 c 0,10.2275 -6.30118,18.51852 -14.07407,18.51852 -7.7729,0 -14.07408,-8.29102 -14.07408,-18.51852 0,-10.22749 6.30118,-18.51852 14.07408,-18.51852 7.77289,0 14.07407,8.29103 14.07407,18.51852 z"
       transform="matrix(0.95685676,0,0,0.9568599,21.337582,-196.53084)" />
    <path
       sodipodi:type="arc"
       style="fill:none;fill-opacity:1;stroke:#000000;stroke-width:3.13526033999999987;stroke-miterlimit:4;stroke-dasharray:none"
       id="path4839"
       sodipodi:cx="600"
       sodipodi:cy="463.7037"
       sodipodi:rx="17.777779"
       sodipodi:ry="16.296297"
       d="M 617.77778,463.7037 C 617.77778,472.7039 609.8184,480 600,480 c -9.8184,0 -17.77778,-7.2961 -17.77778,-16.2963 0,-9.00019 7.95938,-16.29629 17.77778,-16.29629 9.8184,0 17.77778,7.2961 17.77778,16.29629 z"
       transform="matrix(0.95685676,0,0,0.9568599,21.337582,-196.53084)" />
    <path
       sodipodi:type="arc"
       style="fill:none;fill-opacity:1;stroke:#000000;stroke-width:3.13526033999999987;stroke-miterlimit:4;stroke-dasharray:none"
       id="path4841"
       sodipodi:cx="671.11108"
       sodipodi:cy="609.62964"
       sodipodi:rx="22.222221"
       sodipodi:ry="20"
       d="m 693.33331,609.62964 c 0,11.04569 -9.94923,20 -22.22223,20 -12.27299,0 -22.22222,-8.95431 -22.22222,-20 0,-11.0457 9.94923,-20 22.22222,-20 12.273,0 22.22223,8.9543 22.22223,20 z"
       transform="matrix(0.95685676,0,0,0.9568599,21.337582,-196.53084)" />
    <path
       sodipodi:type="arc"
       style="fill:none;fill-opacity:1;stroke:#000000;stroke-width:3.13526033999999987;stroke-miterlimit:4;stroke-dasharray:none"
       id="path4843"
       sodipodi:cx="737.03705"
       sodipodi:cy="757.77777"
       sodipodi:rx="31.851852"
       sodipodi:ry="33.333332"
       d="m 768.8889,757.77777 c 0,18.40949 -14.26056,33.33333 -31.85185,33.33333 -17.59129,0 -31.85185,-14.92384 -31.85185,-33.33333 0,-18.40949 14.26056,-33.33333 31.85185,-33.33333 17.59129,0 31.85185,14.92384 31.85185,33.33333 z"
       transform="matrix(0.95685676,0,0,0.9568599,21.337582,-196.53084)" />
    <path
       sodipodi:type="arc"
       style="fill:none;fill-opacity:1;stroke:#000000;stroke-width:3.13526033999999987;stroke-miterlimit:4;stroke-dasharray:none"
       id="path4845"
       sodipodi:cx="547.40741"
       sodipodi:cy="242.22223"
       sodipodi:rx="18.518518"
       sodipodi:ry="15.555555"
       d="m 565.92593,242.22223 c 0,8.59109 -8.29103,15.55555 -18.51852,15.55555 -10.2275,0 -18.51852,-6.96446 -18.51852,-15.55555 0,-8.5911 8.29102,-15.55556 18.51852,-15.55556 10.22749,0 18.51852,6.96446 18.51852,15.55556 z"
       transform="matrix(0.95685676,0,0,0.9568599,21.337582,-196.53084)" />
    <path
       sodipodi:type="arc"
       style="fill:none;fill-opacity:1;stroke:#000000;stroke-width:3.13526033999999987;stroke-miterlimit:4;stroke-dasharray:none"
       id="path4847"
       sodipodi:cx="592.59259"
       sodipodi:cy="297.77777"
       sodipodi:rx="19.25926"
       sodipodi:ry="14.814815"
       d="m 611.85185,297.77777 c 0,8.182 -8.62266,14.81482 -19.25926,14.81482 -10.6366,0 -19.25926,-6.63282 -19.25926,-14.81482 0,-8.182 8.62266,-14.81481 19.25926,-14.81481 10.6366,0 19.25926,6.63281 19.25926,14.81481 z"
       transform="matrix(0.95685676,0,0,0.9568599,21.337582,-196.53084)" />
    <path
       sodipodi:type="arc"
       style="fill:none;fill-opacity:1;stroke:#000000;stroke-width:3.13526033999999987;stroke-miterlimit:4;stroke-dasharray:none"
       id="path4849"
       sodipodi:cx="598.51849"
       sodipodi:cy="110.37037"
       sodipodi:rx="20.74074"
       sodipodi:ry="21.481482"
       d="m 619.25923,110.37037 c 0,11.86389 -9.28594,21.48148 -20.74074,21.48148 -11.45479,0 -20.74074,-9.61759 -20.74074,-21.48148 0,-11.863896 9.28595,-21.481483 20.74074,-21.481483 11.4548,0 20.74074,9.617587 20.74074,21.481483 z"
       transform="matrix(0.95685676,0,0,0.9568599,21.337582,-196.53084)" />
    <path
       sodipodi:type="arc"
       style="fill:none;fill-opacity:1;stroke:#000000;stroke-width:3.13526033999999987;stroke-miterlimit:4;stroke-dasharray:none"
       id="path4851"
       sodipodi:cx="616.29633"
       sodipodi:cy="46.666668"
       sodipodi:rx="17.777779"
       sodipodi:ry="18.518518"
       d="m 634.0741,46.666668 c 0,10.227495 -7.95938,18.518518 -17.77777,18.518518 -9.8184,0 -17.77778,-8.291023 -17.77778,-18.518518 0,-10.227495 7.95938,-18.518519 17.77778,-18.518519 9.81839,0 17.77777,8.291024 17.77777,18.518519 z"
       transform="matrix(0.95685676,0,0,0.9568599,21.337582,-196.53084)" />
    <path
       sodipodi:type="arc"
       style="fill:none;fill-opacity:1;stroke:#000000;stroke-width:3.13526033999999987;stroke-miterlimit:4;stroke-dasharray:none"
       id="path4853"
       sodipodi:cx="517.03705"
       sodipodi:cy="566.66669"
       sodipodi:rx="16.296297"
       sodipodi:ry="15.555555"
       d="m 533.33335,566.66669 c 0,8.59109 -7.29611,15.55555 -16.2963,15.55555 -9.0002,0 -16.2963,-6.96446 -16.2963,-15.55555 0,-8.5911 7.2961,-15.55556 16.2963,-15.55556 9.00019,0 16.2963,6.96446 16.2963,15.55556 z"
       transform="matrix(0.95685676,0,0,0.9568599,21.337582,-196.53084)" />
    <path
       sodipodi:type="arc"
       style="fill:none;fill-opacity:1;stroke:#000000;stroke-width:3.13526033999999987;stroke-miterlimit:4;stroke-dasharray:none"
       id="path4855"
       sodipodi:cx="477.03705"
       sodipodi:cy="618.51849"
       sodipodi:rx="35.555557"
       sodipodi:ry="33.333332"
       d="m 512.59261,618.51849 c 0,18.40949 -15.91877,33.33334 -35.55556,33.33334 -19.63679,0 -35.55556,-14.92385 -35.55556,-33.33334 0,-18.40949 15.91877,-33.33333 35.55556,-33.33333 19.63679,0 35.55556,14.92384 35.55556,33.33333 z"
       transform="matrix(0.95685676,0,0,0.9568599,21.337582,-196.53084)" />
    <path
       sodipodi:type="arc"
       style="fill:none;fill-opacity:1;stroke:#000000;stroke-width:3.13526033999999987;stroke-miterlimit:4;stroke-dasharray:none"
       id="path4857"
       sodipodi:cx="545.18518"
       sodipodi:cy="674.0741"
       sodipodi:rx="19.25926"
       sodipodi:ry="19.25926"
       d="m 564.44444,674.0741 c 0,10.63659 -8.62266,19.25926 -19.25926,19.25926 -10.6366,0 -19.25926,-8.62267 -19.25926,-19.25926 0,-10.6366 8.62266,-19.25926 19.25926,-19.25926 10.6366,0 19.25926,8.62266 19.25926,19.25926 z"
       transform="matrix(0.95685676,0,0,0.9568599,21.337582,-196.53084)" />
    <path
       sodipodi:type="arc"
       style="fill:none;fill-opacity:1;stroke:#000000;stroke-width:3.13526033999999987;stroke-miterlimit:4;stroke-dasharray:none"
       id="path4859"
       sodipodi:cx="488.14816"
       sodipodi:cy="687.40741"
       sodipodi:rx="17.037037"
       sodipodi:ry="16.296297"
       d="m 505.1852,687.40741 c 0,9.0002 -7.62774,16.2963 -17.03704,16.2963 -9.40929,0 -17.03703,-7.2961 -17.03703,-16.2963 0,-9.0002 7.62774,-16.2963 17.03703,-16.2963 9.4093,0 17.03704,7.2961 17.03704,16.2963 z"
       transform="matrix(0.95685676,0,0,0.9568599,21.337582,-196.53084)" />
    <path
       sodipodi:type="arc"
       style="fill:none;fill-opacity:1;stroke:#000000;stroke-width:3.13526033999999987;stroke-miterlimit:4;stroke-dasharray:none"
       id="path4861"
       sodipodi:cx="680.74072"
       sodipodi:cy="51.851852"
       sodipodi:rx="24.444445"
       sodipodi:ry="23.703703"
       d="m 705.18517,51.851852 c 0,13.091194 -10.94415,23.703703 -24.44445,23.703703 -13.50029,0 -24.44444,-10.612509 -24.44444,-23.703703 0,-13.091193 10.94415,-23.703703 24.44444,-23.703703 13.5003,0 24.44445,10.61251 24.44445,23.703703 z"
       transform="matrix(0.95685676,0,0,0.9568599,21.337582,-175.47992)" />
    <path
       sodipodi:type="arc"
       style="fill:none;fill-opacity:1;stroke:#000000;stroke-width:3.13526033999999987;stroke-miterlimit:4;stroke-dasharray:none"
       id="path4863"
       sodipodi:cx="762.96295"
       sodipodi:cy="51.851852"
       sodipodi:rx="25.185184"
       sodipodi:ry="25.185184"
       d="m 788.14814,51.851852 c 0,13.909394 -11.2758,25.185185 -25.18519,25.185185 -13.90939,0 -25.18518,-11.275791 -25.18518,-25.185185 0,-13.909393 11.27579,-25.185184 25.18518,-25.185184 13.90939,0 25.18519,11.275791 25.18519,25.185184 z"
       transform="matrix(0.95685676,0,0,0.9568599,21.337582,-175.47992)" />
    <path
       sodipodi:type="arc"
       style="fill:none;fill-opacity:1;stroke:#000000;stroke-width:3.13526033999999987;stroke-miterlimit:4;stroke-dasharray:none"
       id="path4865"
       sodipodi:cx="765.9259"
       sodipodi:cy="257.03705"
       sodipodi:rx="23.703703"
       sodipodi:ry="22.962963"
       d="m 789.62961,257.03705 c 0,12.68209 -10.61251,22.96296 -23.70371,22.96296 -13.09119,0 -23.7037,-10.28087 -23.7037,-22.96296 0,-12.6821 10.61251,-22.96296 23.7037,-22.96296 13.0912,0 23.70371,10.28086 23.70371,22.96296 z"
       transform="matrix(0.95685676,0,0,0.9568599,21.337582,-175.47992)" />
    <path
       sodipodi:type="arc"
       style="fill:none;fill-opacity:1;stroke:#000000;stroke-width:3.13526033999999987;stroke-miterlimit:4;stroke-dasharray:none"
       id="path4867"
       sodipodi:cx="746.66669"
       sodipodi:cy="397.03705"
       sodipodi:rx="19.25926"
       sodipodi:ry="16.296297"
       d="m 765.92595,397.03705 c 0,9.00019 -8.62267,16.2963 -19.25926,16.2963 -10.6366,0 -19.25926,-7.29611 -19.25926,-16.2963 0,-9.0002 8.62266,-16.2963 19.25926,-16.2963 10.63659,0 19.25926,7.2961 19.25926,16.2963 z"
       transform="matrix(0.95685676,0,0,0.9568599,21.337582,-175.47992)" />
    <path
       sodipodi:type="arc"
       style="fill:none;fill-opacity:1;stroke:#000000;stroke-width:3.13526033999999987;stroke-miterlimit:4;stroke-dasharray:none"
       id="path4869"
       sodipodi:cx="774.0741"
       sodipodi:cy="558.51849"
       sodipodi:rx="18.518518"
       sodipodi:ry="17.777779"
       d="m 792.59262,558.51849 c 0,9.8184 -8.29103,17.77778 -18.51852,17.77778 -10.2275,0 -18.51852,-7.95938 -18.51852,-17.77778 0,-9.81839 8.29102,-17.77777 18.51852,-17.77777 10.22749,0 18.51852,7.95938 18.51852,17.77777 z"
       transform="matrix(0.95685676,0,0,0.9568599,21.337582,-175.47992)" />
    <path
       sodipodi:type="arc"
       style="fill:none;fill-opacity:1;stroke:#000000;stroke-width:3.13526033999999987;stroke-miterlimit:4;stroke-dasharray:none"
       id="path4871"
       sodipodi:cx="680.74072"
       sodipodi:cy="774.0741"
       sodipodi:rx="18.518518"
       sodipodi:ry="15.555555"
       d="m 699.25924,774.0741 c 0,8.59109 -8.29102,15.55555 -18.51852,15.55555 -10.22749,0 -18.51852,-6.96446 -18.51852,-15.55555 0,-8.5911 8.29103,-15.55556 18.51852,-15.55556 10.2275,0 18.51852,6.96446 18.51852,15.55556 z"
       transform="matrix(0.95685676,0,0,0.9568599,21.337582,-175.47992)" />
  </g>
</svg>
