<?xml version="1.0" encoding="UTF-8" standalone="no"?>
<!-- Created with Inkscape (http://www.inkscape.org/) -->

<svg
   xmlns:dc="http://purl.org/dc/elements/1.1/"
   xmlns:cc="http://creativecommons.org/ns#"
   xmlns:rdf="http://www.w3.org/1999/02/22-rdf-syntax-ns#"
   xmlns:svg="http://www.w3.org/2000/svg"
   xmlns="http://www.w3.org/2000/svg"
   xmlns:sodipodi="http://sodipodi.sourceforge.net/DTD/sodipodi-0.dtd"
   xmlns:inkscape="http://www.inkscape.org/namespaces/inkscape"
   width="800"
   height="800"
   id="svg2"
   version="1.1"
   inkscape:version="0.48.4 r9939"
   sodipodi:docname="svg5.svg">
  <defs
     id="defs4">
    <inkscape:path-effect
       effect="spiro"
       id="path-effect3137"
       is_visible="true" />
    <inkscape:path-effect
       effect="spiro"
       id="path-effect3064"
       is_visible="true" />
    <inkscape:path-effect
       effect="spiro"
       id="path-effect3060"
       is_visible="true" />
    <inkscape:path-effect
       effect="spiro"
       id="path-effect3056"
       is_visible="true" />
    <inkscape:path-effect
       effect="spiro"
       id="path-effect3052"
       is_visible="true" />
    <inkscape:path-effect
       effect="skeletal"
       id="path-effect3048"
       is_visible="true"
       pattern="M 0,0 0,10 10,5 z"
       copytype="single_stretched"
       prop_scale="1"
       scale_y_rel="false"
       spacing="0"
       normal_offset="0"
       tang_offset="0"
       prop_units="false"
       vertical_pattern="false"
       fuse_tolerance="0" />
    <inkscape:path-effect
       effect="spiro"
       id="path-effect3046"
       is_visible="true" />
    <inkscape:path-effect
       fuse_tolerance="0"
       vertical_pattern="false"
       prop_units="false"
       tang_offset="0"
       normal_offset="0"
       spacing="0"
       scale_y_rel="false"
       prop_scale="1"
       copytype="single_stretched"
       pattern="m 691.9929,229.85704 10,5 0,-10 z"
       is_visible="true"
       id="path-effect3212"
       effect="skeletal" />
    <inkscape:path-effect
       is_visible="true"
       id="path-effect3210"
       effect="spiro" />
    <inkscape:path-effect
       effect="skeletal"
       id="path-effect3206"
       is_visible="true"
       pattern="m 708.00192,220.25163 10,5 0,-10 z"
       copytype="single_stretched"
       prop_scale="1"
       scale_y_rel="false"
       spacing="0"
       normal_offset="0"
       tang_offset="0"
       prop_units="false"
       vertical_pattern="false"
       fuse_tolerance="0" />
    <inkscape:path-effect
       effect="spiro"
       id="path-effect3204"
       is_visible="true" />
    <inkscape:path-effect
       effect="skeletal"
       id="path-effect3200"
       is_visible="true"
       pattern="m 691.45926,218.11709 10,5 0,-10 z"
       copytype="single_stretched"
       prop_scale="1"
       scale_y_rel="false"
       spacing="0"
       normal_offset="0"
       tang_offset="0"
       prop_units="false"
       vertical_pattern="false"
       fuse_tolerance="0" />
    <inkscape:path-effect
       effect="spiro"
       id="path-effect3198"
       is_visible="true" />
    <inkscape:path-effect
       effect="skeletal"
       id="path-effect3194"
       is_visible="true"
       pattern="m 695.72833,221.31889 10,5 0,-10 z"
       copytype="single_stretched"
       prop_scale="1"
       scale_y_rel="false"
       spacing="0"
       normal_offset="0"
       tang_offset="0"
       prop_units="false"
       vertical_pattern="false"
       fuse_tolerance="0" />
    <inkscape:path-effect
       effect="spiro"
       id="path-effect3192"
       is_visible="true" />
    <inkscape:path-effect
       effect="skeletal"
       id="path-effect3188"
       is_visible="true"
       pattern="m 699.99741,219.71799 10,5 0,-10 z"
       copytype="single_stretched"
       prop_scale="1"
       scale_y_rel="false"
       spacing="0"
       normal_offset="0"
       tang_offset="0"
       prop_units="false"
       vertical_pattern="false"
       fuse_tolerance="0" />
    <inkscape:path-effect
       effect="spiro"
       id="path-effect3186"
       is_visible="true" />
    <inkscape:path-effect
       effect="skeletal"
       id="path-effect3182"
       is_visible="true"
       pattern="m 699.46377,223.45343 10,5 0,-10 z"
       copytype="single_stretched"
       prop_scale="1"
       scale_y_rel="false"
       spacing="0"
       normal_offset="0"
       tang_offset="0"
       prop_units="false"
       vertical_pattern="false"
       fuse_tolerance="0" />
    <inkscape:path-effect
       effect="spiro"
       id="path-effect3180"
       is_visible="true" />
    <inkscape:path-effect
       effect="skeletal"
       id="path-effect3176"
       is_visible="true"
       pattern="m 695.72833,221.31889 10,5 0,-10 z"
       copytype="single_stretched"
       prop_scale="1"
       scale_y_rel="false"
       spacing="0"
       normal_offset="0"
       tang_offset="0"
       prop_units="false"
       vertical_pattern="false"
       fuse_tolerance="0" />
    <inkscape:path-effect
       effect="spiro"
       id="path-effect3174"
       is_visible="true" />
    <inkscape:path-effect
       effect="skeletal"
       id="path-effect3170"
       is_visible="true"
       pattern="m 705.86287,229.05433 10,5 0,-10 z"
       copytype="single_stretched"
       prop_scale="1"
       scale_y_rel="false"
       spacing="0"
       normal_offset="0"
       tang_offset="0"
       prop_units="false"
       vertical_pattern="false"
       fuse_tolerance="0" />
    <inkscape:path-effect
       effect="spiro"
       id="path-effect3168"
       is_visible="true" />
    <inkscape:path-effect
       effect="skeletal"
       id="path-effect3164"
       is_visible="true"
       pattern="m 692.52653,232.52521 10,5 0,-10 z"
       copytype="single_stretched"
       prop_scale="1"
       scale_y_rel="false"
       spacing="0"
       normal_offset="0"
       tang_offset="0"
       prop_units="false"
       vertical_pattern="false"
       fuse_tolerance="0" />
    <inkscape:path-effect
       effect="spiro"
       id="path-effect3162"
       is_visible="true" />
    <inkscape:path-effect
       effect="skeletal"
       id="path-effect3158"
       is_visible="true"
       pattern="m 709.06919,242.13063 10,5 0,-10 z"
       copytype="single_stretched"
       prop_scale="1"
       scale_y_rel="false"
       spacing="0"
       normal_offset="0"
       tang_offset="0"
       prop_units="false"
       vertical_pattern="false"
       fuse_tolerance="0" />
    <inkscape:path-effect
       effect="spiro"
       id="path-effect3156"
       is_visible="true" />
    <inkscape:path-effect
       effect="skeletal"
       id="path-effect3152"
       is_visible="true"
       pattern="m 682.92112,208.51168 10,5 0,-10 z"
       copytype="single_stretched"
       prop_scale="1"
       scale_y_rel="false"
       spacing="0"
       normal_offset="0"
       tang_offset="0"
       prop_units="false"
       vertical_pattern="false"
       fuse_tolerance="0" />
    <inkscape:path-effect
       effect="spiro"
       id="path-effect3150"
       is_visible="true" />
    <inkscape:path-effect
       effect="skeletal"
       id="path-effect3146"
       is_visible="true"
       pattern="m 699.99741,222.9198 10,5 0,-10 z"
       copytype="single_stretched"
       prop_scale="1"
       scale_y_rel="false"
       spacing="0"
       normal_offset="0"
       tang_offset="0"
       prop_units="false"
       vertical_pattern="false"
       fuse_tolerance="0" />
    <inkscape:path-effect
       effect="spiro"
       id="path-effect3144"
       is_visible="true" />
    <inkscape:path-effect
       effect="skeletal"
       id="path-effect3140"
       is_visible="true"
       pattern="m 695.72833,221.31889 10,5 0,-10 z"
       copytype="single_stretched"
       prop_scale="1"
       scale_y_rel="false"
       spacing="0"
       normal_offset="0"
       tang_offset="0"
       prop_units="false"
       vertical_pattern="false"
       fuse_tolerance="0" />
    <inkscape:path-effect
       effect="spiro"
       id="path-effect3138"
       is_visible="true" />
    <inkscape:path-effect
       effect="skeletal"
       id="path-effect3134"
       is_visible="true"
       pattern="m 696.7956,228.78977 10,5 0,-10 z"
       copytype="single_stretched"
       prop_scale="1"
       scale_y_rel="false"
       spacing="0"
       normal_offset="0"
       tang_offset="0"
       prop_units="false"
       vertical_pattern="false"
       fuse_tolerance="0" />
    <inkscape:path-effect
       effect="spiro"
       id="path-effect3132"
       is_visible="true" />
    <inkscape:path-effect
       effect="skeletal"
       id="path-effect3128"
       is_visible="true"
       pattern="m 691.9929,213.84802 10,5 0,-10 z"
       copytype="single_stretched"
       prop_scale="1"
       scale_y_rel="false"
       spacing="0"
       normal_offset="0"
       tang_offset="0"
       prop_units="false"
       vertical_pattern="false"
       fuse_tolerance="0" />
    <inkscape:path-effect
       effect="spiro"
       id="path-effect3126"
       is_visible="true" />
    <inkscape:path-effect
       effect="skeletal"
       id="path-effect3122"
       is_visible="true"
       pattern="M 0,5 10,10 10,0 z"
       copytype="single_stretched"
       prop_scale="1"
       scale_y_rel="false"
       spacing="0"
       normal_offset="0"
       tang_offset="0"
       prop_units="false"
       vertical_pattern="false"
       fuse_tolerance="0" />
    <inkscape:path-effect
       effect="spiro"
       id="path-effect3120"
       is_visible="true" />
    <inkscape:path-effect
       effect="skeletal"
       id="path-effect3116"
       is_visible="true"
       pattern="M 0,5 10,10 10,0 z"
       copytype="single_stretched"
       prop_scale="1"
       scale_y_rel="false"
       spacing="0"
       normal_offset="0"
       tang_offset="0"
       prop_units="false"
       vertical_pattern="false"
       fuse_tolerance="0" />
    <inkscape:path-effect
       effect="spiro"
       id="path-effect3114"
       is_visible="true" />
    <inkscape:path-effect
       effect="skeletal"
       id="path-effect3110"
       is_visible="true"
       pattern="M 0,0 0,10 10,5 z"
       copytype="single_stretched"
       prop_scale="1"
       scale_y_rel="false"
       spacing="0"
       normal_offset="0"
       tang_offset="0"
       prop_units="false"
       vertical_pattern="false"
       fuse_tolerance="0" />
    <inkscape:path-effect
       effect="spiro"
       id="path-effect3108"
       is_visible="true" />
  </defs>
  <sodipodi:namedview
     id="base"
     pagecolor="#ffffff"
     bordercolor="#666666"
     borderopacity="1.0"
     inkscape:pageopacity="0.0"
     inkscape:pageshadow="2"
     inkscape:zoom="0.675"
     inkscape:cx="400"
     inkscape:cy="400"
     inkscape:document-units="px"
     inkscape:current-layer="layer1"
     showgrid="false"
     showguides="true"
     inkscape:guide-bbox="true"
     inkscape:snap-grids="true"
     inkscape:window-width="1366"
     inkscape:window-height="718"
     inkscape:window-x="0"
     inkscape:window-y="0"
     inkscape:window-maximized="1">
    <inkscape:grid
       type="xygrid"
       id="grid2997"
       empspacing="5"
       visible="true"
       enabled="true"
       snapvisiblegridlinesonly="true" />
  </sodipodi:namedview>
  <metadata
     id="metadata7">
    <rdf:RDF>
      <cc:Work
         rdf:about="">
        <dc:format>image/svg+xml</dc:format>
        <dc:type
           rdf:resource="http://purl.org/dc/dcmitype/StillImage" />
      </cc:Work>
    </rdf:RDF>
  </metadata>
  <g
     inkscape:label="Layer 1"
     inkscape:groupmode="layer"
     id="layer1"
     transform="translate(0,-252.36218)">
    <path
       style="fill:none;stroke:#000000;stroke-width:3"
       d="m 177.03125,403.86218 0,-141.25 -127.1875,0 0,178 55.53125,0"
       id="rect3278" />
    <path
       style="fill:none;stroke:#000000;stroke-width:3"
       d="m 520.625,465.79968 c -1.29153,1.24759 -2.78533,2.27418 -4.15625,3.4375 l 133.875,0 0,-101.71875 -114.28125,0 c 0.0353,0.0659 0.0898,0.12154 0.125,0.1875 1.25659,2.35745 2.38634,4.75979 3.40625,7.21875"
       id="path3288" />
    <rect
       y="669.50757"
       x="712.04077"
       height="78.112305"
       width="56.313522"
       id="rect3282"
       style="fill:none;stroke:#000000;stroke-width:3" />
    <path
       style="fill:none;stroke:#000000;stroke-width:3"
       d="m 459.59375,975.70593 0,36.68747 225.25,0"
       id="path3084" />
    <path
       style="fill:none;stroke:#000000;stroke-width:3"
       d="m 713.90625,945.17468 0,-70.84375 -91.46875,0"
       id="path3144" />
    <rect
       y="719.93073"
       x="78.112305"
       height="63.579781"
       width="78.112305"
       id="rect3286"
       style="fill:none;stroke:#000000;stroke-width:3" />
    <path
       style="fill:none;stroke:#000000;stroke-width:3"
       d="m 105.375,483.76843 -96.28125,0 0,139.875 91.625,0"
       id="path3251" />
    <rect
       y="300.3042"
       x="650.33032"
       height="179.83995"
       width="121.70987"
       id="rect3290"
       style="fill:none;stroke:#000000;stroke-width:3" />
    <path
       style="fill:none;stroke:#000000;stroke-width:3"
       d="m 561.78125,690.14343 c -0.15985,0.0183 -0.30918,0.0139 -0.46875,0.0312 l 0,67.90625 132.625,0 0,-114.4375 -48.90625,0 c -1.74177,1.98518 -3.52373,3.9587 -5.4375,5.90625"
       id="path3160" />
    <path
       style="fill:none;stroke:#000000;stroke-width:3"
       d="m 128.96875,961.51843 0,65.40627 159.875,0 0,-58.18752 c -1.25554,1.04053 -2.40696,2.18632 -3.78125,3.09375"
       id="path3139" />
    <path
       style="fill:none;stroke:#000000;stroke-width:3"
       d="m 115.875,846.23718 c -0.60061,-1.2739 -1.11122,-2.52538 -1.53125,-3.8125 -0.27896,-0.85484 -0.44687,-1.73104 -0.625,-2.59375 l -68.3125,0 0,121.6875 135.78125,0 c -2.10444,-1.32218 -4.2279,-2.59548 -6.28125,-4.03125 -3.27917,-2.2929 -6.46352,-4.71959 -9.5625,-7.28125"
       id="path3134" />
    <path
       style="fill:none;stroke:#000000;stroke-width:3"
       d="m 409.3125,341.15177 0,-60.82084 -135,0 0,45.40625"
       id="path3097" />
    <path
       style="fill:none;stroke:#000000;stroke-width:3"
       d="m 367.90625,367.29968 c 2.7034,-0.14014 5.39875,-0.31718 8.09375,-0.28125 4.02709,0.0537 8.0465,0.3105 12.03125,0.75"
       id="rect3298" />
    <path
       style="fill:none;stroke:#000000;stroke-width:3"
       d="m 670.5,580.73718 c 0.2114,2.03805 0.29314,4.14566 0.25,6.28125 -0.014,0.69467 -0.11544,1.42116 -0.15625,2.125 l 52.40625,0 0,-47.25 -96.28125,0 0,2.34375 c 0.23557,0.0103 0.48422,-0.0126 0.71875,0"
       id="path3165" />
    <path
       style="fill:none;stroke:#000000;stroke-width:3"
       d="m 597.65625,548.01843 0,-38.8125 -89.03125,0 0,61 c 0.1442,0.22251 0.29388,0.43299 0.4375,0.65625 2.13398,3.31724 4.18465,6.74167 6.1875,10.21875 2.00285,3.47708 3.94629,7.02686 5.8125,10.65625 1.19762,2.32911 2.29801,4.7357 3.4375,7.125 1.72666,-2.29059 3.55279,-4.55492 5.5,-6.8125 1.94721,-2.25758 4.0155,-4.5084 6.1875,-6.71875 2.23547,-2.27494 4.52132,-4.45668 6.875,-6.5625 2.35368,-2.10582 4.76638,-4.13143 7.21875,-6.0625 2.45237,-1.93107 4.96846,-3.78059 7.5,-5.53125 2.53154,-1.75066 5.0963,-3.40413 7.6875,-4.96875 2.5912,-1.56462 5.21242,-3.03332 7.84375,-4.40625 2.63133,-1.37293 5.2543,-2.66816 7.90625,-3.84375 2.65195,-1.17559 5.3157,-2.24614 7.96875,-3.21875 2.65305,-0.97261 5.30287,-1.82976 7.9375,-2.59375 0.17778,-0.0516 0.3536,-0.0744 0.53125,-0.125 z"
       id="path3153" />
    <path
       style="fill:none;stroke:#000000;stroke-width:3"
       d="m 116.25,719.92468 0,-69.03125 -103.53125,0 0,109 65.40625,0"
       id="rect3304" />
    <rect
       y="945.18481"
       x="684.84509"
       height="81.74543"
       width="87.195129"
       id="rect3306"
       style="fill:none;stroke:#000000;stroke-width:3" />
    <path
       style="fill:none;stroke:#000000;stroke-width:3"
       d="m 210.75,418.14343 c -0.38081,-2.63068 -0.65656,-5.27591 -0.78125,-7.9375 -0.0989,-2.11056 -0.0335,-4.22453 0.0312,-6.34375 l 5e-5,0 -104.625,0 0,134.40625 134.40625,0 0,-68.46875"
       id="path3182" />
    <path
       style="fill:none;stroke:#000000;stroke-width:3"
       d="m 45.40625,939.73718 -29.0625,0 0,99.90622 69.03125,0 0,-78.12497"
       id="path3263" />
    <path
       style="fill:none;stroke:#000000;stroke-width:3"
       d="m 641.25,794.42468 0,79.90625 72.65625,0 0,10.90625 67.21875,0 0,-90.8125 -139.875,0 z"
       id="rect3314" />
    <path
       style="fill:none;stroke:#000000;stroke-width:3"
       d="m 699.375,514.64343 0,27.25 23.625,0 0,47.25 -23.625,0 0,32.6875 78.125,0 0,-107.1875 -78.125,0 z"
       id="rect3316" />
    <path
       style="fill:none;stroke:#000000;stroke-width:3;stroke-linecap:butt;stroke-linejoin:miter;stroke-opacity:1"
       inkscape:path-effect="#path-effect3060"
       inkscape:original-d="m 413.93563,372.14449 c 5.80942,-7.34329 10.30716,-16.35072 15.694,-22.00453 0.74012,-0.74012 13.97844,-3.79934 16.2963,-1.48148 2.17499,2.17499 3.63437,4.0394 7.4074,5.92592 1.87772,0.93886 6.74344,0 8.88889,0 3.88045,0 24.3478,-8.91104 34.07408,-2.96296 5.3003,3.24138 1.82569,7.34082 7.02278,17.26496 2.37714,4.00665 13.00192,2.38849 17.62109,6.63817 5.36603,4.9368 9.96871,12.48952 9.38746,19.75783 -0.54051,6.75887 -10.32604,10.08098 -11.53845,16.75215 -1.62279,8.92925 11.0929,21.03553 6.56694,26.42271 -3.0723,3.33964 -13.88827,2.92608 -15.53909,9.24923 -2.0688,7.92418 -5.58439,-3.14721 -13.69769,13.02532"
       id="path3058"
       d="m 413.93563,372.14449 c 1.92724,-9.06414 7.75162,-17.23049 15.694,-22.00453 2.4628,-1.48035 5.15293,-2.65674 7.99902,-3.05249 2.84609,-0.39574 5.8664,0.0388 8.29728,1.57101 1.34274,0.84635 2.46486,1.99205 3.6111,3.08996 1.14624,1.0979 2.35353,2.17439 3.7963,2.83596 1.3764,0.63114 2.91635,0.85553 4.4296,0.80173 1.51325,-0.0538 3.00576,-0.37738 4.45929,-0.80173 5.89343,-1.72055 11.21157,-5.08508 17.12782,-6.72545 2.95813,-0.82018 6.08477,-1.19591 9.10902,-0.66946 3.02424,0.52646 5.9432,2.0162 7.83724,4.43195 1.93553,2.46867 2.65934,5.64527 3.37963,8.69844 0.72028,3.05316 1.55556,6.22503 3.64315,8.56652 2.12053,2.37844 5.25966,3.57767 8.35666,4.32749 3.097,0.74982 6.29955,1.14313 9.26443,2.31068 3.79073,1.49276 7.10204,4.30106 8.93656,7.93871 1.83453,3.63766 2.10141,8.09436 0.4509,11.81912 -1.3907,3.13844 -3.96824,5.56056 -6.3302,8.05154 -1.18098,1.24549 -2.32718,2.5348 -3.26492,3.97237 -0.93774,1.43757 -1.66526,3.03454 -1.94333,4.72824 -0.37868,2.30653 0.093,4.68496 0.93025,6.86727 0.83725,2.18231 2.02988,4.2067 3.15703,6.25438 1.12716,2.04768 2.20255,4.15183 2.77595,6.41782 0.5734,2.26598 0.61332,4.73008 -0.29629,6.88324 -0.60486,1.43178 -1.60789,2.67537 -2.79464,3.6791 -1.18674,1.00373 -2.55471,1.77623 -3.97587,2.40562 -2.84232,1.25879 -5.90344,1.95857 -8.76858,3.16451 -5.93592,2.49844 -10.9039,7.22255 -13.69769,13.02532" />
    <path
       style="fill:none;stroke:#000000;stroke-width:3"
       d="m 289.09375,610.08093 c -22.45832,31.7396 -36.375,75.25199 -36.375,123.375 0,36.74185 8.09858,70.84599 21.90625,99.0625"
       id="path3195" />
    <path
       style="fill:none;stroke:#000000;stroke-width:3"
       d="m 320.25,889.17468 c 17.53198,12.86665 37.46913,20.25 58.65625,20.25 17.9677,0 35.03109,-5.31115 50.5,-14.75"
       id="path3193" />
    <path
       style="fill:none;stroke:#000000;stroke-width:3"
       d="m 480.0625,838.29968 c 15.63349,-29.30191 25,-65.50409 25,-104.84375 0,-59.3033 -21.0861,-111.64652 -53.3125,-143.53125 -35.18697,30.13633 -86.89933,29.62476 -120.875,18.84375"
       id="path3085" />
    <path
       style="fill:none;stroke:#000000;stroke-width:3;stroke-linecap:butt;stroke-linejoin:miter;stroke-opacity:1"
       inkscape:path-effect="#path-effect3064"
       inkscape:original-d="m 346.66667,369.47646 c 0,-2.12197 2.74997,-9.05696 0,-11.92909 -7.86239,-8.21167 -25.15941,2.61608 -34.07408,-1.48149 -5.08076,-2.71138 -9.22459,-8.24367 -8.88889,-14.81481 0,-8.09844 -7.17452,-7.40741 -14.81481,-7.40741 -4.63409,0 -7.52635,0.76378 -10.37037,2.96296 -6.21351,4.8047 -6.16438,14.59998 -11.96581,20.29915 -2.30609,2.30608 -24.60493,3.17141 -25.07123,3.40456 -1.46867,0.73434 -3.18733,4.66882 -4.44444,5.92592 -0.74074,0.74074 0.74074,3.70371 0,4.44445 -6.78061,6.78061 5.30901,11.91759 1.48148,19.57265 -1.0243,2.0486 -10.35626,13.43318 -11.1396,14.21652 -3.02481,-0.44351 -4.85898,16.03483 -3.67522,19.54416 0.31233,0.93697 11.49536,10.07085 12.19374,10.76923 8.3083,8.3083 17.00456,-2.91631 25.7841,1.47346"
       id="path3062"
       d="m 346.66667,369.47646 c 1.52433,-1.58244 2.40549,-3.76734 2.40549,-5.96455 0,-2.1972 -0.88116,-4.3821 -2.40549,-5.96454 -1.03155,-1.07088 -2.33589,-1.86275 -3.73415,-2.36846 -1.39826,-0.50572 -2.88927,-0.73093 -4.37604,-0.75105 -2.97353,-0.0402 -5.89452,0.72525 -8.75019,1.5551 -2.85567,0.82986 -5.71764,1.7353 -8.68073,1.98756 -2.96309,0.25225 -6.09071,-0.20792 -8.53297,-1.90464 -2.39147,-1.66144 -3.88628,-4.31731 -5.06511,-6.98 -1.17882,-2.66268 -2.1421,-5.45753 -3.82378,-7.83481 -1.65103,-2.33394 -3.9542,-4.17914 -6.53274,-5.41379 -2.57853,-1.23464 -5.4259,-1.86924 -8.28207,-1.99362 -1.83808,-0.08 -3.69448,0.0495 -5.47502,0.51276 -1.78054,0.46326 -3.48566,1.26794 -4.89535,2.4502 -1.52823,1.28167 -2.67183,2.97092 -3.55663,4.75846 -0.8848,1.78753 -1.52622,3.68333 -2.18855,5.56468 -0.66233,1.88135 -1.35239,3.76384 -2.32527,5.50501 -0.97288,1.74117 -2.24702,3.348 -3.89536,4.471 -1.77471,1.2091 -3.90962,1.80679 -6.04603,2.02413 -2.13642,0.21734 -4.29159,0.0731 -6.43272,-0.0914 -2.14113,-0.16448 -4.29002,-0.34914 -6.43308,-0.212 -2.14306,0.13714 -4.29913,0.61105 -6.1594,1.68386 -2.20429,1.2712 -3.93671,3.43252 -4.44444,5.92592 -0.29693,1.4582 -0.17909,2.96714 0,4.44445 0.79167,6.53054 2.75421,13.11859 1.48148,19.57265 -1.20877,6.12973 -5.47689,11.57676 -11.1396,14.21652 -2.58174,2.42843 -4.36741,5.68985 -5.02244,9.17318 -0.65503,3.48333 -0.17604,7.17062 1.34722,10.37098 2.38151,5.00355 7.11369,8.5556 12.19374,10.76923 8.05914,3.51177 17.37736,4.04427 25.7841,1.47346" />
    <path
       sodipodi:type="arc"
       style="fill:none;stroke:#000000;stroke-width:4.33309937"
       id="path3039"
       sodipodi:cx="-472"
       sodipodi:cy="467.36218"
       sodipodi:rx="108"
       sodipodi:ry="85"
       d="m -365.15315,454.97416 c 8.69301,46.44296 -32.09688,89.63874 -91.10677,96.48045 -59.00989,6.84172 -113.89393,-25.26144 -122.58693,-71.7044 -1.72543,-9.21823 -1.51331,-18.59702 0.62788,-27.76108"
       transform="matrix(0.69234509,0.1993842,0,0.69234509,542.67548,669.71889)"
       sodipodi:start="6.1369229"
       sodipodi:end="9.6066382"
       sodipodi:open="true" />
    <path
       sodipodi:type="arc"
       style="fill:none;stroke:#000000;stroke-width:4.33309926000000001"
       id="path3041"
       sodipodi:cx="-555"
       sodipodi:cy="413.36218"
       sodipodi:rx="41"
       sodipodi:ry="45"
       d="m -514,413.36218 c 0,24.85282 -18.35633,45 -41,45 -22.64367,0 -41,-20.14718 -41,-45 0,-24.85281 18.35633,-45 41,-45 22.64367,0 41,20.14719 41,45 z"
       transform="matrix(0.69234509,0.1993842,0,0.69234509,542.67548,669.71889)" />
    <path
       sodipodi:type="arc"
       style="fill:none;stroke:#000000;stroke-width:4.87654710999999974"
       id="path3043"
       sodipodi:cx="-460"
       sodipodi:cy="368.36218"
       sodipodi:rx="54"
       sodipodi:ry="66"
       d="m -406,368.36218 c 0,36.4508 -24.17662,66 -54,66 -29.82338,0 -54,-29.5492 -54,-66 0,-36.45079 24.17662,-66 54,-66 29.82338,0 54,29.54921 54,66 z"
       transform="matrix(0.66741708,0.19220534,0,0.56704868,525.66984,722.05352)" />
    <path
       d="m -514,413.36218 c 0,24.85282 -18.35633,45 -41,45 -22.64367,0 -41,-20.14718 -41,-45 0,-24.85281 18.35633,-45 41,-45 22.64367,0 41,20.14719 41,45 z"
       sodipodi:ry="45"
       sodipodi:rx="41"
       sodipodi:cy="413.36218"
       sodipodi:cx="-555"
       id="path3047"
       style="fill:none;stroke:#000000;stroke-width:4.33309926000000001"
       sodipodi:type="arc"
       transform="matrix(0.69234509,0.1993842,0,0.69234509,664.52822,704.81051)" />
    <path
       style="fill:none;stroke:#000000;stroke-width:3;stroke-linecap:butt;stroke-linejoin:miter;stroke-opacity:1"
       d="m 621.03534,877.21666 c 3.7747,-10.49116 13.7777,-20.24832 15.2316,-30.69557 1.9756,-14.19624 0.2836,-30.74677 -9.6928,-37.36463 -12.5927,-8.35335 -35.0298,6.68257 -51.2336,5.0616 -17.196,-1.72024 -11.4729,-24.78183 -47.0794,-15.52038 -26.7308,6.95284 -25.8111,25.06036 -40.1561,35.10403 -15.4216,10.79753 -37.1622,10.89656 -48.4641,26.4191 -11.1055,15.25276 -12.0866,35.99602 -8.3081,50.85677 2.5112,9.87667 15.1937,11.87914 19.3856,20.72635 5.7528,12.14133 -2.2087,33.11047 6.9235,42.31624 16.9198,17.05628 48.4606,19.15478 76.1579,11.30028 27.0908,-7.68241 57.2509,-27.67382 74.7733,-53.38135 11.368,-16.6782 5.9152,-36.6261 12.4622,-54.82244 z"
       id="path3213" />
    <path
       style="fill:none;stroke:#000000;stroke-width:3;stroke-linecap:butt;stroke-linejoin:miter;stroke-opacity:1"
       d="m 128.65312,869.21664 c -3.7747,-10.49116 -13.77769,-20.24832 -15.23159,-30.69557 -1.97564,-14.19624 -0.28359,-30.74677 9.69283,-37.36463 12.59267,-8.35335 35.02981,6.68257 51.23353,5.0616 17.19608,-1.72024 11.47292,-24.78183 47.07947,-15.52038 26.73082,6.95284 25.81105,25.06036 40.15602,35.10403 15.42167,10.79753 37.16224,10.89656 48.46415,26.4191 11.10549,15.25276 12.08664,35.99602 8.30814,50.85677 -2.51124,9.87667 -15.19372,11.87914 -19.38566,20.72635 -5.75275,12.14133 2.2087,33.11047 -6.92345,42.31624 -16.91987,17.05628 -48.46058,19.15478 -76.15796,11.30028 -27.0908,-7.68241 -57.25089,-27.67382 -74.77327,-53.38135 -11.36796,-16.6782 -5.9152,-36.6261 -12.46221,-54.82244 z"
       id="path3211" />
    <path
       style="fill:none;stroke:#000000;stroke-width:3;stroke-linecap:butt;stroke-linejoin:miter;stroke-opacity:1"
       d="m 263.93425,550.07361 c -32.11194,-61.03873 -8.66216,-136.55225 52.37656,-168.6642 61.03873,-32.11194 136.55225,-8.66215 168.6642,52.37656 17.70614,33.65603 19.11165,73.54606 3.81819,108.36482"
       id="path3209" />
    <path
       style="fill:none;stroke:#000000;stroke-width:3;stroke-linecap:butt;stroke-linejoin:miter;stroke-opacity:1"
       d="m 250.14285,477.29955 c -39.60124,-23.87742 -52.11469,-74.95487 -27.94959,-114.08466 24.1651,-39.12979 75.85794,-51.49428 115.45917,-27.61685 13.00059,7.83866 23.59979,19.02226 30.66361,32.3543"
       id="path3207" />
    <path
       style="fill:none;stroke:#000000;stroke-width:3;stroke-linecap:butt;stroke-linejoin:miter;stroke-opacity:1"
       d="m 387.85605,367.24938 c 21.91008,-40.40523 72.82125,-55.60996 113.71329,-33.96073 40.89204,21.64924 56.27996,71.95433 34.36989,112.35956 -8.12524,14.98406 -20.71089,27.1416 -36.05545,34.82899"
       id="path3205" />
    <path
       style="fill:none;stroke:#000000;stroke-width:3;stroke-linecap:butt;stroke-linejoin:miter;stroke-opacity:1"
       d="m 287.59375,583.17468 c -9.3918,-9.13016 -17.45192,-20.15537 -23.625,-33.125 -36.62593,44.68782 -59.875,110.20227 -59.875,183.40625 0,19.00251 1.73794,37.40489 4.6875,55.15625 0.38156,0.019 0.69725,7.8e-4 1.09375,0.0312 1.64238,0.1262 3.42554,0.34808 5.34375,0.6875 1.91821,0.33942 3.99334,0.79616 6.21875,1.375 3.34135,0.8691 6.25141,1.9136 8.8125,3.09375 2.56109,1.18015 4.77028,2.49012 6.71875,3.90625 1.94847,1.41613 3.62152,2.92297 5.125,4.5 1.50348,1.57703 2.83637,3.21214 4.0625,4.875 2.45227,3.32572 4.5263,6.75014 6.875,9.96875 1.17435,1.6093 2.41258,3.18633 3.8125,4.65625 1.39992,1.46992 2.95688,2.83829 4.75,4.09375 1.92771,1.34969 3.93881,2.52737 6.03125,3.59375 2.09244,1.06638 4.24578,2.02114 6.4375,2.90625 4.38344,1.77023 8.92471,3.28012 13.3125,4.9375 2.1939,0.82869 4.3407,1.70271 6.4375,2.65625 2.0968,0.95354 4.12826,1.97582 6.0625,3.15625 1.93424,1.18043 3.76253,2.5219 5.46875,4.03125 1.70622,1.50935 3.30601,3.18468 4.71875,5.125 1.38819,1.9066 2.60522,3.91279 3.6875,5.96875 1.08228,2.05596 2.01517,4.18285 2.8125,6.34375 0.79733,2.1609 1.46667,4.37234 2,6.59375 0.53333,2.22141 0.92846,4.45 1.21875,6.6875 0.29029,2.2375 0.46304,4.47834 0.53125,6.6875 0.0682,2.20916 0.0392,4.39485 -0.0937,6.53125 -0.13292,2.1364 -0.3744,4.19954 -0.6875,6.21875 -0.3131,2.01921 -0.71519,3.98616 -1.1875,5.84375 -0.3139,1.23458 -0.77969,2.35774 -1.375,3.375 -0.59531,1.01726 -1.32119,1.92381 -2.125,2.78125 -1.60762,1.71488 -3.55824,3.1732 -5.5625,4.59375 -2.00426,1.42055 -4.05729,2.82006 -5.875,4.40625 -0.90886,0.7931 -1.74713,1.6105 -2.5,2.53125 -0.75287,0.92075 -1.41351,1.92535 -1.9375,3.03125 -0.71909,1.51767 -1.2118,3.18418 -1.5625,4.9375 -0.3507,1.75332 -0.55361,3.59146 -0.65625,5.5 -0.20528,3.81707 -0.0336,7.85716 0.0312,11.8125 0.0144,0.8778 -0.03,1.7285 -0.0312,2.59375 24.49962,18.23276 52.44958,28.59375 82.15625,28.59375 26.45651,0 51.52512,-8.23339 74,-22.90625 0.001,-0.0951 -0.002,-0.18608 0,-0.28125 0.0649,-3.95534 0.23654,-7.99543 0.0312,-11.8125 -0.10264,-1.90854 -0.30555,-3.74668 -0.65625,-5.5 -0.3507,-1.75332 -0.8434,-3.41983 -1.5625,-4.9375 -0.52399,-1.1059 -1.18463,-2.1105 -1.9375,-3.03125 -0.75287,-0.92075 -1.59115,-1.73815 -2.5,-2.53125 -1.81771,-1.58619 -3.87074,-2.9857 -5.875,-4.40625 -2.00426,-1.42055 -3.95488,-2.87887 -5.5625,-4.59375 -0.80381,-0.85744 -1.5297,-1.76399 -2.125,-2.78125 -0.5953,-1.01726 -1.0611,-2.14042 -1.375,-3.375 -0.47231,-1.85759 -0.8744,-3.82454 -1.1875,-5.84375 -0.3131,-2.01921 -0.55457,-4.08235 -0.6875,-6.21875 -0.13293,-2.1364 -0.16195,-4.32209 -0.0937,-6.53125 0.0682,-2.20916 0.24096,-4.45 0.53125,-6.6875 0.29029,-2.2375 0.68542,-4.46609 1.21875,-6.6875 0.53333,-2.22141 1.20267,-4.43285 2,-6.59375 0.79733,-2.1609 1.73022,-4.28779 2.8125,-6.34375 1.08228,-2.05596 2.33056,-4.06215 3.71875,-5.96875 1.41274,-1.94032 2.98128,-3.61565 4.6875,-5.125 1.70622,-1.50935 3.53451,-2.85082 5.46875,-4.03125 1.93424,-1.18043 3.9657,-2.20271 6.0625,-3.15625 2.0968,-0.95354 4.2436,-1.82756 6.4375,-2.65625 4.38779,-1.65738 8.92906,-3.16727 13.3125,-4.9375 2.19172,-0.88511 4.34506,-1.83987 6.4375,-2.90625 2.09244,-1.06638 4.10355,-2.24406 6.03125,-3.59375 1.79312,-1.25546 3.35008,-2.62383 4.75,-4.09375 1.39992,-1.46992 2.66939,-3.04695 3.84375,-4.65625 2.34871,-3.21861 4.39148,-6.64303 6.84375,-9.96875 1.22614,-1.66286 2.55902,-3.29797 4.0625,-4.875 1.50348,-1.57703 3.17653,-3.08387 5.125,-4.5 1.94847,-1.41613 4.15766,-2.7261 6.71875,-3.90625 2.56109,-1.18015 5.47115,-2.22465 8.8125,-3.09375 2.22541,-0.57884 4.30055,-1.03558 6.21875,-1.375 1.9182,-0.33942 3.70138,-0.5613 5.34375,-0.6875 1.64237,-0.1262 3.13333,-0.15457 4.53125,-0.0937 1.13812,0.0495 2.16131,0.18603 3.15625,0.34375 3.91067,-20.25947 6.1875,-41.45422 6.1875,-63.4375 0,-76.93232 -25.5905,-145.44378 -65.5,-190.125 -8.57117,19.42033 -21.38426,35.04104 -36.6875,46.78125"
       id="path3203" />
    <path
       style="fill:none;stroke:#000000;stroke-width:3;stroke-linecap:butt;stroke-linejoin:miter;stroke-opacity:1"
       d="m 137.59375,540.20593 c -12.31062,-0.52378 -23.54574,1.80264 -32.46875,7.34375 -28.553621,17.73156 -22.705006,61.60101 13.0625,98 26.19932,26.66188 61.15392,41.84165 89.21875,41.125 0.30239,-2.15696 0.56319,-4.33271 0.90625,-6.46875 3.97867,-24.93178 10.86503,-49.10096 20.625,-71.78125 1.57531,-3.65377 3.19992,-7.2549 4.90625,-10.78125 0.19028,-0.39323 0.40188,-0.76465 0.59375,-1.15625 -3.7403,-5.13039 -7.99055,-10.21737 -12.84375,-15.15625 -24.59016,-25.0243 -56.91664,-39.97269 -84,-41.125 z"
       id="path3201" />
    <path
       style="fill:none;stroke:#000000;stroke-width:3;stroke-linecap:butt;stroke-linejoin:miter;stroke-opacity:1"
       d="m 524.5,598.86218 c 0.63614,1.33388 1.31983,2.6166 1.9375,3.96875 10.97809,24.02147 18.32111,49.32989 22.625,74.75 0.72797,4.32049 1.3771,8.68764 1.9375,13.09375 27.95861,0.47844 62.58714,-14.65923 88.59375,-41.125 35.76751,-36.39899 41.61612,-80.26844 13.0625,-98 -28.55362,-17.73156 -80.70124,-2.61774 -116.46875,33.78125 -4.344,4.42069 -8.23418,8.95007 -11.6875,13.53125 z"
       id="path3090" />
    <path
       transform="matrix(-0.69234509,0.1993842,0,0.69234509,207.01299,677.71891)"
       d="m -365.14799,455.00176 c 8.67364,46.44521 -32.13426,89.63044 -91.147,96.45691 -59.01274,6.82648 -113.88338,-25.29085 -122.55702,-71.73606 -1.83634,-9.83315 -1.46727,-19.84357 1.09043,-29.57637"
       sodipodi:ry="85"
       sodipodi:rx="108"
       sodipodi:cy="467.36218"
       sodipodi:cx="-472"
       id="path3092"
       style="fill:none;stroke:#000000;stroke-width:4.33309937"
       sodipodi:type="arc"
       sodipodi:start="6.1372511"
       sodipodi:end="9.6287294"
       sodipodi:open="true" />
    <path
       transform="matrix(-0.69234509,0.1993842,0,0.69234509,207.01299,677.71891)"
       d="m -514,413.36218 c 0,24.85282 -18.35633,45 -41,45 -22.64367,0 -41,-20.14718 -41,-45 0,-24.85281 18.35633,-45 41,-45 22.64367,0 41,20.14719 41,45 z"
       sodipodi:ry="45"
       sodipodi:rx="41"
       sodipodi:cy="413.36218"
       sodipodi:cx="-555"
       id="path3094"
       style="fill:none;stroke:#000000;stroke-width:4.33309926000000001"
       sodipodi:type="arc" />
    <path
       transform="matrix(-0.66741708,0.19220534,0,0.56704868,224.01863,730.05354)"
       d="m -406,368.36218 c 0,36.4508 -24.17662,66 -54,66 -29.82338,0 -54,-29.5492 -54,-66 0,-36.45079 24.17662,-66 54,-66 29.82338,0 54,29.54921 54,66 z"
       sodipodi:ry="66"
       sodipodi:rx="54"
       sodipodi:cy="368.36218"
       sodipodi:cx="-460"
       id="path3096"
       style="fill:none;stroke:#000000;stroke-width:4.87654710999999974"
       sodipodi:type="arc" />
    <path
       transform="matrix(-0.69234509,0.1993842,0,0.69234509,85.160248,712.81053)"
       sodipodi:type="arc"
       style="fill:none;stroke:#000000;stroke-width:4.33309926000000001"
       id="path3098"
       sodipodi:cx="-555"
       sodipodi:cy="413.36218"
       sodipodi:rx="41"
       sodipodi:ry="45"
       d="m -514,413.36218 c 0,24.85282 -18.35633,45 -41,45 -22.64367,0 -41,-20.14718 -41,-45 0,-24.85281 18.35633,-45 41,-45 22.64367,0 41,20.14719 41,45 z" />
    <path
       sodipodi:type="arc"
       style="fill:none;stroke:#000000;stroke-width:7.68125009999999975"
       id="path3100"
       sodipodi:cx="-469"
       sodipodi:cy="299.36218"
       sodipodi:rx="107"
       sodipodi:ry="73"
       d="m -362,299.36218 c 0,40.31679 -47.90553,73 -107,73 -59.09447,0 -107,-32.68321 -107,-73 0,-40.31678 47.90553,-73 107,-73 59.09447,0 107,32.68322 107,73 z"
       transform="matrix(0.34414234,0,0,0.44324167,481.55993,331.62195)" />
    <path
       sodipodi:type="arc"
       style="fill:none;stroke:#000000;stroke-width:5.41402339999999960"
       id="path3102"
       sodipodi:cx="-460"
       sodipodi:cy="302.36218"
       sodipodi:rx="34"
       sodipodi:ry="68"
       d="m -426,302.36218 c 0,37.55537 -15.22232,68 -34,68 -18.77768,0 -34,-30.44463 -34,-68 0,-37.55536 15.22232,-68 34,-68 18.77768,0 34,30.44464 34,68 z"
       transform="matrix(0.69272622,0,0,0.44324167,640.63686,330.86814)" />
    <path
       transform="matrix(-0.34414234,0,0,0.44324167,262.75442,331.62195)"
       d="m -362,299.36218 c 0,40.31679 -47.90553,73 -107,73 -59.09447,0 -107,-32.68321 -107,-73 0,-40.31678 47.90553,-73 107,-73 59.09447,0 107,32.68322 107,73 z"
       sodipodi:ry="73"
       sodipodi:rx="107"
       sodipodi:cy="299.36218"
       sodipodi:cx="-469"
       id="path3066"
       style="fill:none;stroke:#000000;stroke-width:7.68125009999999975"
       sodipodi:type="arc" />
    <path
       transform="matrix(-0.69272622,0,0,0.44324167,103.67749,330.86814)"
       d="m -426,302.36218 c 0,37.55537 -15.22232,68 -34,68 -18.77768,0 -34,-30.44463 -34,-68 0,-37.55536 15.22232,-68 34,-68 18.77768,0 34,30.44464 34,68 z"
       sodipodi:ry="68"
       sodipodi:rx="34"
       sodipodi:cy="302.36218"
       sodipodi:cx="-460"
       id="path3068"
       style="fill:none;stroke:#000000;stroke-width:5.41402339999999960"
       sodipodi:type="arc" />
    <path
       style="fill:none;stroke:#000000;stroke-width:3;stroke-linecap:butt;stroke-linejoin:miter;stroke-opacity:1"
       d="m 354.07407,504.3702 c 6.81773,-12.02962 34.99757,-12.36895 41.48149,-0.15617 6.16595,11.61385 -22.22223,32.59259 -22.22223,32.59259 0,0 -25.45925,-21.49678 -19.25926,-32.43642 z"
       id="path3070" />
    <path
       sodipodi:type="star"
       style="fill:none;fill-opacity:1;stroke:#000000;stroke-width:3"
       id="path3118"
       sodipodi:sides="8"
       sodipodi:cx="74.558151"
       sodipodi:cy="170.13893"
       sodipodi:r1="23.773533"
       sodipodi:r2="11.886766"
       sodipodi:arg1="0.90115738"
       sodipodi:arg2="1.2938565"
       inkscape:flatsided="false"
       inkscape:rounded="0"
       inkscape:randomized="0"
       d="m 89.314453,188.77847 -11.506301,-7.2057 -5.995864,12.18059 -3.040985,-13.23138 -12.852691,4.37325 7.205699,-11.5063 -12.180585,-5.99586 13.231381,-3.04099 -4.373258,-12.85269 11.506301,7.2057 5.995865,-12.18058 3.040985,13.23138 12.85269,-4.37326 -7.205698,11.5063 12.180585,5.99586 -13.231382,3.04099 z"
       transform="translate(220.56787,362.64612)"
       inkscape:transform-center-x="0.30347097"
       inkscape:transform-center-y="-1.9796145" />
    <path
       inkscape:transform-center-y="-1.9796145"
       inkscape:transform-center-x="0.30347097"
       transform="translate(377.45065,361.86947)"
       d="m 89.314453,188.77847 -11.506301,-7.2057 -5.995864,12.18059 -3.040985,-13.23138 -12.852691,4.37325 7.205699,-11.5063 -12.180585,-5.99586 13.231381,-3.04099 -4.373258,-12.85269 11.506301,7.2057 5.995865,-12.18058 3.040985,13.23138 12.85269,-4.37326 -7.205698,11.5063 12.180585,5.99586 -13.231382,3.04099 z"
       inkscape:randomized="0"
       inkscape:rounded="0"
       inkscape:flatsided="false"
       sodipodi:arg2="1.2938565"
       sodipodi:arg1="0.90115738"
       sodipodi:r2="11.886766"
       sodipodi:r1="23.773533"
       sodipodi:cy="170.13893"
       sodipodi:cx="74.558151"
       sodipodi:sides="8"
       id="path3120"
       style="fill:none;fill-opacity:1;stroke:#000000;stroke-width:3"
       sodipodi:type="star" />
    <path
       style="fill:none;stroke:#000000;stroke-width:3;stroke-linecap:butt;stroke-linejoin:miter;stroke-opacity:1"
       d="m 305.99909,562.29765 c 0,0 -3.09052,3.90554 -8.54312,9.31977 -4.382,4.35116 -8.79099,9.49719 -10.09642,15.53294 -1.82658,8.44536 -2.60235,19.91994 3.88324,25.62937 8.35781,7.35759 23.27592,5.42147 33.39584,0.77664 11.13003,-5.10844 23.29942,-28.406 23.29942,-28.406 0,0 -17.80128,-1.28242 -25.34295,-5.50818 -6.98067,-3.91142 -16.59601,-17.34454 -16.59601,-17.34454 z"
       id="path3122" />
    <path
       style="fill:none;stroke:#000000;stroke-width:3;stroke-linecap:butt;stroke-linejoin:miter;stroke-opacity:1"
       d="m 299.4034,544.06989 c 0,0 5.38459,21.46938 13.33333,28.14815 11.37395,9.55674 28.21822,13.66578 42.96297,11.85185 6.97841,-0.8585 18.3677,-10.37037 18.3677,-10.37037 l -0.58993,-37.03704 0,37.03704 c 0,0 14.27306,12.2011 22.983,12.45513 14.88309,0.43408 30.46366,-7.9099 40.44578,-18.95762 5.51054,-6.09881 8.15482,-23.27128 8.15482,-23.27128"
       id="path3072" />
    <path
       style="fill:none;stroke:#000000;stroke-width:3;stroke-linecap:butt;stroke-linejoin:miter;stroke-opacity:1"
       inkscape:path-effect="#path-effect3137"
       inkscape:original-d="m 305.80487,598.32872 c -0.57642,-6.80224 4.85274,-8.90997 8.26572,-12.5927 2.35703,-2.54331 5.71467,-5.82446 8.2381,-6.35213"
       id="path3135"
       d="m 305.80487,598.32872 c 1.89121,-4.68657 4.71814,-8.99336 8.26572,-12.5927 2.44161,-2.47724 5.22144,-4.62067 8.2381,-6.35213" />
    <rect
       style="fill:none;stroke:#000000;stroke-width:3"
       id="rect3281"
       width="121.70987"
       height="179.83995"
       x="650.33032"
       y="300.3042" />
    <path
       style="fill:none;stroke:#000000;stroke-width:3"
       d="m 557.65625,267.42468 0,100.09375 92.6875,0 0,-67.21875 14.46875,0 0,-32.875 -107.15625,0 z"
       id="path3283" />
  </g>
</svg>
