<?xml version="1.0" encoding="UTF-8" standalone="no"?>
<!-- Created with Inkscape (http://www.inkscape.org/) -->

<svg
   xmlns:dc="http://purl.org/dc/elements/1.1/"
   xmlns:cc="http://creativecommons.org/ns#"
   xmlns:rdf="http://www.w3.org/1999/02/22-rdf-syntax-ns#"
   xmlns:svg="http://www.w3.org/2000/svg"
   xmlns="http://www.w3.org/2000/svg"
   xmlns:sodipodi="http://sodipodi.sourceforge.net/DTD/sodipodi-0.dtd"
   xmlns:inkscape="http://www.inkscape.org/namespaces/inkscape"
   width="800"
   height="800"
   viewBox="0 0 211.66667 211.66667"
   version="1.1"
   id="svg3979"
   inkscape:version="0.48.4 r9939"
   sodipodi:docname="svg6.svg">
  <defs
     id="defs3973">
    <inkscape:path-effect
       effect="skeletal"
       id="path-effect3035"
       is_visible="true"
       pattern="M 0,0 0,10 10,5 z"
       copytype="single_stretched"
       prop_scale="1"
       scale_y_rel="false"
       spacing="0"
       normal_offset="0"
       tang_offset="0"
       prop_units="false"
       vertical_pattern="false"
       fuse_tolerance="0" />
    <inkscape:path-effect
       effect="spiro"
       id="path-effect3033"
       is_visible="true" />
    <inkscape:path-effect
       effect="skeletal"
       id="path-effect3029"
       is_visible="true"
       pattern="M 0,5 10,10 10,0 z"
       copytype="single_stretched"
       prop_scale="1"
       scale_y_rel="false"
       spacing="0"
       normal_offset="0"
       tang_offset="0"
       prop_units="false"
       vertical_pattern="false"
       fuse_tolerance="0" />
    <inkscape:path-effect
       effect="spiro"
       id="path-effect3027"
       is_visible="true" />
    <inkscape:path-effect
       effect="skeletal"
       id="path-effect3023"
       is_visible="true"
       pattern="M 0,5 10,10 10,0 z"
       copytype="single_stretched"
       prop_scale="1"
       scale_y_rel="false"
       spacing="0"
       normal_offset="0"
       tang_offset="0"
       prop_units="false"
       vertical_pattern="false"
       fuse_tolerance="0" />
    <inkscape:path-effect
       effect="spiro"
       id="path-effect3021"
       is_visible="true" />
    <inkscape:path-effect
       effect="skeletal"
       id="path-effect3017"
       is_visible="true"
       pattern="M 0,5 10,10 10,0 z"
       copytype="single_stretched"
       prop_scale="1"
       scale_y_rel="false"
       spacing="0"
       normal_offset="0"
       tang_offset="0"
       prop_units="false"
       vertical_pattern="false"
       fuse_tolerance="0" />
    <inkscape:path-effect
       effect="spiro"
       id="path-effect3015"
       is_visible="true" />
  </defs>
  <sodipodi:namedview
     id="base"
     pagecolor="#ffffff"
     bordercolor="#666666"
     borderopacity="1.0"
     inkscape:pageopacity="0.0"
     inkscape:pageshadow="2"
     inkscape:zoom="0.675"
     inkscape:cx="400"
     inkscape:cy="400"
     inkscape:document-units="mm"
     inkscape:current-layer="layer7"
     showgrid="false"
     units="px"
     showguides="true"
     inkscape:guide-bbox="true"
     inkscape:window-width="1366"
     inkscape:window-height="718"
     inkscape:window-x="0"
     inkscape:window-y="0"
     inkscape:window-maximized="1" />
  <metadata
     id="metadata3976">
    <rdf:RDF>
      <cc:Work
         rdf:about="">
        <dc:format>image/svg+xml</dc:format>
        <dc:type
           rdf:resource="http://purl.org/dc/dcmitype/StillImage" />
        <dc:title />
      </cc:Work>
    </rdf:RDF>
  </metadata>
  <g
     inkscape:groupmode="layer"
     id="layer2"
     inkscape:label="background"
     style="display:inline"
     sodipodi:insensitive="true">
    <path
       style="fill:#ffffff;fill-opacity:1;stroke:#000000;stroke-width:1"
       d="m 0,-1.5 0,803 801.5,0 0,-803 -801.5,0 z m 70.1875,37.875 c 0,0 115.90158,96.4258 186.34375,116.65625 92.71628,26.62749 186.62986,26.89053 278.8125,-1.53125 65.99531,-20.34762 181.8125,-115.125 181.8125,-115.125 0,0 -75.33387,164.3406 -31.8125,227.25 34.05902,49.23179 78.78125,153.32529 78.78125,236.375 0,76.37979 -66.60552,134.69132 -124.25,178.78125 -43.01408,32.89977 -99.70892,45.1107 -153.03125,54.5625 -58.68333,10.40209 -119.78882,9.97268 -178.78125,1.5 C 245.90963,725.91715 176.15498,720.30837 127.75,680.3125 74.982063,636.71164 39.896693,566.49794 32.3125,498.46875 23.218078,416.89294 59.45922,323.57599 95.9375,260.59375 129.37408,202.86321 70.1875,36.375 70.1875,36.375 z"
       id="rect3174"
       inkscape:connector-curvature="0"
       transform="scale(0.26458334,0.26458334)" />
  </g>
  <g
     inkscape:groupmode="layer"
     id="layer3"
     inkscape:label="body"
     style="display:inline">
    <path
       style="opacity:0.99120028999999998;fill:none;fill-opacity:1;fill-rule:evenodd;stroke:#000000;stroke-width:0.79375001;stroke-linecap:butt;stroke-opacity:1;display:inline"
       d="m 67.877823,40.489514 c 24.531182,7.04519 49.372247,7.11892 73.762237,-0.40101 17.46126,-5.38364 48.10611,-30.467385 48.10611,-30.467385 0,0 -19.93364,43.487985 -8.41861,60.132765 9.01145,13.02591 20.84576,40.564206 20.84576,62.537776 0,20.20882 -17.62065,35.63863 -32.87242,47.30409 -11.38081,8.70473 -26.3808,11.9314 -40.489,14.43219 -15.52663,2.75222 -31.696082,2.64223 -47.304495,0.4005 C 65.062791,192.06661 46.609571,190.579 33.802421,179.99676 19.840904,168.4607 10.553251,149.89004 8.5465999,131.89065 6.1403674,110.30705 15.732269,85.615914 25.383814,68.951864 34.230577,53.677324 18.568726,9.621119 18.568726,9.621119 c 0,0 30.671272,25.515755 49.309097,30.868395 z"
       id="rect4070" />
  </g>
  <g
     inkscape:label="belly"
     inkscape:groupmode="layer"
     id="layer1"
     transform="translate(0,-85.333317)"
     style="display:inline">
    <path
       style="opacity:0.99120028999999998;fill:none;stroke:#000000;stroke-width:0.79375001;stroke-linecap:butt;stroke-opacity:1;display:inline"
       d="m 29.18685,260.91744 c -5.40032,-5.28924 3.223657,3.25881 4.613672,4.41523 12.807151,10.58224 31.263069,12.06623 47.707683,14.42806 15.608414,2.24173 31.775905,2.35535 47.302545,-0.39687 14.1082,-2.50079 29.10871,-5.7316 40.48951,-14.43633 1.09924,-0.81428 9.27755,-7.32839 5.48184,-4.40697"
       id="path3048" />
    <path
       style="opacity:0.99120028999999998;fill:none;stroke:#000000;stroke-width:0.79375001;stroke-linecap:butt;stroke-opacity:1;display:inline"
       d="m 149.13405,203.18866 c -11.46147,-3.88939 -24.57665,-6.29836 -37.99251,-6.97839 l -6.11022,10.63295 -6.234247,-10.74043 c -13.738694,0.40854 -27.287774,2.6267 -39.191407,6.41614"
       id="path3062" />
    <path
       style="opacity:0.99120028999999998;fill:none;stroke:#000000;stroke-width:0.79375001;stroke-linecap:butt;stroke-opacity:1;display:inline"
       d="m 15.841927,241.88397 a 87.593664,48.106604 0 0 0 -0.01654,0.0909 c 0.27431,0.56317 0.572202,1.1139 0.859896,1.67018 -0.299079,-0.57805 -0.558763,-1.17564 -0.84336,-1.76113 z"
       id="path3060" />
  </g>
  <g
     inkscape:groupmode="layer"
     id="layer4"
     inkscape:label="wings"
     style="display:inline">
    <path
       style="opacity:0.99120028999999998;fill:none;fill-opacity:1;fill-rule:evenodd;stroke:#000000;stroke-width:0.79375001;stroke-linecap:butt;stroke-opacity:1;display:inline"
       d="m 182.75371,71.906724 c -21.83104,26.759417 -47.85992,50.095206 -31.16451,77.605606 11.07229,18.2447 23.196,25.67388 23.196,25.67388 l 2.20969,-1.71411 c 12.91834,-10.7953 25.1783,-24.32409 25.1783,-41.18043 0,-20.83244 -10.63552,-46.657793 -19.41948,-60.384946 z"
       id="path3078" />
    <path
       style="opacity:0.99120028999999998;fill:none;fill-opacity:1;fill-rule:evenodd;stroke:#000000;stroke-width:0.79375001;stroke-linecap:butt;stroke-opacity:1;display:inline"
       d="M 25.181409,69.753884 24.646558,70.24481 C 15.251493,86.875844 6.2018541,110.8571 8.5467653,131.89066 10.192148,146.64953 16.73556,161.78934 26.734286,173.12329 l 2.455665,2.46393 c 0,0 16.533775,-9.43371 27.606067,-27.67842 C 73.605873,120.20981 47.101909,96.744385 25.181409,69.753884 z"
       id="path4086" />
    <path
       style="fill:none;stroke:#000000;stroke-width:0.79375001;stroke-linecap:butt;stroke-linejoin:miter;stroke-opacity:1;display:inline"
       d="m 17.809766,160.43672 c 3.057082,-2.41853 6.110222,-7.44967 6.110222,-7.44967 0,0 -2.4653,7.91691 1.39733,8.87181 5.452878,1.34804 11.988933,-9.07852 11.988933,-9.07852 0,0 -1.735516,7.86033 1.976107,9.64903 3.711596,1.78871 7.56543,-9.77305 7.56543,-9.77305 0,0 -0.972556,5.23652 0.545703,7.73079"
       id="path3051" />
    <path
       style="fill:none;stroke:#000000;stroke-width:0.79375001;stroke-linecap:butt;stroke-linejoin:miter;stroke-opacity:1;display:inline"
       d="m 8.1690106,124.96602 c 0.8886542,6.79936 2.1886844,15.59387 5.5562504,16.48685 3.658938,0.97021 8.119401,-14.55209 8.119401,-14.55209 0,0 0.362778,23.20926 5.035352,18.44642 4.672576,-4.76283 6.986654,-18.11569 6.986654,-18.11569 0,0 2.359736,17.44361 6.110221,18.49603 4.686229,1.315 10.732162,-17.95859 10.732162,-17.95859 0,0 0.614717,20.39572 4.373893,20.07526 0.95141,-0.0811 1.82081,-0.61351 2.612761,-1.49655"
       id="path3041" />
    <path
       style="fill:none;stroke:#000000;stroke-width:0.79375001;stroke-linecap:butt;stroke-linejoin:miter;stroke-opacity:1;display:inline"
       d="m 8.8387372,115.07722 c 0.8502722,4.01948 2.1393308,7.82654 4.5061848,8.3261 3.452313,0.72865 7.656381,-10.9306 7.656381,-10.9306 0,0 0.345525,17.43453 4.754232,13.85756 4.408709,-3.57696 6.589778,-13.60951 6.589778,-13.60951 0,0 2.224265,13.10025 5.762956,13.89063 4.42159,0.98759 10.128581,-13.48549 10.128581,-13.48549 0,0 0.587224,15.31366 4.134115,15.07299 3.425997,-0.23248 5.744742,-5.3309 7.011458,-11.6334"
       id="path3039" />
    <path
       style="fill:none;stroke:#000000;stroke-width:0.79375001;stroke-linecap:butt;stroke-linejoin:miter;stroke-opacity:1;display:inline"
       d="m 160.70959,162.20611 c 2.94466,-1.50699 1.5875,-8.74779 1.5875,-8.74779 0,0 3.8621,11.56176 7.5737,9.77305 3.71163,-1.7887 1.9761,-9.64902 1.9761,-9.64902 0,0 6.53607,10.42655 11.98894,9.07851 3.86263,-0.9549 1.38906,-8.88008 1.38906,-8.88008 0,0 2.46335,4.05855 5.17591,6.63939"
       id="path3053" />
    <path
       style="opacity:0.99120028999999998;fill:none;stroke:#000000;stroke-width:0.79375001;stroke-linecap:butt;stroke-opacity:1;display:inline"
       d="m 146.28978,130.86127 c 0.27921,8.45503 3.05063,18.2875 8.47494,18.58698 3.69221,0.20384 4.29948,-12.76615 4.29948,-12.76615 0,0 5.93924,12.2549 10.54199,11.41842 3.68367,-0.66944 6.00273,-11.76569 6.00273,-11.76569 0,0 2.26502,8.49629 6.85437,11.52592 4.58932,3.02965 4.95267,-11.73262 4.95267,-11.73262 0,0 4.37681,9.87757 7.97057,9.26042 3.60134,-0.61847 4.80426,-7.21958 5.68854,-11.62514 1.60018,-6.54312 0.21344,-13.60688 -1.07487,-19.50475"
       id="path3081" />
    <path
       style="fill:none;stroke:#000000;stroke-width:0.79375001;stroke-linecap:butt;stroke-linejoin:miter;stroke-opacity:1;display:inline"
       d="m 148.62969,119.16172 c 1.05298,7.77868 3.56045,14.783 7.59024,15.05645 3.54689,0.24067 4.13411,-15.08125 4.13411,-15.08125 0,0 5.70699,14.47307 10.12858,13.48548 3.53869,-0.79038 5.76296,-13.89063 5.76296,-13.89063 0,0 2.18107,10.03255 6.58978,13.60951 4.4087,3.57697 4.75423,-13.84928 4.75423,-13.84928 0,0 4.20406,11.65098 7.65638,10.92233 3.22687,-0.6811 4.44404,-7.48134 5.2834,-12.61732"
       id="path3045" />
    <path
       style="fill:none;stroke:#000000;stroke-width:0.79375001;stroke-linecap:butt;stroke-linejoin:miter;stroke-opacity:1;display:inline"
       d="m 157.26172,103.27018 c 0.93806,4.21726 2.55455,7.53888 4.89479,7.69773 2.55118,0.17315 2.9683,-10.84792 2.9683,-10.84792 0,0 4.10399,10.40918 7.28431,9.69863 2.54527,-0.56866 4.15065,-9.996287 4.15065,-9.996287 0,0 1.56664,7.224317 4.7377,9.797857 3.17105,2.57354 3.42304,-9.97149 3.42304,-9.97149 0,0 3.02349,8.38734 5.50664,7.86309 2.48838,-0.52536 4.19298,-6.12996 4.80398,-9.872269"
       id="path3047" />
    <path
       style="fill:none;stroke:#000000;stroke-width:0.79375001;stroke-linecap:butt;stroke-linejoin:miter;stroke-opacity:1;display:inline"
       d="m 12.873633,97.193036 c 0.621601,3.387004 1.570008,7.060394 3.604948,7.482744 2.548327,0.52889 5.655469,-7.929228 5.655469,-7.929228 0,0 0.25144,12.650508 3.505729,10.054168 3.254291,-2.59634 4.861719,-9.880535 4.861719,-9.880535 0,0 1.646052,9.513545 4.258138,10.087235 3.2638,0.71685 7.47448,-9.789579 7.47448,-9.789579 0,0 0.432837,11.113559 3.050976,10.938869 2.384883,-0.15913 4.036529,-3.46078 5.002279,-7.67292"
       id="path3037" />
  </g>
  <g
     inkscape:groupmode="layer"
     id="layer6"
     inkscape:label="nose"
     style="display:inline">
    <path
       style="opacity:0.99120028999999998;fill:none;stroke:#000000;stroke-width:0.79375001;stroke-linecap:butt;stroke-opacity:1;display:inline"
       d="m 105.38685,73.347463 -0.80202,0 c 0.003,0.183121 0.0248,0.361815 0.0248,0.545703 0,1.064699 -0.0601,2.113277 -0.16537,3.150195 -0.1053,1.036918 -0.25758,2.063547 -0.46302,3.067513 -0.20544,1.003967 -0.46026,1.985913 -0.76067,2.951758 -0.30042,0.965846 -0.64332,1.913443 -1.03353,2.836003 -0.39021,0.92256 -0.83154,1.821339 -1.30638,2.695443 -0.47485,0.874104 -0.983589,1.726134 -1.537894,2.546614 -0.554305,0.820481 -1.149067,1.611292 -1.777669,2.372982 -0.628603,0.761691 -1.294914,1.493351 -1.992644,2.191081 -0.69773,0.69773 -1.42939,1.355773 -2.19108,1.984375 -0.485561,0.400719 -1.003253,0.761839 -1.513086,1.132747 L 105.03132,121.5099 118.07858,98.813609 c -0.5047,-0.36763 -1.01566,-0.727615 -1.49655,-1.124479 -0.76169,-0.628602 -1.49335,-1.286645 -2.19108,-1.984375 -0.69773,-0.69773 -1.35577,-1.42939 -1.98437,-2.191081 -0.6286,-0.76169 -1.22337,-1.552501 -1.77767,-2.372982 -0.55431,-0.82048 -1.07132,-1.67251 -1.54616,-2.546614 -0.47484,-0.874104 -0.9079,-1.772883 -1.29811,-2.695443 -0.39021,-0.92256 -0.74139,-1.870157 -1.0418,-2.836003 -0.30041,-0.965845 -0.55523,-1.947791 -0.76068,-2.951758 -0.20544,-1.003966 -0.35771,-2.030595 -0.46302,-3.067513 -0.1053,-1.036918 -0.15709,-2.085496 -0.15709,-3.150195 0,-0.183915 0.0216,-0.362553 0.0248,-0.545703 z"
       id="path3043" />
  </g>
  <g
     inkscape:groupmode="layer"
     id="layer5"
     inkscape:label="eyes"
     style="display:inline">
    <circle
       transform="translate(0,-85.333317)"
       r="30.844944"
       cy="159.22423"
       cx="136.20416"
       id="circle4062"
       style="opacity:0.99120028999999998;fill:none;fill-opacity:1;fill-rule:evenodd;stroke:#000000;stroke-width:0.79375001;stroke-linecap:butt;stroke-opacity:1;display:inline"
       d="m 167.04911,159.22423 c 0,17.03519 -13.80976,30.84494 -30.84495,30.84494 -17.03519,0 -30.84494,-13.80975 -30.84494,-30.84494 0,-17.03519 13.80975,-30.84495 30.84494,-30.84495 17.03519,0 30.84495,13.80976 30.84495,30.84495 z"
       sodipodi:cx="136.20416"
       sodipodi:cy="159.22423"
       sodipodi:rx="30.844944"
       sodipodi:ry="30.844944" />
    <circle
       transform="translate(0,-85.333317)"
       style="opacity:0.99120028999999998;fill:none;fill-opacity:1;fill-rule:evenodd;stroke:#000000;stroke-width:0.79375001;stroke-linecap:butt;stroke-opacity:1;display:inline"
       id="path4058"
       cx="73.762627"
       cy="159.22423"
       r="30.844944"
       d="m 104.60757,159.22423 c 0,17.03519 -13.809751,30.84494 -30.844943,30.84494 -17.035193,0 -30.844944,-13.80975 -30.844944,-30.84494 0,-17.03519 13.809751,-30.84495 30.844944,-30.84495 17.035192,0 30.844943,13.80976 30.844943,30.84495 z"
       sodipodi:cx="73.762627"
       sodipodi:cy="159.22423"
       sodipodi:rx="30.844944"
       sodipodi:ry="30.844944" />
  </g>
  <g
     inkscape:groupmode="layer"
     id="layer7"
     inkscape:label="decorations"
     style="display:inline">
    <path
       style="fill:none;stroke:#000000;stroke-width:0.79375001;display:inline"
       d="m 67.749871,73.521096 c 0.220687,-0.486172 0.467601,-0.960978 0.768946,-1.397331 0.33139,-0.479862 0.71561,-0.923116 1.132747,-1.331185 0.148471,-0.145243 0.329555,-0.253497 0.487826,-0.388607 -0.553048,-35.919517 -37.573049,8.655167 -2.389519,3.117123 z"
       id="path3084" />
    <path
       style="fill:none;stroke:#000000;stroke-width:0.79375001;display:inline"
       d="m 69.114129,82.913804 c -0.198442,-0.23295 -0.421314,-0.45085 -0.595312,-0.702799 -0.331391,-0.479862 -0.610074,-0.990061 -0.84336,-1.529623 -0.233285,-0.539562 -0.414612,-1.107813 -0.537434,-1.694987 -0.04636,-0.221612 -0.04501,-0.459055 -0.07442,-0.686263 -33.106069,-10.304537 -4.165872,37.880388 2.050521,4.613672 z"
       id="path3079" />
    <path
       style="fill:none;stroke:#000000;stroke-width:0.79375001;display:inline"
       d="m 81.094794,84.774156 c -0.426456,0.264903 -0.869321,0.516541 -1.339453,0.711068 -0.551554,0.228216 -1.12784,0.400745 -1.72806,0.520898 -0.600221,0.120153 -1.22382,0.181901 -1.860352,0.181901 -0.636532,0 -1.260131,-0.06175 -1.860352,-0.181901 -0.60022,-0.120153 -1.176506,-0.292682 -1.72806,-0.520898 -0.04375,-0.01811 -0.08062,-0.0474 -0.124023,-0.06615 -16.173591,25.890092 31.269926,14.585942 8.6403,-0.644922 z"
       id="path3075" />
    <path
       style="fill:none;stroke:#000000;stroke-width:0.79375001;display:inline"
       d="m 83.872919,72.222984 c 0.304107,0.452503 0.575701,0.934357 0.79375,1.438672 0.233286,0.539562 0.414612,1.099544 0.537435,1.686718 0.122822,0.587174 0.181901,1.196317 0.181901,1.819011 0,0.622694 -0.05908,1.231836 -0.181901,1.81901 -0.122823,0.587174 -0.304149,1.155425 -0.537435,1.694987 -0.233286,0.539562 -0.520237,1.049761 -0.851628,1.529623 -0.09007,0.130423 -0.209187,0.238358 -0.305924,0.363802 17.762543,18.981863 21.042813,-27.281038 0.363802,-10.351823 z"
       id="path3073" />
    <path
       style="fill:none;stroke:#000000;stroke-width:0.79375001;display:inline"
       d="m 78.688739,52.585939 c -5.561439,-0.290997 -10.004767,3.739639 -4.431771,15.767513 0.01735,-0.0036 0.03223,-0.01306 0.04961,-0.01654 0.600221,-0.120153 1.22382,-0.190169 1.860352,-0.190169 0.636532,0 1.260131,0.07002 1.860352,0.190169 0.60022,0.120152 1.176506,0.292682 1.72806,0.520898 0.551553,0.228217 1.080439,0.510903 1.570963,0.835091 0.0098,0.0065 0.01507,0.01832 0.02481,0.02481 16.001982,-6.973999 5.53879,-16.702651 -2.66237,-17.131771 z"
       id="path3008" />
    <path
       style="fill:none;stroke:#000000;stroke-width:0.79375001;display:inline"
       d="m 124.03171,82.773244 c -0.15545,-0.190026 -0.33996,-0.360095 -0.47956,-0.562239 -0.33139,-0.479862 -0.61007,-0.990061 -0.84336,-1.529623 -0.23328,-0.539562 -0.41461,-1.107813 -0.53743,-1.694987 -0.12282,-0.587174 -0.19017,-1.196316 -0.19017,-1.81901 0,-0.622694 0.0674,-1.231837 0.19017,-1.819011 0.12282,-0.587174 0.30415,-1.147156 0.53743,-1.686718 0.23329,-0.539563 0.51197,-1.05803 0.84336,-1.537891 0.0223,-0.03226 0.0517,-0.05899 0.0744,-0.09095 -20.37122,-16.372242 -17.1445,29.176466 0.40514,10.74043 z"
       id="path3107" />
    <path
       style="fill:none;stroke:#000000;stroke-width:0.79375001;display:inline"
       d="m 135.16901,85.278518 c -0.13085,0.06148 -0.24614,0.15118 -0.38033,0.206706 -0.55156,0.228216 -1.12784,0.400745 -1.72806,0.520898 -0.60023,0.120153 -1.22382,0.181901 -1.86036,0.181901 -0.63653,0 -1.26013,-0.06175 -1.86035,-0.181901 -0.60022,-0.120153 -1.1765,-0.292682 -1.72806,-0.520898 -0.4053,-0.167701 -0.77605,-0.391459 -1.14928,-0.611849 -22.3086,15.205605 25.08962,26.409175 8.70644,0.405143 z"
       id="path3103" />
    <path
       style="fill:none;stroke:#000000;stroke-width:0.79375001;display:inline"
       d="m 140.29532,78.407619 c -0.0271,0.190841 -0.0188,0.391949 -0.0579,0.578776 -0.12282,0.587174 -0.30415,1.155425 -0.53744,1.694987 -0.23328,0.539562 -0.52023,1.049761 -0.85162,1.529623 -0.0901,0.130423 -0.20919,0.238358 -0.30593,0.363802 6.10778,34.035163 35.53758,-14.968858 1.75287,-4.167188 z"
       id="path3099" />
    <path
       style="fill:none;stroke:#000000;stroke-width:0.79375001;display:inline"
       d="m 137.57507,70.676825 c 0.0458,0.04299 0.10395,0.07185 0.14883,0.115755 0.41713,0.408069 0.79309,0.851323 1.12448,1.331185 0.28885,0.418261 0.52922,0.875244 0.74414,1.339453 35.9308,5.94083 -1.65042,-39.345437 -2.01745,-2.786393 z"
       id="path3097" />
    <path
       style="fill:none;stroke:#000000;stroke-width:0.79375001;display:inline"
       d="m 129.02572,52.585939 c -8.16727,0.427344 -18.57053,10.073137 -2.85254,17.040821 0.45648,-0.291868 0.93087,-0.558835 1.43867,-0.768946 0.55156,-0.228216 1.12784,-0.400746 1.72806,-0.520898 0.60022,-0.120153 1.22382,-0.190169 1.86035,-0.190169 0.63654,0 1.26013,0.07002 1.86036,0.190169 0.12352,0.02473 0.23386,0.07798 0.35553,0.107487 5.63585,-12.096542 1.18457,-16.150173 -4.39043,-15.858464 z"
       id="path3010" />
    <path
       style="fill:none;stroke:#000000;stroke-width:0.79375001;stroke-linecap:butt;stroke-linejoin:miter;stroke-opacity:1;display:inline"
       d="m 73.019267,118.19182 c -4.206046,0.0322 -6.032378,3.38194 -6.763572,6.39787 -0.867243,3.57703 1.565873,7.38528 3.653229,10.4168 2.942237,4.27313 11.88338,10.05488 11.88338,10.05488 l 0,-0.19604 0.0038,0.19604 c 0,0 8.93737,-5.78175 11.879607,-10.05488 2.087352,-3.03152 4.52424,-6.83977 3.657005,-10.4168 -0.731198,-3.01593 -2.557531,-6.36558 -6.763573,-6.39787 -6.42599,-0.0493 -8.267784,4.69072 -8.773039,6.83144 -0.504975,-2.14032 -2.349992,-6.88079 -8.77681,-6.83144 z"
       id="path3016" />
    <path
       style="fill:none;stroke:#000000;stroke-width:0.79375001;stroke-linecap:butt;stroke-linejoin:miter;stroke-opacity:1;display:inline"
       d="m 104.24622,134.20943 c -2.97716,0.0228 -4.269892,2.39384 -4.787452,4.5286 -0.61386,2.53192 1.108372,5.22751 2.585862,7.37331 2.0826,3.02464 8.4114,7.11713 8.4114,7.11713 l 0,-0.13876 0.003,0.13876 c 0,0 6.32612,-4.09249 8.40872,-7.11713 1.47749,-2.1458 3.20239,-4.84139 2.58854,-7.37331 -0.51757,-2.13476 -1.8103,-4.50574 -4.78745,-4.5286 -4.5485,-0.0349 -5.85218,3.32023 -6.20981,4.83549 -0.35744,-1.51498 -1.6634,-4.87042 -6.21248,-4.83549 z"
       id="path3022" />
    <path
       style="fill:none;stroke:#000000;stroke-width:0.79375001;stroke-linecap:butt;stroke-linejoin:miter;stroke-opacity:1;display:inline"
       d="m 53.333972,167.48279 c -2.97716,0.0228 -4.269892,2.39384 -4.787452,4.5286 -0.61386,2.53192 1.108372,5.22751 2.585862,7.37331 2.0826,3.02464 8.4114,7.11713 8.4114,7.11713 l 0,-0.13876 0.003,0.13876 c 0,0 6.32612,-4.09249 8.40872,-7.11713 1.47749,-2.1458 3.20239,-4.84139 2.58854,-7.37331 -0.51757,-2.13476 -1.8103,-4.50574 -4.78745,-4.5286 -4.5485,-0.0349 -5.85218,3.32023 -6.20981,4.83549 -0.35744,-1.51498 -1.6634,-4.87042 -6.21248,-4.83549 z"
       id="path3024" />
    <path
       style="fill:none;stroke:#000000;stroke-width:0.79375001;stroke-linecap:butt;stroke-linejoin:miter;stroke-opacity:1;display:inline"
       d="m 127.80535,155.88415 c -4.84718,0.0371 -6.9519,3.89746 -7.79455,7.37311 -0.99944,4.12227 1.80456,8.51102 4.2101,12.00465 3.39072,4.92448 13.69478,11.58755 13.69478,11.58755 l 0,-0.22592 0.005,0.22592 c 0,0 10.29969,-6.66307 13.69042,-11.58755 2.40553,-3.49363 5.21388,-7.88238 4.21446,-12.00465 -0.84267,-3.47565 -2.94739,-7.33589 -7.79455,-7.37311 -7.40551,-0.0568 -9.52806,5.40574 -10.11033,7.87276 -0.58195,-2.46657 -2.70822,-7.92963 -10.11467,-7.87276 z"
       id="path3026" />
    <path
       style="fill:none;stroke:#000000;stroke-width:0.79375001;stroke-linecap:butt;stroke-linejoin:miter;stroke-opacity:1;display:inline"
       d="m 94.848956,161.46105 c -2.38944,0.0183 -3.426975,1.92127 -3.842363,3.63461 -0.492679,2.03209 0.889568,4.19555 2.075388,5.91775 1.671474,2.42754 6.750908,5.71214 6.750908,5.71214 l 0,-0.11137 0.0024,0.11137 c 0,0 5.077281,-3.2846 6.748761,-5.71214 1.18582,-1.7222 2.57021,-3.88566 2.07753,-5.91775 -0.41539,-1.71334 -1.45292,-3.61627 -3.84236,-3.63461 -3.65058,-0.028 -4.6969,2.66478 -4.983931,3.88092 -0.286878,-1.21591 -1.335029,-3.90896 -4.986077,-3.88092 z"
       id="path3028" />
    <path
       style="fill:none;stroke:#000000;stroke-width:0.79375001;stroke-linecap:butt;stroke-linejoin:miter;stroke-opacity:1;display:inline"
       d="m 128.5232,122.17443 c -2.38944,0.0183 -3.42698,1.92127 -3.84236,3.63461 -0.49268,2.03209 0.88956,4.19555 2.07538,5.91775 1.67148,2.42754 6.75091,5.71214 6.75091,5.71214 l 0,-0.11137 0.002,0.11137 c 0,0 5.07728,-3.2846 6.74876,-5.71214 1.18582,-1.7222 2.57021,-3.88566 2.07753,-5.91775 -0.41539,-1.71334 -1.45292,-3.61627 -3.84236,-3.63461 -3.65058,-0.028 -4.6969,2.66478 -4.98393,3.88092 -0.28688,-1.21591 -1.33503,-3.90896 -4.98608,-3.88092 z"
       id="path3030" />
    <path
       style="fill:none;stroke:#000000;stroke-width:0.79375001;stroke-linecap:butt;stroke-linejoin:miter;stroke-opacity:1;display:inline"
       d="m 65.98532,145.02481 c -2.38944,0.0183 -3.42698,1.92127 -3.84236,3.63461 -0.49268,2.03209 0.88956,4.19555 2.07538,5.91775 1.67148,2.42754 6.75091,5.71214 6.75091,5.71214 l 0,-0.11137 0.002,0.11137 c 0,0 5.07728,-3.2846 6.74876,-5.71214 1.18582,-1.7222 2.57021,-3.88566 2.07753,-5.91775 -0.41539,-1.71334 -1.45292,-3.61627 -3.84236,-3.63461 -3.65058,-0.028 -4.6969,2.66478 -4.98393,3.88092 -0.28688,-1.21591 -1.33503,-3.90896 -4.98608,-3.88092 z"
       id="path3032" />
    <path
       style="fill:none;stroke:#000000;stroke-width:0.79375001;stroke-linecap:butt;stroke-linejoin:miter;stroke-opacity:1;display:inline"
       d="m 80.507105,174.28316 c -1.961997,0.015 -2.813934,1.57758 -3.155007,2.98442 -0.404545,1.66858 0.730428,3.44502 1.704119,4.85914 1.372472,1.99328 5.543252,4.6903 5.543252,4.6903 l 0,-0.0915 0.0016,0.0915 c 0,0 4.169014,-2.69702 5.541486,-4.6903 0.973691,-1.41412 2.11043,-3.19056 1.705885,-4.85914 -0.341082,-1.40684 -1.19301,-2.96936 -3.155007,-2.98442 -2.997535,-0.023 -3.85668,2.18808 -4.092364,3.18667 -0.235561,-0.9984 -1.096209,-3.20969 -4.094129,-3.18667 z"
       id="path3034" />
    <path
       style="fill:none;stroke:#000000;stroke-width:0.79375001;stroke-linecap:butt;stroke-linejoin:miter;stroke-opacity:1;display:inline"
       d="m 111.82103,176.68538 c -1.74828,0.0134 -2.50742,1.40573 -2.81134,2.65932 -0.36047,1.48682 0.65087,3.06975 1.51849,4.32983 1.22297,1.77615 4.93943,4.17939 4.93943,4.17939 l 0,-0.0815 0.001,0.0815 c 0,0 3.71488,-2.40324 4.93785,-4.17939 0.86762,-1.26008 1.88054,-2.84301 1.52006,-4.32983 -0.30393,-1.25359 -1.06305,-2.6459 -2.81133,-2.65932 -2.67101,-0.0205 -3.43657,1.94973 -3.64658,2.83954 -0.2099,-0.88964 -0.9768,-2.86006 -3.64815,-2.83954 z"
       id="path3036" />
    <path
       style="fill:none;stroke:#000000;stroke-width:0.79375001;stroke-linecap:butt;stroke-linejoin:miter;stroke-opacity:1;display:inline"
       d="m 129.05904,142.20937 c -1.74828,0.0134 -2.50742,1.40573 -2.81134,2.65932 -0.36047,1.48682 0.65087,3.06975 1.51849,4.32983 1.22297,1.77615 4.93943,4.17939 4.93943,4.17939 l 0,-0.0815 10e-4,0.0815 c 0,0 3.71488,-2.40324 4.93785,-4.17939 0.86762,-1.26008 1.88054,-2.84301 1.52006,-4.32983 -0.30393,-1.25359 -1.06305,-2.6459 -2.81133,-2.65932 -2.67101,-0.0205 -3.43657,1.94973 -3.64658,2.83954 -0.2099,-0.88964 -0.9768,-2.86006 -3.64815,-2.83954 z"
       id="path3038" />
    <path
       style="fill:none;stroke:#000000;stroke-width:0.79375001;stroke-linecap:butt;stroke-linejoin:miter;stroke-opacity:1;display:inline"
       d="m 88.168888,147.42086 c -1.74828,0.0134 -2.50742,1.40573 -2.81134,2.65932 -0.36047,1.48682 0.65087,3.06975 1.51849,4.32983 1.22297,1.77615 4.93943,4.17939 4.93943,4.17939 l 0,-0.0815 0.001,0.0815 c 0,0 3.71488,-2.40324 4.93785,-4.17939 0.86762,-1.26008 1.88054,-2.84301 1.52006,-4.32983 -0.30393,-1.25359 -1.06305,-2.6459 -2.81133,-2.65932 -2.67101,-0.0205 -3.43657,1.94973 -3.64658,2.83954 -0.2099,-0.88964 -0.9768,-2.86006 -3.64815,-2.83954 z"
       id="path3040" />
    <path
       style="fill:none;stroke:#000000;stroke-width:0.79375001;stroke-linecap:butt;stroke-linejoin:miter;stroke-opacity:1;display:inline"
       d="m 111.01927,118.15634 c -1.74828,0.0134 -2.50742,1.40573 -2.81134,2.65932 -0.36047,1.48682 0.65087,3.06975 1.51849,4.32983 1.22297,1.77615 4.93943,4.17939 4.93943,4.17939 l 0,-0.0815 10e-4,0.0815 c 0,0 3.71488,-2.40324 4.93785,-4.17939 0.86762,-1.26008 1.88054,-2.84301 1.52006,-4.32983 -0.30393,-1.25359 -1.06305,-2.6459 -2.81133,-2.65932 -2.67101,-0.0205 -3.43657,1.94973 -3.64658,2.83954 -0.2099,-0.88964 -0.9768,-2.86006 -3.64815,-2.83954 z"
       id="path3042" />
  </g>
  <g
     inkscape:groupmode="layer"
     id="layer8"
     inkscape:label="pupils"
     style="display:inline">
    <path
       sodipodi:type="arc"
       style="fill:none;fill-opacity:1;stroke:#000000;stroke-width:2.99999997;display:inline"
       id="path3012"
       sodipodi:cx="287.87878"
       sodipodi:cy="291.66666"
       sodipodi:rx="34.848484"
       sodipodi:ry="34.090908"
       d="m 322.72727,291.66666 a 34.848484,34.090908 0 1 1 -69.69697,0 34.848484,34.090908 0 1 1 69.69697,0 z"
       transform="scale(0.26458334,0.26458334)" />
    <path
       transform="matrix(0.26458334,0,0,0.26458334,55.033363,0)"
       d="m 322.72727,291.66666 a 34.848484,34.090908 0 1 1 -69.69697,0 34.848484,34.090908 0 1 1 69.69697,0 z"
       sodipodi:ry="34.090908"
       sodipodi:rx="34.848484"
       sodipodi:cy="291.66666"
       sodipodi:cx="287.87878"
       id="path3014"
       style="fill:none;fill-opacity:1;stroke:#000000;stroke-width:2.99999997;display:inline"
       sodipodi:type="arc" />
  </g>
</svg>
