<?xml version="1.0" encoding="UTF-8" standalone="no"?>
<!-- Created with Inkscape (http://www.inkscape.org/) -->

<svg
   xmlns:dc="http://purl.org/dc/elements/1.1/"
   xmlns:cc="http://creativecommons.org/ns#"
   xmlns:rdf="http://www.w3.org/1999/02/22-rdf-syntax-ns#"
   xmlns:svg="http://www.w3.org/2000/svg"
   xmlns="http://www.w3.org/2000/svg"
   xmlns:sodipodi="http://sodipodi.sourceforge.net/DTD/sodipodi-0.dtd"
   xmlns:inkscape="http://www.inkscape.org/namespaces/inkscape"
   width="800"
   height="800"
   id="svg2"
   version="1.1"
   inkscape:version="0.48.4 r9939"
   sodipodi:docname="pika.svg">
  <defs
     id="defs4" />
  <sodipodi:namedview
     id="base"
     pagecolor="#ffffff"
     bordercolor="#666666"
     borderopacity="1.0"
     inkscape:pageopacity="0.0"
     inkscape:pageshadow="2"
     inkscape:zoom="1.6240088"
     inkscape:cx="429.13885"
     inkscape:cy="269.26393"
     inkscape:document-units="px"
     inkscape:current-layer="layer1"
     showgrid="false"
     inkscape:window-width="1366"
     inkscape:window-height="718"
     inkscape:window-x="0"
     inkscape:window-y="0"
     inkscape:window-maximized="1" />
  <metadata
     id="metadata7">
    <rdf:RDF>
      <cc:Work
         rdf:about="">
        <dc:format>image/svg+xml</dc:format>
        <dc:type
           rdf:resource="http://purl.org/dc/dcmitype/StillImage" />
        <dc:title />
      </cc:Work>
    </rdf:RDF>
  </metadata>
  <g
     inkscape:label="Layer 1"
     inkscape:groupmode="layer"
     id="layer1"
     transform="translate(0,-252.36218)">
    <path
       style="fill:none;stroke:#000000;stroke-width:3;stroke-linecap:butt;stroke-linejoin:miter;stroke-opacity:1"
       d="m 496.91205,810.26494 -15.43057,19.87502 20.74074,23.7037"
       id="path2995"
       inkscape:connector-curvature="0"
       sodipodi:nodetypes="ccc" />
    <path
       style="fill:none;stroke:#000000;stroke-width:3;stroke-linecap:butt;stroke-linejoin:miter;stroke-opacity:1"
       d="m 423.7037,901.25107 41.48148,8.88889 1.48149,-62.22222 38.51851,7.4074 40,-71.11111 136.2963,35.55556 109.62963,-103.70371 C 715.19857,699.69783 620.33707,679.4771 537.77778,664.21403 l -40,146.66667 -69.62963,-11.85185 7.4074,74.07407 -23.47203,-0.0183 z"
       id="path3818"
       inkscape:connector-curvature="0"
       sodipodi:nodetypes="ccccccccccccc" />
    <path
       style="fill:none;stroke:#000000;stroke-width:3;stroke-linecap:butt;stroke-linejoin:miter;stroke-opacity:1"
       d="m 110.62944,951.63969 c -1.5627,-6.91967 2.41095,-10.39105 7.39282,-17.31071 13.4668,-4.12837 46.72786,8.29064 87.90366,11.36653 38.09978,2.22368 66.14668,-5.21028 95.32203,-2.47764 33.76491,0.87013 69.92936,0.2133 89.86316,9.88505 8.64585,1.9598 20.63538,12.21979 26.65572,24.68161"
       id="path3041"
       inkscape:connector-curvature="0"
       sodipodi:nodetypes="cccccc" />
    <path
       style="fill:none;stroke:#000000;stroke-width:3;stroke-linecap:butt;stroke-linejoin:miter;stroke-opacity:1"
       d="m 239.02207,967.91409 c 16.46963,-2.45757 31.7653,-6.0891 55.79639,-0.98522"
       id="path3039"
       inkscape:connector-curvature="0"
       sodipodi:nodetypes="cc" />
    <path
       style="fill:none;stroke:#000000;stroke-width:3;stroke-linecap:butt;stroke-linejoin:miter;stroke-opacity:1"
       d="m 437.03704,996.06593 c 15.95092,4.35147 37.011,17.97907 39.01478,25.17777"
       id="path3037"
       inkscape:connector-curvature="0"
       sodipodi:nodetypes="cc" />
    <path
       style="fill:none;stroke:#000000;stroke-width:3;stroke-linecap:butt;stroke-linejoin:miter;stroke-opacity:1"
       d="m 420.74074,1000.5103 c 39.00365,6.4197 35.29993,17.273 42.95931,21.7223"
       id="path3035"
       inkscape:connector-curvature="0"
       sodipodi:nodetypes="cc" />
    <path
       style="fill:none;stroke:#000000;stroke-width:3;stroke-linecap:butt;stroke-linejoin:miter;stroke-opacity:1"
       d="m 138.38259,984.54327 c -16.45479,-0.0705 -21.0261,5.72086 -36.64569,13.49666"
       id="path3033"
       inkscape:connector-curvature="0"
       sodipodi:nodetypes="cc" />
    <path
       style="fill:none;stroke:#000000;stroke-width:3;stroke-linecap:butt;stroke-linejoin:miter;stroke-opacity:1"
       d="m 115.77626,981.62053 c -13.3443,0.044 -31.195039,10.0241 -40.724259,16.4267"
       id="path3031"
       inkscape:connector-curvature="0"
       sodipodi:nodetypes="cc" />
    <path
       style="fill:none;stroke:#000000;stroke-width:3;stroke-linecap:butt;stroke-linejoin:miter;stroke-opacity:1"
       d="m 97.770471,976.79933 c -10.77505,3.6926 -17.68885,5.832 -35.04834,17.2815"
       id="path3029"
       inkscape:connector-curvature="0"
       sodipodi:nodetypes="cc" />
    <path
       style="fill:none;stroke:#000000;stroke-width:3;stroke-linecap:butt;stroke-linejoin:miter;stroke-opacity:1"
       d="m 673.25236,394.02547 c -2.47787,18.96775 3.45742,22.51138 -22.92595,85.30588"
       id="path3027" />
    <path
       style="fill:none;stroke:#000000;stroke-width:3;stroke-linecap:butt;stroke-linejoin:miter;stroke-opacity:1"
       d="m 106.50146,297.5232 c -3.94691,32.32442 0.40172,61.33064 10.66324,87.97169"
       id="path3025" />
    <path
       style="fill:none;stroke:#000000;stroke-width:3;stroke-linecap:butt;stroke-linejoin:miter;stroke-opacity:1"
       d="m 270.18211,686.73125 c 20.34001,8.46535 40.9484,13.91065 48.51772,13.86221 -15.94269,-0.0464 -23.76715,4.54627 -29.85706,10.13007"
       id="path3023" />
    <path
       style="fill:none;stroke:#000000;stroke-width:3;stroke-linecap:butt;stroke-linejoin:miter;stroke-opacity:1"
       d="m 188.60837,646.74413 c 10.42682,21.39171 19.24322,31.99988 28.25757,37.85448"
       id="path3021" />
    <path
       style="fill:none;stroke:#000000;stroke-width:3;stroke-linecap:butt;stroke-linejoin:miter;stroke-opacity:1"
       d="m 452.52341,615.28758 c -3.98732,16.49366 -15.92709,52.31752 -41.58661,64.51257 -18.70717,9.04465 -34.11577,13.14146 -50.1172,18.1275"
       id="path3019" />
    <path
       style="fill:none;stroke:#000000;stroke-width:3;stroke-linecap:butt;stroke-linejoin:miter;stroke-opacity:1"
       d="m 449.85761,600.89222 c 0,0 -18.37191,0.91844 -25.59177,5.86478 -12.03657,8.24628 -20.10207,22.35125 -24.52543,36.25499 -2.5329,7.96156 -3.64811,17.30624 -0.53317,25.0586 2.15525,5.3639 12.26272,12.26272 12.26272,12.26272"
       id="path3017" />
    <path
       style="fill:none;stroke:#000000;stroke-width:3;stroke-linecap:butt;stroke-linejoin:miter;stroke-opacity:1"
       d="m 177.41197,510.25473 c 0,0 17.25564,13.96531 20.26015,23.99227 4.72653,15.77383 3.39675,35.43552 -5.86478,49.05088 -5.67998,8.35012 -26.65809,14.39537 -26.65809,14.39537"
       id="path3015" />
    <path
       style="fill:none;stroke:#000000;stroke-width:3;stroke-linecap:butt;stroke-linejoin:miter;stroke-opacity:1"
       d="m 263.78417,574.23413 c 12.00379,-9.04844 26.74787,-12.6163 45.85191,-7.46426 15.36589,7.57827 28.74297,16.70339 31.45654,34.12235"
       id="path3013" />
    <path
       style="fill:none;stroke:#000000;stroke-width:3;stroke-linecap:butt;stroke-linejoin:miter;stroke-opacity:1"
       d="m 264.31733,549.70869 c 0,0 -7.92732,93.54352 11.72956,106.63235 29.16644,19.42091 77.84161,-77.84161 77.84161,-77.84161 l 0,0"
       id="path3011" />
    <path
       style="fill:none;stroke:#000000;stroke-width:3;stroke-linecap:butt;stroke-linejoin:miter;stroke-opacity:1"
       d="m 258.45255,546.50973 c 13.7191,10.94259 38.94933,7.15675 51.18352,4.26529 33.76863,34.0641 52.78302,27.19125 52.78302,27.19125"
       id="path3009" />
    <path
       style="fill:none;stroke:#000000;stroke-width:3;stroke-linecap:butt;stroke-linejoin:miter;stroke-opacity:1"
       d="m 324.16382,534.60671 c -0.4814,2.15532 -4.26453,3.14475 -8.44987,2.20994 -4.18534,-0.9348 -7.18798,-3.43984 -6.70658,-5.59516 0.48139,-2.15532 4.26452,-3.14475 8.44986,-2.20995 4.18534,0.93481 7.18798,3.43985 6.70659,5.59517 z"
       id="path3007" />
    <path
       style="fill:none;stroke:#000000;stroke-width:3;stroke-linecap:butt;stroke-linejoin:miter;stroke-opacity:1"
       d="m 260.90431,492.92697 c 0,6.03637 -4.67002,10.92981 -10.43077,10.92981 -5.76075,0 -10.43075,-4.89344 -10.43075,-10.92981 0,-6.03637 4.67,-10.92981 10.43075,-10.92981 5.76075,0 10.43077,4.89344 10.43077,10.92981 z"
       id="path3005" />
    <path
       style="fill:none;stroke:#000000;stroke-width:3;stroke-linecap:butt;stroke-linejoin:miter;stroke-opacity:1"
       d="m 411.78907,536.64623 c 0,6.03637 -4.67002,10.92981 -10.43077,10.92981 -5.76075,0 -10.43075,-4.89344 -10.43075,-10.92981 0,-6.03637 4.67,-10.92981 10.43075,-10.92981 5.76075,0 10.43077,4.89344 10.43077,10.92981 z"
       id="path3003" />
    <path
       style="fill:none;stroke:#000000;stroke-width:3;stroke-linecap:butt;stroke-linejoin:miter;stroke-opacity:1"
       d="m 427.99798,547.57604 c 0,13.83948 -10.74171,25.0586 -23.99228,25.0586 -13.25057,0 -23.99227,-11.21912 -23.99227,-25.0586 0,-13.83948 10.7417,-25.0586 23.99227,-25.0586 13.25057,0 23.99228,11.21912 23.99228,25.0586 z"
       id="path3001" />
    <path
       style="fill:none;stroke:#000000;stroke-width:3;stroke-linecap:butt;stroke-linejoin:miter;stroke-opacity:1"
       d="m 266.44998,500.12465 c 0,13.83948 -10.74171,25.0586 -23.99228,25.0586 -13.25057,0 -23.99227,-11.21912 -23.99227,-25.0586 0,-13.83948 10.7417,-25.0586 23.99227,-25.0586 13.25057,0 23.99228,11.21912 23.99228,25.0586 z"
       id="path2999" />
    <path
       style="fill:none;stroke:#000000;stroke-width:3;stroke-linecap:butt;stroke-linejoin:miter;stroke-opacity:1"
       d="m 222.38515,432.31439 c 0,0 -69.20701,-22.51377 -98.48682,-43.19597 C 81.299731,359.02831 16.772329,275.08105 16.772329,275.08105 c 0,0 101.681511,22.22239 146.866301,46.65165 35.29067,19.07998 93.3033,76.02491 93.3033,76.02491 0,0 75.31482,0.64046 110.58169,12.09487 26.49796,8.60634 72.56923,41.46814 72.56923,41.46814 0,0 76.28806,-37.83035 117.49305,-46.65165 64.26481,-13.75804 196.97362,-8.6392 196.97362,-8.6392 0,0 -58.84745,65.74181 -98.48681,81.20843 -59.1082,23.06303 -190.06228,10.36703 -190.06228,10.36703 0,0 1.2623,47.28119 -3.47542,70.23912 -2.34892,11.38232 -10.56244,21.15538 -12.20348,32.6611 -1.17803,8.25935 1.8562,24.95987 1.8562,24.95987 0,0 20.89165,-8.55828 37.0309,-12.23833 16.13925,-3.68006 35.80581,-7.16377 50.27926,-9.56206 14.47345,-2.39829 -5.07021,11.6624 -0.57266,19.05558 4.49755,7.39318 20.2523,10.36447 21.45482,13.06246 1.20252,2.69799 -10.01674,-1.84104 -11.5089,2.41531 -1.49216,4.25635 7.94284,6.39975 6.00326,10.73981 -1.93958,4.34006 -7.39945,-1.90792 -9.47702,1.60402 -2.07757,3.51194 7.06378,6.97054 5.01728,10.08331 -2.0465,3.11277 -8.86622,-4.36147 -11.07269,-0.5997 -2.20647,3.76177 11.78436,7.94271 8.05963,12.74298 -3.72473,4.80027 -13.10626,-8.86217 -17.67323,-7.11471 -4.56698,1.74746 -30.37995,41.8828 -49.70132,62.4421 -19.32137,20.5593 -55.63782,48.19691 -69.30746,59.78608 -13.66964,11.58917 -1e-5,93.30329 -1e-5,93.30329 0,0 23.37231,48.44035 22.46191,74.29707 -0.45543,12.93477 -19.79635,24.80283 -13.82272,36.2846 66.05987,24.92067 110.02585,60.01297 -25.91758,29.37327 -66.80539,-14.90607 -43.19597,-22.46187 -43.19597,-22.46187 0,0 -58.48363,0.4363 -100.21466,-17.27841 -18.13416,-7.69789 -71.77936,3.05091 -71.77936,3.05091 0,0 -3.01899,9.4049 -7.01009,11.3938 -25.76574,12.8397 -104.351109,19.11697 -109.268529,9.7253 -8.792278,-16.7922 54.224519,-33.32262 54.224519,-33.32262 0,0 -19.121269,-25.16463 -21.395579,-47.86608 -2.94329,-29.37915 22.185449,-62.20219 22.185449,-62.20219 l 25.91758,-88.11978 c 0,0 -42.02081,-35.45601 -58.746519,-57.01868 -11.38396,-14.67612 -19.94108,-31.47903 -27.645423,-48.3795 -8.902986,-19.52985 -19.359132,-51.52749 -21.248328,-60.78331 -2.199749,-10.77732 7.165303,1.83801 9.757891,-3.41122 0.246264,-0.49862 -6.450808,-10.96259 -3.934521,-12.18774 1.194411,-0.58154 11.314858,8.24111 12.512957,7.59541 0.888572,-0.47888 -7.109262,-13.46802 -6.375241,-13.9515 1.38257,-0.91065 11.824999,7.64603 11.977133,6.8528 0.80686,-4.20698 -2.559806,-5.70596 -4.405237,-13.43366 -1.200361,-5.02649 9.866959,7.84504 15.120369,8.17507 5.65386,0.35519 -0.76886,-30.28317 6.09182,-8.33971 6.86067,21.94346 113.546759,79.11683 113.546759,79.11683 0,0 -34.6558,-59.88832 -38.01246,-93.3033 -1.51685,-15.09992 17.11997,-17.76465 27.64542,-50.10733 10.52544,-32.34267 43.19597,-72.56923 43.19597,-72.56923 z"
       id="path3808" />
    <path
       style="fill:none;stroke:#000000;stroke-width:3;stroke-linecap:butt;stroke-linejoin:miter;stroke-opacity:1"
       d="m 506.66667,575.32514 26.66666,-41.48148 54.81482,41.48148 48.88889,-62.22222 96.29629,56.2963 42.96297,-121.48148 0,0"
       id="path3821" />
    <path
       style="fill:none;stroke:#000000;stroke-width:3;stroke-linecap:butt;stroke-linejoin:miter;stroke-opacity:1"
       d="M 124.44444,530.8807 60.740741,526.43625 82.962963,447.91774 14.814815,419.76959"
       id="path3823" />
    <path
       style="fill:none;stroke:#000000;stroke-width:3;stroke-linecap:butt;stroke-linejoin:miter;stroke-opacity:1"
       d="m 577.77778,607.91774 80,44.44444 17.77778,-60.74074 57.77777,41.48148"
       id="path3825" />
    <path
       style="fill:none;stroke:#000000;stroke-width:3;stroke-linecap:butt;stroke-linejoin:miter;stroke-opacity:1"
       d="m 568.88889,855.32514 158.51852,19.25926 13.33333,108.14815 54.81482,66.66665"
       id="path3827"
       inkscape:connector-curvature="0"
       sodipodi:nodetypes="cccc" />
    <path
       style="fill:none;stroke:#000000;stroke-width:3;stroke-linecap:butt;stroke-linejoin:miter;stroke-opacity:1"
       d="m 484.44444,889.39922 8.88889,63.7037 152.5926,-26.66667 -51.85186,90.37035 80,-5.9259 -11.85185,40"
       id="path3829"
       inkscape:connector-curvature="0"
       sodipodi:nodetypes="cccccc" />
    <path
       style="fill:none;stroke:#000000;stroke-width:3;stroke-linecap:butt;stroke-linejoin:miter;stroke-opacity:1"
       d="M 106.66667,779.76959 65.185185,839.02885 13.333333,770.8807 0,825.69551"
       id="path3831" />
    <path
       style="fill:none;stroke:#000000;stroke-width:3;stroke-linecap:butt;stroke-linejoin:miter;stroke-opacity:1"
       d="m 318.51852,373.84366 -69.62963,-69.62963 60.74074,-16.29629 -37.03704,-35.55556"
       id="path3833" />
    <path
       style="fill:none;stroke:#000000;stroke-width:3;stroke-linecap:butt;stroke-linejoin:miter;stroke-opacity:1"
       d="m 395.55556,376.80662 14.81481,-72.59259 75.55556,26.66667 -19.25926,-81.48148"
       id="path3835" />
    <path
       style="fill:none;stroke:#000000;stroke-width:3;stroke-linecap:butt;stroke-linejoin:miter;stroke-opacity:1"
       d="M 438.51852,403.47329 560,353.10292 l 1.48148,-53.33333 97.77778,56.29629 0,-60.74074 81.48148,42.96297 60.74074,-85.92593"
       id="path3837" />
  </g>
</svg>
