<?xml version="1.0" encoding="UTF-8" standalone="no"?>
<!-- Created with Inkscape (http://www.inkscape.org/) -->

<svg
   xmlns:dc="http://purl.org/dc/elements/1.1/"
   xmlns:cc="http://creativecommons.org/ns#"
   xmlns:rdf="http://www.w3.org/1999/02/22-rdf-syntax-ns#"
   xmlns:svg="http://www.w3.org/2000/svg"
   xmlns="http://www.w3.org/2000/svg"
   xmlns:sodipodi="http://sodipodi.sourceforge.net/DTD/sodipodi-0.dtd"
   xmlns:inkscape="http://www.inkscape.org/namespaces/inkscape"
   width="800"
   height="800"
   id="svg2"
   version="1.1"
   inkscape:version="0.48.4 r9939"
   sodipodi:docname="svg9.svg">
  <defs
     id="defs4">
    <inkscape:path-effect
       effect="spiro"
       id="path-effect3125"
       is_visible="true" />
    <inkscape:path-effect
       effect="spiro"
       id="path-effect3121"
       is_visible="true" />
    <inkscape:path-effect
       effect="spiro"
       id="path-effect3117"
       is_visible="true" />
    <inkscape:path-effect
       effect="spiro"
       id="path-effect3113"
       is_visible="true" />
    <inkscape:path-effect
       effect="spiro"
       id="path-effect3109"
       is_visible="true" />
    <inkscape:path-effect
       effect="spiro"
       id="path-effect3105"
       is_visible="true" />
    <inkscape:path-effect
       effect="spiro"
       id="path-effect3035"
       is_visible="true" />
    <inkscape:path-effect
       effect="spiro"
       id="path-effect3031"
       is_visible="true" />
    <inkscape:path-effect
       effect="spiro"
       id="path-effect3027"
       is_visible="true" />
    <inkscape:path-effect
       effect="spiro"
       id="path-effect3023"
       is_visible="true" />
    <inkscape:path-effect
       effect="spiro"
       id="path-effect2999"
       is_visible="true" />
    <inkscape:path-effect
       effect="spiro"
       id="path-effect2995"
       is_visible="true" />
    <inkscape:path-effect
       effect="spiro"
       id="path-effect2991"
       is_visible="true" />
    <inkscape:path-effect
       effect="spiro"
       id="path-effect2987"
       is_visible="true" />
  </defs>
  <sodipodi:namedview
     id="base"
     pagecolor="#ffffff"
     bordercolor="#666666"
     borderopacity="1.0"
     inkscape:pageopacity="0.0"
     inkscape:pageshadow="2"
     inkscape:zoom="0.675"
     inkscape:cx="400"
     inkscape:cy="400"
     inkscape:document-units="px"
     inkscape:current-layer="layer1"
     showgrid="false"
     inkscape:window-width="1366"
     inkscape:window-height="718"
     inkscape:window-x="0"
     inkscape:window-y="0"
     inkscape:window-maximized="1">
    <sodipodi:guide
       position="0,0"
       orientation="0,800"
       id="guide3049" />
    <sodipodi:guide
       position="800,0"
       orientation="-800,0"
       id="guide3051" />
    <sodipodi:guide
       position="800,800"
       orientation="0,-800"
       id="guide3053" />
    <sodipodi:guide
       position="0,800"
       orientation="800,0"
       id="guide3055" />
  </sodipodi:namedview>
  <metadata
     id="metadata7">
    <rdf:RDF>
      <cc:Work
         rdf:about="">
        <dc:format>image/svg+xml</dc:format>
        <dc:type
           rdf:resource="http://purl.org/dc/dcmitype/StillImage" />
        <dc:title />
      </cc:Work>
    </rdf:RDF>
  </metadata>
  <g
     inkscape:label="Layer 1"
     inkscape:groupmode="layer"
     id="layer1"
     transform="translate(0,-252.36218)">
    <rect
       style="fill:none;fill-opacity:1;stroke:#000000;stroke-width:1;stroke-miterlimit:4;stroke-dasharray:none"
       id="rect3175"
       width="801.48151"
       height="805.92584"
       x="0"
       y="-1.4814814"
       transform="translate(0,252.36218)" />
    <path
       style="fill:none;stroke:#000000;stroke-width:3;stroke-linecap:butt;stroke-linejoin:miter;stroke-opacity:1"
       d="m 570.125,530.70593 c -0.49448,0.0636 -1.01476,0.0756 -1.5,0.15625 -2.79147,0.46402 -5.43904,1.22278 -7.96875,2.15625 -2.52971,0.93347 -4.938,2.03805 -7.28125,3.28125 l 6.40625,72.1875 c 0.0709,0.001 0.14794,-0.001 0.21875,0 5.76146,0.0973 11.35772,0.1043 16.8125,0.0312 2.3572,-0.0316 4.41518,-0.21989 6.71875,-0.28125 L 570.125,530.70593 z"
       id="path3186" />
    <path
       style="fill:none;stroke:#000000;stroke-width:3;stroke-linecap:butt;stroke-linejoin:miter;stroke-opacity:1"
       d="m 534.8125,326.42468 9.8125,110.875 c 0.76276,0.003 1.58894,0.0313 2.34375,0.0312 2.45691,-2.3e-4 4.61872,-0.0387 7,-0.0625 L 534.8125,326.42468 z"
       id="path3007" />
    <path
       style="fill:none;stroke:#000000;stroke-width:3;stroke-linecap:butt;stroke-linejoin:miter;stroke-opacity:1"
       d="m 249,630.11218 0.96875,-38.5 c -1.46189,-0.36619 -2.92895,-0.82092 -4.375,-0.90625 -2.03694,-0.12019 -3.93251,0.006 -5.75,0.34375 -1.81749,0.33772 -3.54043,0.8831 -5.1875,1.5625 -1.64707,0.6794 -3.22434,1.50142 -4.75,2.40625 -0.75664,0.44874 -1.48295,0.9547 -2.21875,1.4375 l -3.75,33.09375 c 6.58359,0.17054 12.313,0.46635 19.40625,0.5625 1.71411,0.0232 3.91095,-0.0189 5.65625,0 z"
       id="path3168" />
    <path
       style="fill:none;stroke:#000000;stroke-width:3;stroke-linecap:butt;stroke-linejoin:miter;stroke-opacity:1"
       d="m 238.47289,522.86218 c 2.29875,-0.0383 2.23069,-0.0728 4.46461,-0.0937 2.96604,-0.0278 5.86614,0.17516 8.78125,0.25 l 1.09375,-44.1875 0,-5e-5 c -2.98877,-0.94937 -5.98949,-1.18933 -8.875,-0.6875"
       id="path3087" />
    <path
       style="fill:none;stroke:#000000;stroke-width:3;stroke-linecap:butt;stroke-linejoin:miter;stroke-opacity:1"
       d="m 256.28125,342.73718 -9.9375,88.03125 c 2.59395,-0.022 5.13757,0.0947 7.6875,0.1875 l 2.25,-88.21875 z"
       id="path3005" />
    <path
       style="fill:none;stroke:#000000;stroke-width:3;stroke-linecap:butt;stroke-linejoin:miter;stroke-opacity:1"
       d="m 401.375,672.04968 -1.4375,-44.53125 c -0.0736,-0.01 -0.14515,-0.0533 -0.21875,-0.0625 -1.43001,-0.1779 -2.87568,-0.28114 -4.34375,-0.28125 -1.46807,-1.1e-4 -2.95875,0.091 -4.5,0.28125 -1.54125,0.1903 -3.13169,0.48167 -4.78125,0.875 -1.64956,0.39333 -3.36325,0.89101 -5.15625,1.5 -1.04739,0.35574 -2.36292,1.03601 -3.46875,1.46875 l -1.15625,39.09375 c 4.41963,0.31894 9.09744,0.72771 13.34375,1 4.13141,0.26492 7.76605,0.43212 11.71875,0.65625 z"
       id="path3174" />
    <path
       style="fill:none;stroke:#000000;stroke-width:3;stroke-linecap:butt;stroke-linejoin:miter;stroke-opacity:1"
       d="m 396.375,519.14343 c -3.31691,-0.36333 -6.62615,-0.72268 -9.5,-0.9375 -2.23825,-0.16731 -4.09721,-0.19605 -6.09375,-0.28125 l -0.6875,24.0625 c 0.18244,-10e-4 0.41275,0.002 0.59375,0 6.21409,-0.0569 11.33167,-0.25503 16.4375,-0.40625 l -0.75,-22.4375 z"
       id="path3074" />
    <path
       style="fill:none;stroke:#000000;stroke-width:3;stroke-linecap:butt;stroke-linejoin:miter;stroke-opacity:1"
       d="m 391.28125,362.36218 c -0.50858,0.0307 -0.97712,-0.0645 -1.5,0 -1.37672,0.16994 -2.92165,0.64343 -4.4375,1.0625 l -1.0625,36.09375 c 2.76312,0.53977 5.52295,1.09542 8.25,1.65625 l -1.25,-38.8125 z"
       id="path3070" />
    <path
       style="fill:none;stroke:#000000;stroke-width:3;stroke-linecap:butt;stroke-linejoin:miter;stroke-opacity:1"
       d="M 388.15625,267.17468 387,306.08093 c 0.84122,-0.0201 1.63414,-0.039 2.4375,-0.0625 l -1.28125,-38.84375 z"
       id="path3003" />
    <path
       style="fill:none;stroke:#000000;stroke-width:3;stroke-linecap:butt;stroke-linejoin:miter;stroke-opacity:1"
       d="m 649.60779,722.53683 c 28.86088,-20.87605 41.33567,-39.91312 58.54846,-62.7684 19.05146,-25.29668 48.875,-81.46875 48.875,-81.46875 -64.23558,13.97063 -117.28729,34.1486 -214.8125,29.625 l -48.875,66.65625 c 0,0 -75.39999,1.31554 -170.375,-8.875 -31.049,-3.33147 -20.75,-35.5625 -20.75,-35.5625 -172.03348,1.71421 -216.85084,-10.83481 -294.8125,-42.96875 0,0 29.19606,48.56792 50.375,66.65625 19.151049,16.35637 66.65625,35.5625 66.65625,35.5625 l 32.84375,50.0625"
       id="path3001" />
    <path
       style="fill:none;stroke:#000000;stroke-width:3;stroke-linecap:butt;stroke-linejoin:miter;stroke-opacity:1"
       inkscape:path-effect="#path-effect2987"
       inkscape:original-d="m 800,736.66462 c -2.4736,-11.3362 0,-43.37973 -61.39879,-28.00615 -32.07157,8.03037 -24.06327,61.00022 -67.8875,48.88889 -13.94495,-3.85385 -10.63754,-28.94298 -22.6292,-37.03704 -36.42172,-21.3808 -45.06825,-9.63567 -63.0384,10.37037 -11.09302,11.31612 -26.22163,23.38024 -42.0257,22.22223 -31.66597,-2.9192 -46.60174,-60.11019 -77.5857,-40 -17.92721,12.35698 -6.39321,53.82799 -27.4783,59.25926 -57.07767,14.70254 -44.17825,-72.94833 -88.9003,-75.55556 -33.16814,-1.93365 -39.52125,67.37015 -72.7366,68.14815 -30.43733,0.71293 -39.1526,-56.86396 -69.5039,-59.25926 -32.10213,-2.53347 -50.34547,53.05998 -82.4349,50.37037 C 96.632193,753.74011 85.419819,715.23901 61.342307,701.25106 34.630489,685.73269 -8.3716,710.139 0,736.17712"
       id="path2985"
       d="m 800,736.66462 c -0.71946,-6.73442 -3.221,-13.27037 -7.18174,-18.76423 -3.96074,-5.49386 -9.37128,-9.9326 -15.53326,-12.7433 -6.16198,-2.8107 -13.06077,-3.98668 -19.80594,-3.37615 -6.74516,0.61052 -13.32069,3.0061 -18.87785,6.87753 -6.26251,4.36282 -11.11337,10.45225 -15.40626,16.7629 -4.29289,6.31066 -8.1325,12.94444 -12.87471,18.9248 -4.7422,5.98037 -10.52637,11.36886 -17.58785,14.2652 -3.53074,1.44817 -7.34893,2.246 -11.16333,2.12926 -3.8144,-0.11673 -7.62193,-1.16637 -10.85535,-3.19327 -3.10713,-1.94773 -5.619,-4.74338 -7.60869,-7.82381 -1.98968,-3.08044 -3.48378,-6.45199 -4.85748,-9.85211 -2.74742,-6.80026 -5.17226,-13.98674 -10.16303,-19.36112 -4.02447,-4.33381 -9.52564,-7.18162 -15.31511,-8.39003 -5.78947,-1.20841 -11.85148,-0.82688 -17.57158,0.67602 -11.44019,3.00581 -21.26366,10.27954 -30.15171,18.08438 -6.13995,5.39166 -12.03073,11.14563 -18.90845,15.55765 -6.87771,4.41202 -14.98334,7.44463 -23.11725,6.66458 -7.72398,-0.74074 -14.77785,-4.84493 -20.64331,-9.92478 -5.86546,-5.07985 -10.76354,-11.16039 -16.09365,-16.79941 -5.3301,-5.63902 -11.26455,-10.95246 -18.42637,-13.93859 -3.58091,-1.49306 -7.44076,-2.37582 -11.32033,-2.34245 -3.87956,0.0334 -7.778,1.0045 -11.10204,3.00523 -4.81913,2.90062 -8.18214,7.79448 -10.24723,13.0264 -2.06509,5.23192 -2.95522,10.84106 -3.8,16.40199 -0.84478,5.56093 -1.66997,11.17322 -3.61689,16.45026 -1.94692,5.27703 -5.13034,10.26624 -9.81418,13.38061 -4.53188,3.01333 -10.23271,4.06046 -15.62404,3.31772 -5.39133,-0.74274 -10.46959,-3.19647 -14.72245,-6.59223 -8.50574,-6.79154 -13.55776,-16.95038 -17.63117,-27.04392 -4.07341,-10.09355 -7.51571,-20.61506 -13.81641,-29.49051 -3.15034,-4.43773 -7.01667,-8.42282 -11.63807,-11.29697 -4.62141,-2.87414 -10.02796,-4.59922 -15.46816,-4.44965 -4.3805,0.12044 -8.68784,1.44825 -12.52426,3.56606 -3.83642,2.11781 -7.21432,5.00979 -10.12469,8.28592 -5.82073,6.55225 -9.74106,14.5332 -13.60693,22.39883 -3.86587,7.86562 -7.82252,15.83415 -13.69795,22.3374 -2.93771,3.25163 -6.34696,6.10902 -10.20969,8.17845 -3.86273,2.06943 -8.19118,3.33447 -12.57308,3.38149 -7.9368,0.0852 -15.50807,-3.83056 -21.34142,-9.21313 -5.83335,-5.38258 -10.16819,-12.16177 -14.30597,-18.93516 -4.13779,-6.77339 -8.19107,-13.68353 -13.60133,-19.49121 -5.41025,-5.80769 -12.39606,-10.50876 -20.25518,-11.61976 -8.29831,-1.17309 -16.76527,1.78505 -23.70471,6.48424 -6.93944,4.69918 -12.58059,11.04161 -18.04901,17.39256 -5.46843,6.35094 -10.90067,12.83612 -17.55405,17.93226 -6.65338,5.09615 -14.74865,8.75951 -23.12713,8.56131 -7.16906,-0.16959 -14.06856,-3.16558 -19.81595,-7.45415 -5.747388,-4.28856 -10.446632,-9.82305 -14.726792,-15.57669 -4.280159,-5.75365 -8.197106,-11.77909 -12.687619,-17.37011 -4.490514,-5.59102 -9.620102,-10.78983 -15.808042,-14.41387 -6.138247,-3.59493 -13.23116,-5.54239 -20.344509,-5.58586 -7.11335,-0.0435 -14.229533,1.81716 -20.411257,5.3368 -6.181724,3.51965 -11.4136915,8.68961 -15.0067846,14.82894 C 1.9866633,721.97026 0.04133637,729.06376 0,736.17712" />
    <path
       style="fill:none;stroke:#000000;stroke-width:3;stroke-linecap:butt;stroke-linejoin:miter;stroke-opacity:1"
       d="m 572.94082,437.04131 c -16.78439,0.15103 -34.50055,0.84844 -55.91628,-0.72246 -13.29326,7.3706 -48.97762,43.45561 2.0823,117.27802 20.32221,-3.16889 33.36014,-24.5364 58.38829,-23.21528 13.31965,0.70309 25.53945,8.03922 55.09743,25.68429"
       id="path3015" />
    <path
       style="fill:none;stroke:#000000;stroke-width:3;stroke-linecap:butt;stroke-linejoin:miter;stroke-opacity:1"
       d="m 385.18251,399.0342 c -24.50747,57.64645 -73.63782,91.70535 -133.34135,121.97709"
       id="path3039" />
    <path
       style="fill:none;stroke:#000000;stroke-width:3;stroke-linecap:butt;stroke-linejoin:miter;stroke-opacity:1"
       d="m 544.15986,438.05087 c -39.10539,65.39721 -77.3288,134.78621 -147.14383,188.6673"
       id="path3041" />
    <path
       style="fill:none;stroke:#000000;stroke-width:3;stroke-linecap:butt;stroke-linejoin:miter;stroke-opacity:1"
       d="m 353.82622,541.25107 c -20.25835,22.02048 -38.33502,65.77672 0.59725,101.62658 43.4879,-25.56507 48.38372,-16.2565 86.62469,2.07712 -11.9377,-30.01516 -7.1443,-75.78182 0.28697,-100.26727 -35.7885,-6.59536 -44.35,-0.76852 -87.50891,-3.43643 z"
       id="path3094" />
    <path
       style="fill:none;stroke:#000000;stroke-width:3;stroke-linecap:butt;stroke-linejoin:miter;stroke-opacity:1"
       d="m 365.42272,305.69552 c -13.31636,14.4706 -25.19863,43.2247 0.39258,66.78318 28.58576,-16.79991 31.80391,-10.68285 56.94072,1.36496 -7.84697,-19.72425 -4.69614,-49.79948 0.18863,-65.88992 -23.52473,-4.33409 -29.15243,-0.50503 -57.52193,-2.25822 z"
       id="path3092" />
    <path
       style="fill:none;stroke:#000000;stroke-width:3;stroke-linecap:butt;stroke-linejoin:miter;stroke-opacity:1"
       d="m 314.07407,390.13996 c -28.87553,31.41157 -52.52972,89.60198 2.96296,140.74074 44.30616,-5.82669 19.06656,-28.1444 161.48148,2.96296 -17.01557,-42.81574 -16.51819,-80.62777 -5.92592,-115.55555 -51.01166,-9.40808 -97.00133,-24.34245 -158.51852,-28.14815 z"
       id="path3011" />
    <path
       style="fill:none;stroke:#000000;stroke-width:3;stroke-linecap:butt;stroke-linejoin:miter;stroke-opacity:1"
       d="m 653.336,578.27206 c 26.6052,6.04096 42.15054,-5.29784 50.37038,-28.14815"
       id="path3112" />
    <path
       style="fill:none;stroke:#000000;stroke-width:3;stroke-linecap:butt;stroke-linejoin:miter;stroke-opacity:1"
       d="m 628.16955,546.67336 c 15.6237,-1.9813 31.81525,2.56771 44.94006,-28.15082"
       id="path3110" />
    <path
       style="fill:none;stroke:#000000;stroke-width:3;stroke-linecap:butt;stroke-linejoin:miter;stroke-opacity:1"
       d="m 612.86447,522.9643 c 13.71081,-3.22674 27.55756,-4.41436 40,-26.66666"
       id="path3108" />
    <path
       style="fill:none;stroke:#000000;stroke-width:3;stroke-linecap:butt;stroke-linejoin:miter;stroke-opacity:1"
       d="m 596.57085,491.36293 c 14.64779,-1.05525 26.96901,-7.22894 35.05727,-22.71515"
       id="path3106" />
    <path
       style="fill:none;stroke:#000000;stroke-width:3;stroke-linecap:butt;stroke-linejoin:miter;stroke-opacity:1"
       d="m 583.72778,462.22624 c 22.11026,-1.53583 20.82798,-11.57805 30.11989,-17.7751"
       id="path3104" />
    <path
       style="fill:none;stroke:#000000;stroke-width:3;stroke-linecap:butt;stroke-linejoin:miter;stroke-opacity:1"
       d="m 572.85912,434.57371 c 7.8314,3.14784 16.53008,-2.37703 25.67278,-12.34212"
       id="path3102" />
    <path
       style="fill:none;stroke:#000000;stroke-width:3;stroke-linecap:butt;stroke-linejoin:miter;stroke-opacity:1"
       d="m 561.49753,406.42823 c 5.89333,0.17665 13.37323,-2.37298 19.25926,-7.40741"
       id="path3100" />
    <path
       style="fill:none;stroke:#000000;stroke-width:3;stroke-linecap:butt;stroke-linejoin:miter;stroke-opacity:1"
       d="m 534.79381,333.32183 c 64.9981,137.40818 130.25896,238.74372 173.35167,256.32252"
       id="path3098" />
    <path
       style="fill:none;stroke:#000000;stroke-width:3;stroke-linecap:butt;stroke-linejoin:miter;stroke-opacity:1"
       d="M 669.62963,597.54737 C 634.79092,557.84662 605.0159,542.56012 534.81481,332.36218 c 64.6898,92.16993 128.82772,191.29603 207.40474,249.37915"
       id="path3061" />
    <path
       style="fill:none;stroke:#000000;stroke-width:3;stroke-linecap:butt;stroke-linejoin:miter;stroke-opacity:1"
       d="m 251.6099,478.90846 c 6.27816,0.35516 8.53212,3.05919 22.46415,11.97224 -14.37173,-19.65486 -15.69867,-44.83639 -3.92595,-57.99343 -16.8977,-3.96005 -30.16889,-0.89244 -50.54656,-2.49434 -4.94264,2.93693 -15.51768,15.21114 -7.9498,38.56821"
       id="path3124" />
    <path
       style="fill:none;stroke:#000000;stroke-width:3;stroke-linecap:butt;stroke-linejoin:miter;stroke-opacity:1"
       d="m 238.25,522.83093 c -0.5092,3.44961 -0.92729,6.95865 -1.5,10.375 -1.43322,8.54951 -3.0916,16.98064 -5,25.28125 -1.9084,8.30061 -4.06828,16.44375 -6.5625,24.4375 -1.24711,3.99687 -2.58569,7.96571 -4,11.875 -1.00709,2.7837 -2.12087,5.51385 -3.21875,8.25 8.27318,-5.31969 15.95313,-13.03246 27.625,-12.34375 8.67227,0.51173 16.63015,5.84504 35.875,18.6875 -19.85222,-28.31992 -21.66837,-64.60504 -5.40625,-83.5625 -13.2622,-3.24198 -25.06524,-3.20444 -37.8125,-3 z"
       id="path3142" />
    <path
       style="fill:none;stroke:#000000;stroke-width:3;stroke-linecap:butt;stroke-linejoin:miter;stroke-opacity:1"
       d="m 167.40741,627.17699 c 22.19305,-26.85151 43.92469,-54.00376 78.99834,-195.49254 -5.11208,71.72418 -8.4947,139.32213 -40.47715,196.97135"
       id="path3065" />
    <path
       style="fill:none;stroke:#000000;stroke-width:3;stroke-linecap:butt;stroke-linejoin:miter;stroke-opacity:1"
       d="m 213.33333,495.30909 c 5.51363,7.15532 13.90827,12.41551 24.67888,14.31385"
       id="path3067" />
    <path
       style="fill:none;stroke:#000000;stroke-width:3;stroke-linecap:butt;stroke-linejoin:miter;stroke-opacity:1"
       d="m 200.48491,520.48625 c 8.66092,11.15049 22.19882,12.547 34.56166,16.29363"
       id="path3069" />
    <path
       style="fill:none;stroke:#000000;stroke-width:3;stroke-linecap:butt;stroke-linejoin:miter;stroke-opacity:1"
       d="m 180.73004,551.10711 c 11.61422,13.49511 26.6067,21.68153 47.40741,20.74074"
       id="path3071" />
    <path
       style="fill:none;stroke:#000000;stroke-width:3;stroke-linecap:butt;stroke-linejoin:miter;stroke-opacity:1"
       d="m 157.5166,585.69016 c 15.3925,27.03177 53.53105,21.30392 59.25926,19.25926"
       id="path3073" />
    <path
       sodipodi:type="arc"
       style="fill:none;fill-opacity:1;stroke:#000000;stroke-width:2.85080527999999989;stroke-miterlimit:4;stroke-dasharray:none"
       id="path3095"
       sodipodi:cx="119.25926"
       sodipodi:cy="404.44446"
       sodipodi:rx="20"
       sodipodi:ry="14.814815"
       d="m 139.25926,404.44446 c 0,8.18199 -8.9543,14.81481 -20,14.81481 -11.04569,0 -19.999998,-6.63282 -19.999998,-14.81481 0,-8.182 8.954308,-14.81482 19.999998,-14.81482 11.0457,0 20,6.63282 20,14.81482 z"
       transform="matrix(0.96296296,0,0,1.15,3.676269,189.47329)" />
    <path
       sodipodi:type="arc"
       style="fill:none;fill-opacity:1;stroke:#000000;stroke-width:3.01551532999999994;stroke-miterlimit:4;stroke-dasharray:none"
       id="path3097"
       sodipodi:cx="209.62962"
       sodipodi:cy="414.81482"
       sodipodi:rx="22.962963"
       sodipodi:ry="16.296297"
       d="m 232.59259,414.81482 c 0,9.0002 -10.28087,16.2963 -22.96297,16.2963 -12.68209,0 -22.96296,-7.2961 -22.96296,-16.2963 0,-9.0002 10.28087,-16.2963 22.96296,-16.2963 12.6821,0 22.96297,7.2961 22.96297,16.2963 z"
       transform="matrix(0.87096774,0,0,1.1363636,24.086021,193.5743)" />
    <path
       sodipodi:type="arc"
       style="fill:none;fill-opacity:1;stroke:#000000;stroke-width:3;stroke-miterlimit:4;stroke-dasharray:none"
       id="path3099"
       sodipodi:cx="582.96295"
       sodipodi:cy="405.18518"
       sodipodi:rx="21.481482"
       sodipodi:ry="21.481482"
       d="m 604.44443,405.18518 c 0,11.8639 -9.61758,21.48148 -21.48148,21.48148 -11.86389,0 -21.48148,-9.61758 -21.48148,-21.48148 0,-11.86389 9.61759,-21.48148 21.48148,-21.48148 11.8639,0 21.48148,9.61759 21.48148,21.48148 z"
       transform="translate(0,252.36218)" />
    <path
       sodipodi:type="arc"
       style="fill:none;fill-opacity:1;stroke:#000000;stroke-width:3;stroke-miterlimit:4;stroke-dasharray:none"
       id="path3101"
       sodipodi:cx="674.0741"
       sodipodi:cy="393.33334"
       sodipodi:rx="20.74074"
       sodipodi:ry="20"
       d="m 694.81484,393.33334 c 0,11.0457 -9.28595,20 -20.74074,20 -11.4548,0 -20.74074,-8.9543 -20.74074,-20 0,-11.04569 9.28594,-20 20.74074,-20 11.45479,0 20.74074,8.95431 20.74074,20 z"
       transform="translate(0,252.36218)" />
    <path
       style="fill:none;stroke:#000000;stroke-width:3;stroke-linecap:butt;stroke-linejoin:miter;stroke-opacity:1"
       inkscape:path-effect="#path-effect3113"
       inkscape:original-d="m 800,796.06588 c -2.17272,-8.75344 -12.44663,-21.82542 -37.03704,-26.66666 -39.27612,-7.73248 -16.67582,55.74903 -69.62963,81.48148 -35.56022,17.28018 -78.59405,-93.15637 -128.88889,-69.62963 -28.4313,13.2995 -5.34551,69.33943 -38.51851,85.92592 -40.44786,20.22393 -34.69672,-17.15512 -68.14815,-14.81481 -34.39208,2.40612 -50.34384,8.89332 -50.37037,29.62963"
       id="path3111"
       d="m 800,796.06588 c -0.76656,-8.59185 -5.42113,-16.76136 -12.4214,-21.80155 -7.00028,-5.0402 -16.22429,-6.86326 -24.61564,-4.86511 -9.01828,2.14743 -16.6364,8.39468 -22.19615,15.8129 -5.55975,7.41822 -9.30751,16.00757 -12.96292,24.52689 -3.65541,8.51932 -7.31318,17.13622 -12.72589,24.6624 -5.41271,7.52617 -12.81786,13.9787 -21.74467,16.47929 -6.42997,1.80117 -13.36491,1.4553 -19.76268,-0.4571 -6.39776,-1.9124 -12.27824,-5.34321 -17.46412,-9.5498 -10.37176,-8.41317 -17.89863,-19.72586 -25.71043,-30.55779 -7.8118,-10.83192 -16.3663,-21.62069 -27.95378,-28.26035 -5.79374,-3.31983 -12.29706,-5.52012 -18.96662,-5.84516 -6.66956,-0.32503 -13.5031,1.29515 -19.03126,5.04057 -6.75436,4.5762 -11.16348,11.99221 -13.68445,19.75157 -2.52096,7.75936 -3.34357,15.94926 -4.28386,24.05351 -0.94029,8.10424 -2.03802,16.29253 -5.05994,23.87085 -3.02192,7.57833 -8.19747,14.59237 -15.49026,18.24999 -5.34998,2.68322 -11.53773,3.40893 -17.49236,2.80534 -5.95463,-0.6036 -11.71433,-2.47846 -17.24206,-4.77325 -11.05547,-4.58959 -21.59284,-10.96165 -33.41373,-12.8469 -10.42577,-1.66275 -21.40829,0.41283 -30.50819,5.76571 -9.0999,5.35288 -16.25,13.94356 -19.86218,23.86392" />
    <path
       style="fill:none;stroke:#000000;stroke-width:3;stroke-linecap:butt;stroke-linejoin:miter;stroke-opacity:1"
       inkscape:path-effect="#path-effect3105"
       inkscape:original-d="m 0,820.32773 c 17.652225,30.32288 61.924308,42.21724 77.037037,23.14556 49.663843,-62.67385 52.962343,-70.39254 85.925923,-59.25926 24.1165,8.14522 -0.41067,64.4411 23.70371,72.59259 25.56379,8.64143 39.76505,-43.80811 66.66666,-45.92592 12.55134,-0.98809 26.80274,6.01816 34.07408,16.29629 16.06292,22.70514 0.58893,56.4177 8.88889,82.96297 1.84654,5.90568 2.86839,14.86787 8.88889,16.29629 7.59719,1.80251 12.67538,-9.13584 19.25925,-13.33333 19.78232,-12.61205 37.29642,-34.67935 60.74075,-35.55555 23.24802,-0.86887 51.07101,10.22008 44.44444,41.48148 -1.94295,9.16605 -12.41636,17.98631 -8.88889,26.66666 18.85223,46.39134 53.30283,24.9289 80,25.18519 61.81621,0.59342 50.55788,55.5515 50.37037,81.4815"
       id="path3103"
       d="m 0,820.32773 c 5.0475369,14.82615 17.561741,26.89446 32.561186,31.401 14.999445,4.50654 32.092799,1.33374 44.475851,-8.25544 7.809584,-6.04758 13.620578,-14.28092 18.803196,-22.68944 5.182617,-8.40852 9.887587,-17.162 16.045027,-24.88525 6.15745,-7.72326 14.00567,-14.48163 23.45122,-17.37029 4.72278,-1.44432 9.78576,-1.87836 14.6413,-0.97589 4.85554,0.90246 9.48944,3.17299 12.98518,6.66161 4.73698,4.72733 7.13575,11.3733 8.06621,18.00058 0.93046,6.62729 0.53215,13.35736 0.45936,20.04925 -0.0728,6.69189 0.20385,13.50833 2.40612,19.82787 1.10114,3.15977 2.68528,6.16917 4.82718,8.73995 2.14189,2.57079 4.85341,4.69443 7.94484,5.97494 3.31519,1.3732 7.00654,1.74894 10.56508,1.28748 3.55854,-0.46145 6.98637,-1.74143 10.09343,-3.53652 6.21412,-3.59017 11.05979,-9.12919 15.32937,-14.89766 4.26958,-5.76847 8.1016,-11.88706 12.91049,-17.21427 4.80888,-5.32721 10.78471,-9.91141 17.76829,-11.56495 6.53136,-1.54647 13.56479,-0.37408 19.5315,2.69977 5.96672,3.07386 10.89633,7.96135 14.54258,13.59652 7.66973,11.85333 9.63658,26.51812 9.63368,40.63642 -0.003,14.11829 -1.77419,28.24583 -0.74479,42.32655 0.24034,3.28753 0.6489,6.62341 1.99032,9.63442 0.67072,1.50551 1.57444,2.91662 2.73619,4.0857 1.16175,1.16907 2.5872,2.09119 4.16238,2.57617 2.01151,0.61932 4.21129,0.50487 6.21501,-0.13918 2.00373,-0.64406 3.8194,-1.79816 5.39181,-3.19717 3.14482,-2.79804 5.30293,-6.50431 7.65243,-9.99698 6.80391,-10.11441 15.6604,-18.90525 26.09484,-25.20739 10.43444,-6.30213 22.45918,-10.06895 34.64591,-10.34816 11.66179,-0.26718 23.70075,2.84683 32.64117,10.33934 4.47021,3.74625 8.09376,8.54313 10.23985,13.96637 2.1461,5.42323 2.78206,11.47208 1.56342,17.17577 -0.98408,4.60586 -3.11944,8.86813 -5.04651,13.16565 -1.92707,4.29753 -3.68801,8.79373 -3.84238,13.50101 -0.12952,3.94954 0.90259,7.90672 2.78495,11.38125 1.88237,3.47453 4.59793,6.47129 7.76267,8.83773 6.32949,4.73289 14.29126,6.87669 22.17595,7.41921 15.76937,1.08504 31.52878,-3.81753 47.27643,-2.453 18.4575,1.59934 35.90013,12.33614 45.64185,28.09481 9.74173,15.75869 11.54879,36.16109 4.72852,53.38669" />
    <path
       style="fill:none;stroke:#000000;stroke-width:3;stroke-linecap:butt;stroke-linejoin:miter;stroke-opacity:1"
       inkscape:path-effect="#path-effect3117"
       inkscape:original-d="m 515.55555,868.65848 c 34.40525,53.89845 47.14669,50.18603 74.07408,41.48148 35.75475,-11.55808 72.11712,-41.16006 88.88889,-7.40741 9.44923,19.01628 -9.06262,44.50016 0,63.7037 4.64147,9.83521 14.43542,19.09232 25.18518,20.74074 22.11681,3.39151 42.06537,-34.8989 62.22223,-25.18518 25.05504,12.07418 9.4824,56.09819 23.7037,79.99999 2.49969,4.2012 15.00155,1.108 10.37037,10.3704"
       id="path3115"
       d="m 515.55555,868.65848 c 4.89631,14.73432 15.45163,27.50868 28.99865,35.09501 13.54702,7.58633 29.95418,9.91096 45.07543,6.38647 15.79275,-3.68101 29.58627,-13.2863 45.06635,-18.11621 7.74004,-2.41496 16.01921,-3.60683 23.98889,-2.11539 3.98484,0.74573 7.85877,2.16418 11.29408,4.31678 3.4353,2.15261 6.42432,5.04898 8.53957,8.50741 2.82496,4.61882 4.01705,10.09836 4.14715,15.51103 0.13011,5.41266 -0.75265,10.7979 -1.82629,16.10461 -1.07365,5.30671 -2.34271,10.58374 -3.00187,15.9577 -0.65915,5.37395 -0.69393,10.89362 0.68101,16.13036 1.48429,5.65323 4.64791,10.88796 9.11183,14.66097 4.46392,3.773 10.22869,6.03409 16.07335,6.07977 5.77255,0.0451 11.39485,-2.01284 16.40776,-4.87555 5.0129,-2.86271 9.51557,-6.52138 14.11916,-10.00438 4.60359,-3.483 9.38687,-6.8363 14.75065,-8.97036 5.36377,-2.13405 11.41008,-2.97586 16.94466,-1.33489 3.54136,1.04999 6.75878,3.08609 9.3727,5.69591 2.61392,2.60982 4.63555,5.78175 6.09124,9.17656 2.91137,6.78962 3.55268,14.3372 3.46927,21.72421 -0.0834,7.38701 -0.85298,14.76571 -0.606,22.14911 0.24698,7.3833 1.58294,14.9151 5.37649,21.2542 2.53589,4.2375 6.13285,7.8345 10.37037,10.3704" />
    <path
       style="fill:none;stroke:#000000;stroke-width:3;stroke-linecap:butt;stroke-linejoin:miter;stroke-opacity:1"
       inkscape:path-effect="#path-effect3121"
       inkscape:original-d="m 0,956.06588 c 4.6638127,-1.94644 0,-35.47688 35.48956,-17.62391 19.82708,9.97398 17.902283,54.34704 40.065996,53.17947 25.879464,-1.36331 32.592604,-17.77778 40.000004,-66.66667 0.43136,-2.84698 1.97112,-5.93291 4.44444,-7.4074 50.41709,-30.05667 28.08746,83.12133 62.22222,81.48148 50.2398,-2.41351 41.47335,-91.81248 82.96297,-74.07408 15.09393,6.45323 18.942,29.19225 34.07407,35.55556 37.58557,15.80541 45.15256,-22.35578 69.62963,-26.66667 46.76399,-8.23605 45.62997,16.29629 54.81481,25.18518"
       id="path3119"
       d="m 0,956.06588 c 0.40913119,-3.91075 1.8212289,-7.71242 4.0643058,-10.94197 2.2430768,-3.22955 5.3124105,-5.88018 8.8341692,-7.62907 3.521759,-1.74888 7.488529,-2.59234 11.417175,-2.42763 3.928646,0.16471 7.810896,1.33723 11.17391,3.37476 4.912156,2.9761 8.581044,7.67292 11.315478,12.72359 2.734434,5.05068 4.626398,10.50354 6.732793,15.84671 2.106395,5.34318 4.47383,10.66052 8.013188,15.18373 3.539358,4.5232 8.386387,8.23262 14.004537,9.42544 3.531002,0.74969 7.251372,0.4763 10.690444,-0.62042 3.439073,-1.09672 6.598809,-3.00137 9.292554,-5.40424 5.387486,-4.80572 8.827096,-11.47504 10.944976,-18.37682 4.23576,-13.80356 3.62046,-28.89506 9.07203,-42.26519 1.0936,-2.68209 2.45032,-5.30667 4.44444,-7.4074 1.76125,-1.8554 3.98865,-3.25396 6.40357,-4.09818 2.41491,-0.84421 5.01294,-1.13837 7.5621,-0.9231 5.0983,0.43052 9.91193,2.89982 13.61474,6.43073 3.70281,3.5309 6.3444,8.07341 8.09901,12.87959 1.75462,4.80619 2.65545,9.88489 3.21307,14.97087 1.11524,10.17195 0.90804,20.58502 3.75911,30.41272 1.42554,4.91385 3.63503,9.65408 6.91682,13.57937 3.2818,3.92529 7.68666,7.00246 12.6538,8.22948 4.9911,1.23295 10.35982,0.54482 15.07865,-1.49573 4.71884,-2.04054 8.80954,-5.37907 12.12804,-9.30573 6.63701,-7.85334 10.15313,-17.79901 13.65596,-27.46623 3.50282,-9.66721 7.28908,-19.56295 14.30457,-27.0801 3.50775,-3.75858 7.80851,-6.84712 12.66505,-8.5339 4.85654,-1.68678 10.285,-1.91006 15.1307,-0.19239 3.93154,1.39362 7.35026,3.99458 10.20158,7.03911 2.85132,3.04453 5.17777,6.53591 7.42506,10.05001 2.24728,3.51409 4.43711,7.0796 7.05706,10.32537 2.61994,3.24578 5.70549,6.18637 9.39037,8.14107 5.7538,3.05218 12.65405,3.48918 19.02577,2.13893 6.37171,-1.35025 12.27777,-4.3768 17.7326,-7.93583 10.90967,-7.11808 20.56831,-16.58897 32.87126,-20.86977 10.49063,-3.6502 22.38436,-3.07978 32.47753,1.55762 10.09316,4.63739 18.27339,13.29014 22.33728,23.62756" />
    <path
       style="fill:none;stroke:#000000;stroke-width:3;stroke-linecap:butt;stroke-linejoin:miter;stroke-opacity:1"
       inkscape:path-effect="#path-effect3125"
       inkscape:original-d="m 207.40741,990.13996 c 16.41295,29.62964 33.40474,31.75724 54.81481,37.03704 21.70864,5.3534 47.02605,-18.0924 66.66667,-7.4074 10.66979,5.8046 13.01375,26.0275 16.29629,32.5926"
       id="path3123"
       d="m 207.40741,990.13996 c 3.66465,11.29714 11.1934,21.30154 21.03428,27.95074 9.84088,6.6492 21.93186,9.9015 33.78053,9.0863 11.37766,-0.7828 22.15459,-5.1377 33.18135,-8.0488 5.51337,-1.4556 11.15518,-2.5592 16.85658,-2.6589 5.70141,-0.1 11.48603,0.8369 16.62874,3.3003 5.8967,2.8246 10.80992,7.6554 13.73394,13.5034 2.92402,5.848 3.84068,12.6771 2.56235,19.0892" />
    <path
       sodipodi:type="star"
       style="fill:none;fill-opacity:1;stroke:#000000;stroke-width:3;stroke-miterlimit:4;stroke-dasharray:none"
       id="path3127"
       sodipodi:sides="5"
       sodipodi:cx="749.62963"
       sodipodi:cy="40"
       sodipodi:r1="23.424279"
       sodipodi:r2="11.71214"
       sodipodi:arg1="2.176341"
       sodipodi:arg2="2.8046595"
       inkscape:flatsided="false"
       inkscape:rounded="0"
       inkscape:randomized="0"
       d="m 736.29631,59.259259 2.27973,-15.387293 -11.38327,-10.601281 15.33866,-2.586781 6.56479,-14.102108 7.20009,13.788574 15.44053,1.885699 -10.88877,11.108589 2.97799,15.267534 -13.92971,-6.923089 z"
       transform="translate(0,252.36218)"
       inkscape:transform-center-x="0.16483439"
       inkscape:transform-center-y="-2.0794727" />
    <path
       sodipodi:type="star"
       style="fill:none;fill-opacity:1;stroke:#000000;stroke-width:3;stroke-miterlimit:4;stroke-dasharray:none"
       id="path3129"
       sodipodi:sides="5"
       sodipodi:cx="666.66667"
       sodipodi:cy="109.62963"
       sodipodi:r1="22.023806"
       sodipodi:r2="11.011903"
       sodipodi:arg1="0.34302394"
       sodipodi:arg2="0.97134247"
       inkscape:flatsided="false"
       inkscape:rounded="0"
       inkscape:randomized="0"
       d="m 687.40743,117.03704 -14.52792,1.6845 -6.84844,12.92272 -6.09144,-13.29633 -14.40652,-2.51992 10.76321,-9.90208 -2.05528,-14.480119 12.74346,7.176504 13.13629,-6.429286 -2.88731,14.337411 z"
       transform="translate(0,252.36218)"
       inkscape:transform-center-x="0.19641791"
       inkscape:transform-center-y="1.9154057" />
    <path
       sodipodi:type="star"
       style="fill:none;fill-opacity:1;stroke:#000000;stroke-width:3;stroke-miterlimit:4;stroke-dasharray:none"
       id="path3131"
       sodipodi:sides="5"
       sodipodi:cx="565.92593"
       sodipodi:cy="35.555556"
       sodipodi:r1="16.76105"
       sodipodi:r2="8.3805248"
       sodipodi:arg1="0.78539816"
       sodipodi:arg2="1.4137167"
       inkscape:flatsided="false"
       inkscape:rounded="0"
       inkscape:randomized="0"
       d="m 577.77775,47.407409 -10.54084,-3.574505 -8.92036,6.656858 0.14225,-11.129526 -9.08759,-6.426684 10.62877,-3.303921 3.30392,-10.628767 6.42668,9.087591 11.12953,-0.142255 -6.65686,8.92036 z"
       transform="translate(0,252.36218)"
       inkscape:transform-center-x="0.81024436"
       inkscape:transform-center-y="-0.81024436" />
    <path
       sodipodi:type="star"
       style="fill:none;fill-opacity:1;stroke:#000000;stroke-width:3;stroke-miterlimit:4;stroke-dasharray:none"
       id="path3133"
       sodipodi:sides="5"
       sodipodi:cx="734.81481"
       sodipodi:cy="197.03704"
       sodipodi:r1="37.390902"
       sodipodi:r2="18.695451"
       sodipodi:arg1="0.98279372"
       sodipodi:arg2="1.6111123"
       inkscape:flatsided="false"
       inkscape:rounded="0"
       inkscape:randomized="0"
       d="m 755.55556,228.14815 -21.49426,-12.43086 -22.42566,10.65922 5.18035,-24.2836 -17.06744,-18.03419 24.6959,-2.57724 11.87741,-21.80497 10.08255,22.69078 24.40808,4.55799 -18.46454,16.60091 z"
       transform="translate(0,252.36218)"
       inkscape:transform-center-x="-0.46570114"
       inkscape:transform-center-y="-3.124704" />
    <path
       sodipodi:type="star"
       style="fill:none;fill-opacity:1;stroke:#000000;stroke-width:3;stroke-miterlimit:4;stroke-dasharray:none"
       id="path3135"
       sodipodi:sides="5"
       sodipodi:cx="659.25926"
       sodipodi:cy="37.037037"
       sodipodi:r1="25.915342"
       sodipodi:r2="12.957671"
       sodipodi:arg1="2.1112158"
       sodipodi:arg2="2.7395344"
       inkscape:flatsided="false"
       inkscape:rounded="0"
       inkscape:randomized="0"
       d="m 645.92594,59.25926 1.40894,-17.151714 -13.33042,-10.884218 16.74764,-3.960191 6.23218,-16.041393 8.94166,14.704182 17.18213,0.970091 -11.22138,13.047875 4.38695,16.640943 -15.87686,-6.640152 z"
       transform="translate(0,252.36218)"
       inkscape:transform-center-x="0.70301404"
       inkscape:transform-center-y="-1.796535" />
    <path
       sodipodi:type="star"
       style="fill:none;fill-opacity:1;stroke:#000000;stroke-width:3;stroke-miterlimit:4;stroke-dasharray:none"
       id="path3137"
       sodipodi:sides="5"
       sodipodi:cx="591.11111"
       sodipodi:cy="100.74074"
       sodipodi:r1="25.228721"
       sodipodi:r2="12.61436"
       sodipodi:arg1="0.8685394"
       sodipodi:arg2="1.4968579"
       inkscape:flatsided="false"
       inkscape:rounded="0"
       inkscape:randomized="0"
       d="m 607.40738,120 -15.36446,-6.67937 -14.21265,8.87025 1.60458,-16.67651 -12.82806,-10.775978 16.35615,-3.627283 6.28447,-15.530163 8.50408,14.434723 16.71207,1.177808 -11.10033,12.548433 z"
       transform="translate(0,252.36218)"
       inkscape:transform-center-x="0.57590635"
       inkscape:transform-center-y="-1.8548267" />
    <path
       sodipodi:type="star"
       style="fill:none;fill-opacity:1;stroke:#000000;stroke-width:3;stroke-miterlimit:4;stroke-dasharray:none"
       id="path3139"
       sodipodi:sides="5"
       sodipodi:cx="491.85185"
       sodipodi:cy="78.518519"
       sodipodi:r1="34.45838"
       sodipodi:r2="17.229189"
       sodipodi:arg1="2.0152155"
       sodipodi:arg2="2.6435341"
       inkscape:flatsided="false"
       inkscape:rounded="0"
       inkscape:randomized="0"
       d="m 477.03702,109.62963 -0.32123,-22.880371 -19.03041,-12.706606 21.66126,-7.37593 6.20398,-22.025555 13.70862,18.321794 22.86469,-0.905935 -13.18887,18.699422 7.92717,21.465651 -21.85979,-6.764911 z"
       transform="translate(0,252.36218)"
       inkscape:transform-center-x="1.9471826"
       inkscape:transform-center-y="-1.3831181" />
    <path
       sodipodi:type="star"
       style="fill:none;fill-opacity:1;stroke:#000000;stroke-width:3;stroke-miterlimit:4;stroke-dasharray:none"
       id="path3141"
       sodipodi:sides="5"
       sodipodi:cx="760"
       sodipodi:cy="386.66667"
       sodipodi:r1="26.377028"
       sodipodi:r2="13.188513"
       sodipodi:arg1="0.90482709"
       sodipodi:arg2="1.5331456"
       inkscape:flatsided="false"
       inkscape:rounded="0"
       inkscape:randomized="0"
       d="m 776.2963,407.4074 -15.79986,-7.56158 -15.18622,8.72878 2.30906,-17.36321 -12.99436,-11.74562 17.22693,-3.16948 7.15527,-15.98797 8.33777,15.40437 17.41656,1.86451 -12.07391,12.6899 z"
       transform="translate(0,252.36218)"
       inkscape:transform-center-x="0.30681652"
       inkscape:transform-center-y="-2.2251971" />
    <path
       sodipodi:type="star"
       style="fill:none;fill-opacity:1;stroke:#000000;stroke-width:3;stroke-miterlimit:4;stroke-dasharray:none"
       id="path3143"
       sodipodi:sides="5"
       sodipodi:cx="743.7037"
       sodipodi:cy="269.62963"
       sodipodi:r1="31.705088"
       sodipodi:r2="15.852543"
       sodipodi:arg1="0.65284663"
       sodipodi:arg2="1.2811652"
       inkscape:flatsided="false"
       inkscape:rounded="0"
       inkscape:randomized="0"
       d="m 768.88886,288.8889 -20.65772,-4.06699 -15.06146,14.7117 -2.51565,-20.90342 -18.64591,-9.77814 19.10296,-8.85204 3.53766,-20.75492 14.32193,15.43256 20.8323,-3.04911 -10.25152,18.38989 z"
       transform="translate(0,252.36218)"
       inkscape:transform-center-x="2.7981286"
       inkscape:transform-center-y="-0.24028779" />
    <path
       sodipodi:type="star"
       style="fill:none;fill-opacity:1;stroke:#000000;stroke-width:3;stroke-miterlimit:4;stroke-dasharray:none"
       id="path3145"
       sodipodi:sides="5"
       sodipodi:cx="751.11111"
       sodipodi:cy="100.74074"
       sodipodi:r1="40.975753"
       sodipodi:r2="20.487875"
       sodipodi:arg1="1.3521274"
       sodipodi:arg2="1.9804459"
       inkscape:flatsided="false"
       inkscape:rounded="0"
       inkscape:randomized="0"
       d="m 759.99997,140.74074 -17.04896,-21.20728 -27.13537,2.02179 14.90091,-22.767934 -10.30814,-25.182501 26.25823,7.135925 20.76459,-17.58544 1.32757,27.178181 23.14136,14.314099 -25.43774,9.66112 z"
       transform="translate(0,252.36218)"
       inkscape:transform-center-x="-2.7468177"
       inkscape:transform-center-y="1.2072812" />
    <path
       sodipodi:type="star"
       style="fill:none;fill-opacity:1;stroke:#000000;stroke-width:3;stroke-miterlimit:4;stroke-dasharray:none"
       id="path3147"
       sodipodi:sides="5"
       sodipodi:cx="647.40741"
       sodipodi:cy="160"
       sodipodi:r1="17.839399"
       sodipodi:r2="8.919699"
       sodipodi:arg1="0.72664234"
       sodipodi:arg2="1.3549609"
       inkscape:flatsided="false"
       inkscape:rounded="0"
       inkscape:randomized="0"
       d="m 660.74074,171.85185 -11.42306,-3.13911 -9.06182,7.63044 -0.54445,-11.83402 -10.05724,-6.26037 11.08657,-4.17472 2.84612,-11.49956 7.39633,9.2539 11.81623,-0.84674 -6.51539,9.89394 z"
       transform="translate(0,252.36218)"
       inkscape:transform-center-x="1.1806147"
       inkscape:transform-center-y="-0.54115454" />
    <path
       sodipodi:type="star"
       style="fill:none;fill-opacity:1;stroke:#000000;stroke-width:3;stroke-miterlimit:4;stroke-dasharray:none"
       id="path3149"
       sodipodi:sides="5"
       sodipodi:cx="674.07407"
       sodipodi:cy="217.77778"
       sodipodi:r1="30.505571"
       sodipodi:r2="15.252785"
       sodipodi:arg1="0.5070985"
       sodipodi:arg2="1.135417"
       inkscape:flatsided="false"
       inkscape:rounded="0"
       inkscape:randomized="0"
       d="m 700.74076,232.5926 -20.23373,-0.98496 -12.28221,16.10968 -5.31581,-19.5478 -19.11663,-6.7029 16.94838,-11.09624 0.46748,-20.2523 15.79049,12.68994 19.40555,-5.81371 -7.18933,18.93906 z"
       transform="translate(0,252.36218)"
       inkscape:transform-center-x="1.8075248"
       inkscape:transform-center-y="1.1399131" />
    <path
       sodipodi:type="star"
       style="fill:none;fill-opacity:1;stroke:#000000;stroke-width:3;stroke-miterlimit:4;stroke-dasharray:none"
       id="path3151"
       sodipodi:sides="5"
       sodipodi:cx="487.40741"
       sodipodi:cy="142.22222"
       sodipodi:r1="21.873812"
       sodipodi:r2="10.936906"
       sodipodi:arg1="0.49394137"
       sodipodi:arg2="1.1222599"
       inkscape:flatsided="false"
       inkscape:rounded="0"
       inkscape:randomized="0"
       d="m 506.66667,152.59258 -14.5165,-0.51531 -8.65413,11.66621 -3.99575,-13.96525 -13.7695,-4.62551 12.04699,-8.11569 0.14411,-14.52493 11.4412,8.94948 13.85857,-4.35139 -4.97594,13.64677 z"
       transform="translate(0,252.36218)"
       inkscape:transform-center-x="1.2086798"
       inkscape:transform-center-y="0.90557513" />
    <path
       sodipodi:type="star"
       style="fill:none;fill-opacity:1;stroke:#000000;stroke-width:3;stroke-miterlimit:4;stroke-dasharray:none"
       id="path3153"
       sodipodi:sides="5"
       sodipodi:cx="440"
       sodipodi:cy="22.222221"
       sodipodi:r1="22.998777"
       sodipodi:r2="11.499389"
       sodipodi:arg1="0.26060239"
       sodipodi:arg2="0.88892092"
       inkscape:flatsided="false"
       inkscape:rounded="0"
       inkscape:randomized="0"
       d="m 462.22222,28.148147 -14.97473,3.002109 -6.01634,14.037767 -7.48262,-13.314113 -15.20986,-1.383969 10.35022,-11.230683 -3.38387,-14.8931059 13.8794,6.3731689 13.11851,-7.8204771 -1.77227,15.1695171 z"
       transform="translate(7.4074074,262.73255)"
       inkscape:transform-center-x="-0.38044746"
       inkscape:transform-center-y="1.8312118" />
    <path
       style="fill:none;stroke:#000000;stroke-width:3;stroke-linecap:butt;stroke-linejoin:miter;stroke-opacity:1"
       d="m 188.14815,302.73255 c 0,0 -26.17964,-34.71737 -85.92593,-31.11111 -26.545094,1.60225 -58.125636,23.55518 -72.59259,48.88889 -16.436594,28.78283 -15.79518,67.61734 -5.925926,99.25926 10.131357,32.48225 43.602579,52.18202 82.962966,53.33332 16.16922,0.47295 47.4074,-10.37037 47.4074,-10.37037 -39.69404,-4.64572 -52.51012,-16.61214 -66.666662,-29.62962 -7.804812,-7.17682 -14.814816,-28.14815 -14.814816,-28.14815 0,0 24.120317,9.05705 41.481488,11.85185 33.41459,5.37907 28.14815,-2.96296 28.14815,-2.96296 0,0 -16.44465,-21.98391 -11.85185,-32.5926 4.48252,-10.35396 31.1111,-13.33332 31.1111,-13.33332 0,0 -26.64223,-25.40169 -22.22222,-40 5.3122,-17.545 48.88889,-25.18519 48.88889,-25.18519 z"
       id="path3155" />
    <path
       style="fill:none;stroke:#000000;stroke-width:3;stroke-linecap:butt;stroke-linejoin:miter;stroke-opacity:1"
       d="m 124.44445,336.80662 c -5.75402,-24.90541 -24.981751,-9.7018 -35.555561,-8.88889"
       id="path3161" />
    <path
       sodipodi:type="star"
       style="fill:none;stroke:#000000;stroke-width:3;stroke-miterlimit:4;stroke-dasharray:none"
       id="path3163"
       sodipodi:sides="5"
       sodipodi:cx="277.03704"
       sodipodi:cy="35.555556"
       sodipodi:r1="25.872962"
       sodipodi:r2="12.936481"
       sodipodi:arg1="0.23109067"
       sodipodi:arg2="0.8594092"
       inkscape:flatsided="false"
       inkscape:rounded="0"
       inkscape:randomized="0"
       d="m 302.22223,41.481484 -16.73915,3.872901 -6.29927,15.98492 -8.85603,-14.723086 -17.14915,-1.051356 11.26583,-12.972269 -4.29948,-16.634693 15.81869,6.705783 14.49192,-9.22945 -1.48933,17.11667 z"
       transform="translate(0,252.36218)"
       inkscape:transform-center-x="-0.66338525"
       inkscape:transform-center-y="1.8312118" />
    <path
       sodipodi:type="star"
       style="fill:none;stroke:#000000;stroke-width:3;stroke-miterlimit:4;stroke-dasharray:none"
       id="path3165"
       sodipodi:sides="5"
       sodipodi:cx="299.25926"
       sodipodi:cy="99.259259"
       sodipodi:r1="22.222222"
       sodipodi:r2="11.111111"
       sodipodi:arg1="0.64350111"
       sodipodi:arg2="1.2718196"
       inkscape:flatsided="false"
       inkscape:rounded="0"
       inkscape:randomized="0"
       d="m 317.03702,112.59259 -14.50508,-2.71512 -10.45981,10.40969 -1.90008,-14.63418 -13.13246,-6.731096 13.33077,-6.329288 2.3435,-14.569742 10.13895,10.722459 14.58083,-2.273495 -7.06456,12.956132 z"
       transform="translate(0,252.36218)"
       inkscape:transform-center-x="2.022636"
       inkscape:transform-center-y="-0.10425543" />
    <path
       sodipodi:type="star"
       style="fill:none;stroke:#000000;stroke-width:3;stroke-miterlimit:4;stroke-dasharray:none"
       id="path3167"
       sodipodi:sides="5"
       sodipodi:cx="211.85185"
       sodipodi:cy="91.851852"
       sodipodi:r1="29.518309"
       sodipodi:r2="14.759155"
       sodipodi:arg1="1.2649175"
       sodipodi:arg2="1.893236"
       inkscape:flatsided="false"
       inkscape:rounded="0"
       inkscape:randomized="0"
       d="m 220.74074,120 -13.56579,-14.1496 -19.34676,3.15354 9.26501,-17.274298 -8.97767,-17.425363 19.29188,3.473499 13.79825,-13.923012 2.65802,19.42104 17.50547,8.820468 -17.64913,8.529366 z"
       transform="translate(0,252.36218)"
       inkscape:transform-center-x="-2.7468177"
       inkscape:transform-center-y="0.075530069" />
    <path
       sodipodi:type="star"
       style="fill:none;stroke:#000000;stroke-width:3;stroke-miterlimit:4;stroke-dasharray:none"
       id="path3169"
       sodipodi:sides="5"
       sodipodi:cx="59.259258"
       sodipodi:cy="263.7037"
       sodipodi:r1="42.73246"
       sodipodi:r2="21.366232"
       sodipodi:arg1="0.5880026"
       sodipodi:arg2="1.2163211"
       inkscape:flatsided="false"
       inkscape:rounded="0"
       inkscape:randomized="0"
       d="M 94.814814,287.40741 66.67544,283.74157 47.702967,304.8439 42.493841,276.94895 16.561522,265.42604 l 24.919956,-13.57419 2.945419,-28.22388 20.610507,19.50564 27.752687,-5.9204 -12.181963,25.62933 z"
       transform="translate(4.4444444,265.69551)"
       inkscape:transform-center-x="3.5710903"
       inkscape:transform-center-y="0.53222988" />
    <path
       sodipodi:type="star"
       style="fill:none;stroke:#000000;stroke-width:3;stroke-miterlimit:4;stroke-dasharray:none"
       id="path3171"
       sodipodi:sides="5"
       sodipodi:cx="174.8148"
       sodipodi:cy="154.07407"
       sodipodi:r1="22.023806"
       sodipodi:r2="11.011903"
       sodipodi:arg1="0.83298127"
       sodipodi:arg2="1.4612998"
       inkscape:flatsided="false"
       inkscape:rounded="0"
       inkscape:randomized="0"
       d="m 189.62962,170.37036 -13.61146,-5.35034 -12.12403,8.1796 0.88231,-14.59861 -11.5258,-9.00299 14.15676,-3.6721 5.00069,-13.74376 7.86705,12.32913 14.61639,0.50888 -9.29465,11.29192 z"
       transform="translate(8.8888889,256.80662)"
       inkscape:transform-center-x="0.74371563"
       inkscape:transform-center-y="-1.3831758" />
    <path
       sodipodi:type="star"
       style="fill:none;stroke:#000000;stroke-width:3;stroke-miterlimit:4;stroke-dasharray:none"
       id="path3173"
       sodipodi:sides="5"
       sodipodi:cx="137.77779"
       sodipodi:cy="242.96297"
       sodipodi:r1="22.222221"
       sodipodi:r2="11.111111"
       sodipodi:arg1="0.64350111"
       sodipodi:arg2="1.2718196"
       inkscape:flatsided="false"
       inkscape:rounded="0"
       inkscape:randomized="0"
       d="m 155.55556,256.2963 -14.50508,-2.71513 -10.45981,10.40969 -1.90008,-14.63417 -13.13246,-6.7311 13.33077,-6.32929 2.3435,-14.56974 10.13894,10.72246 14.58083,-2.2735 -7.06455,12.95614 z"
       transform="translate(1.4814815,262.73255)"
       inkscape:transform-center-x="2.022636"
       inkscape:transform-center-y="-0.10425543" />
    <path
       style="fill:none;stroke:#000000;stroke-width:3;stroke-linecap:butt;stroke-linejoin:miter;stroke-opacity:1"
       d="M 245.44101,430.63022 C 210.81166,496.35433 184.74751,564.4144 122.96296,622.73255"
       id="path3160" />
    <path
       style="fill:none;stroke:#000000;stroke-width:3;stroke-linecap:butt;stroke-linejoin:miter;stroke-opacity:1"
       d="M 244.4498,430.6329 C 190.96637,494.90789 136.43246,559.52553 63.711728,608.41068"
       id="path3146" />
  </g>
</svg>
